<svg width="142" height="104" viewBox="0 0 142 104" fill="none" xmlns="http://www.w3.org/2000/svg">
<path d="M30.6738 66.4532C32.1345 75.9679 26.0743 89.9579 38.1947 95.2652C54.3815 102.357 64.525 84.4082 77.6747 81.1229C87.7083 78.6131 105.048 96.8303 117.544 85.2654C130.039 73.7006 108.996 57.9114 108.204 48.5011C107.42 39.1951 124.842 22.9575 110.869 13.0622C97.1524 3.36135 81.5409 21.8916 68.5689 25.3517C57.0351 28.4227 29.0382 13.8179 20.7135 28.1351C12.8288 41.6908 29.2638 57.2656 30.6738 66.4532Z" fill="#02513E"/>
<path opacity="0.9" d="M30.6738 66.4532C32.1345 75.9679 26.0743 89.9579 38.1947 95.2652C54.3815 102.357 64.525 84.4082 77.6747 81.1229C87.7083 78.6131 105.048 96.8303 117.544 85.2654C130.039 73.7006 108.996 57.9114 108.204 48.5011C107.42 39.1951 124.842 22.9575 110.869 13.0622C97.1524 3.36135 81.5409 21.8916 68.5689 25.3517C57.0351 28.4227 29.0382 13.8179 20.7135 28.1351C12.8288 41.6908 29.2638 57.2656 30.6738 66.4532Z" fill="white"/>
<path d="M98.3148 61.2192H119.659C120.446 61.2192 121.201 61.5318 121.757 62.0881C122.314 62.6445 122.626 63.3991 122.626 64.1859V80.4093C122.626 81.1961 122.314 81.9507 121.757 82.5071C121.201 83.0634 120.446 83.376 119.659 83.376H107.334C105.17 83.376 103.438 85.2234 101.82 86.6606C100.864 87.5091 99.632 87.9796 98.3543 87.9839C98.1964 87.9839 98.12 87.8115 98.2097 87.6817C98.7208 86.9425 99.1607 86.0169 99.5183 84.9498C99.7834 84.159 99.163 83.3788 98.3289 83.3788C97.5421 83.3788 96.7876 83.0662 96.2312 82.5099C95.6749 81.9535 95.3623 81.199 95.3623 80.4122V64.1859C95.3623 63.4015 95.6729 62.6491 96.2262 62.0931C96.7795 61.5372 97.5305 61.223 98.3148 61.2192Z" fill="#02513E"/>
<path opacity="0.4" d="M98.3148 61.2192H119.659C120.446 61.2192 121.201 61.5318 121.757 62.0881C122.314 62.6445 122.626 63.3991 122.626 64.1859V80.4093C122.626 81.1961 122.314 81.9507 121.757 82.5071C121.201 83.0634 120.446 83.376 119.659 83.376H107.334C105.17 83.376 103.438 85.2234 101.82 86.6606C100.864 87.5091 99.632 87.9796 98.3543 87.9839C98.1964 87.9839 98.12 87.8115 98.2097 87.6817C98.7208 86.9425 99.1607 86.0169 99.5183 84.9498C99.7834 84.159 99.163 83.3788 98.3289 83.3788C97.5421 83.3788 96.7876 83.0662 96.2312 82.5099C95.6749 81.9535 95.3623 81.199 95.3623 80.4122V64.1859C95.3623 63.4015 95.6729 62.6491 96.2262 62.0931C96.7795 61.5372 97.5305 61.223 98.3148 61.2192Z" fill="white"/>
<path d="M96.5278 67.8192C96.9333 67.6673 97.1031 67.186 96.8829 66.8133L96.5987 66.3324C96.3837 65.9685 96.3828 65.5167 96.5962 65.1519L96.9103 64.6149C96.9531 64.5418 96.9789 64.4599 96.9858 64.3755C96.9926 64.291 96.9803 64.2061 96.9498 64.127L96.8991 64.0001C96.8596 63.8944 96.7893 63.8029 96.6973 63.7376C96.6053 63.6722 96.4958 63.636 96.383 63.6335L95.3481 63.6053C95.243 63.6017 95.139 63.6275 95.0478 63.6798C94.9566 63.7321 94.8819 63.8089 94.832 63.9014L94.6233 64.2849C94.5729 64.3774 94.5448 64.4805 94.5414 64.5857C94.5379 64.691 94.5593 64.7957 94.6036 64.8912L95.0491 65.8529L95.6315 67.4111C95.7661 67.7714 96.1676 67.9542 96.5278 67.8192Z" fill="#7F3E3B"/>
<path d="M105.706 67.2146L102.372 69.6406C100.95 70.6753 98.941 70.213 98.1144 68.6607L97.277 67.0881C97.0411 66.6451 96.5045 66.4575 96.044 66.657C95.5932 66.8524 95.3615 67.3522 95.5166 67.8183C96.1936 69.8532 98.0163 74.9617 99.1718 74.7017C100.613 74.3774 104.679 72.3667 106.002 70.9877C106.67 70.2912 107.178 69.0137 106.518 67.4345C106.487 67.3589 106.44 67.2913 106.379 67.2372C106.318 67.183 106.245 67.1438 106.167 67.1224C106.088 67.1011 106.005 67.0984 105.925 67.1143C105.845 67.1303 105.77 67.1646 105.706 67.2146Z" fill="#02513E"/>
<path d="M108.204 57.0737C108.053 56.8901 107.807 56.8107 107.597 56.9225C107.233 57.1162 106.706 57.5251 106.581 58.3043C106.434 59.2197 107.82 59.8344 108.046 58.9354C108.161 58.4798 108.272 57.8985 108.333 57.5624C108.365 57.3884 108.317 57.2101 108.204 57.0737Z" fill="#263238"/>
<path opacity="0.3" d="M108.204 57.0737C108.053 56.8901 107.807 56.8107 107.597 56.9225C107.233 57.1162 106.706 57.5251 106.581 58.3043C106.434 59.2197 107.82 59.8344 108.046 58.9354C108.161 58.4798 108.272 57.8985 108.333 57.5624C108.365 57.3884 108.317 57.2101 108.204 57.0737Z" fill="black"/>
<path d="M112.985 66.9609L109.259 66.8392C109.152 66.8357 109.046 66.8416 108.94 66.8568C108.094 66.9786 107.445 67.6855 107.381 68.538C107.317 69.3868 107.838 70.1833 108.646 70.4516L109.611 70.7723C110.131 70.945 110.687 70.9795 111.224 70.8725L111.623 70.793C112.875 70.5438 113.801 69.4833 113.88 68.2099L113.911 67.7126C113.918 67.604 113.899 67.4953 113.856 67.3952C113.75 67.1441 113.507 66.9778 113.234 66.969L112.985 66.9609Z" fill="#7F3E3B"/>
<path d="M107.726 80.5729C107.709 82.1158 108.955 83.376 110.497 83.376C111.998 83.376 113.227 82.1815 113.268 80.6814C113.369 77.0378 113.52 71.3952 113.475 71.4418C113.429 71.4897 113.801 70.1836 113.973 69.5876C114.028 69.3954 114.056 69.197 114.056 68.997V68.5725C114.056 68.4627 114.026 68.355 113.969 68.261C113.74 67.8829 113.172 67.8592 112.85 68.1618C112.287 68.6897 111.368 69.3075 110.176 69.2534C110.063 69.2482 109.955 69.2366 109.852 69.2196C109.418 69.1474 107.695 69.7513 107.66 70.1897L107.415 77.3807L107.728 80.4263L107.726 80.5729Z" fill="#02513E"/>
<path opacity="0.6" d="M107.726 80.5729C107.709 82.1158 108.955 83.376 110.497 83.376C111.998 83.376 113.227 82.1815 113.268 80.6814C113.369 77.0378 113.52 71.3952 113.475 71.4418C113.429 71.4897 113.801 70.1836 113.973 69.5876C114.028 69.3954 114.056 69.197 114.056 68.997V68.5725C114.056 68.4627 114.026 68.355 113.969 68.261C113.74 67.8829 113.172 67.8592 112.85 68.1618C112.287 68.6897 111.368 69.3075 110.176 69.2534C110.063 69.2482 109.955 69.2366 109.852 69.2196C109.418 69.1474 107.695 69.7513 107.66 70.1897L107.415 77.3807L107.728 80.4263L107.726 80.5729Z" fill="white"/>
<path d="M105.613 81.6895C105.609 82.588 106.298 83.376 107.197 83.376C107.937 83.376 108.567 82.8361 108.648 82.1006C108.947 79.3833 109.071 75.8512 109.12 73.886C109.145 72.8995 109.013 71.9188 108.802 70.9549C108.607 70.068 108.446 69.174 108.317 68.2749C108.137 66.6477 110.461 66.8649 112.491 67.1328C113.563 67.2742 113.063 68.773 112.351 70.1561C111.521 71.7714 110.87 73.5017 110.859 75.318C110.849 76.851 110.868 78.8061 110.979 80.6213C111.075 82.2112 112.427 83.376 114.02 83.376C116.246 83.376 117.781 81.1749 117.271 79.0082C117.099 78.2809 116.96 77.5571 116.89 76.9097C116.577 74.1856 118.453 70.2122 118.185 68.2749C117.965 66.6834 113.588 66.6657 112.033 66.7101C111.669 66.7205 111.309 66.731 110.945 66.7291C109.796 66.7232 107.169 66.7137 106.459 66.7464C105.387 66.7944 104.959 69.6172 104.451 71.8478C103.944 74.0784 104.877 76.2865 105.388 79.0924C105.541 79.9506 105.616 80.8199 105.613 81.6895Z" fill="#263238"/>
<path d="M107.793 67.3863C108.319 66.7815 109.196 66.7239 109.997 66.7239C110.578 66.7239 111.069 66.7239 111.322 66.7239C111.443 66.7239 111.564 66.7201 111.685 66.7146C111.841 66.7076 112.089 66.6984 112.4 66.6934C113.047 66.6831 113.77 66.8543 113.988 67.4633C114.102 67.7806 114.141 68.1955 114.026 68.732C113.977 68.9586 113.805 69.1356 113.589 69.2189C113.248 69.3501 113.049 69.7076 113.116 70.0669C113.151 70.2558 113.114 70.4513 113.004 70.6087C112.674 71.0793 111.897 72.1043 111.041 72.6285C110.985 72.6631 110.914 72.5984 110.914 72.5321C110.914 72.5141 110.918 72.5216 110.929 72.5069C111.174 72.1541 114.451 67.3823 112.493 67.1244C110.46 66.8565 108.139 66.6393 108.32 68.2665C108.518 69.655 108.795 71.0312 109.151 72.3881C109.151 72.3908 109.152 72.3896 109.152 72.3924C109.152 72.4201 109.119 72.4383 109.099 72.4192C108.61 71.9524 108.177 71.194 107.846 70.2847C107.775 70.089 107.78 69.8747 107.851 69.6789L107.945 69.4188C108.047 69.1354 107.927 68.8197 107.663 68.6752C107.432 68.549 107.3 68.2855 107.397 68.0407C107.49 67.8025 107.624 67.5811 107.793 67.3863Z" fill="#02513E"/>
<path d="M108.732 68.261C108.667 68.1112 108.641 67.9475 108.655 67.7849C108.684 67.4701 108.987 67.2893 109.264 67.1371C110.094 66.6809 110.175 65.9498 110.016 65.1953C109.938 64.826 110.018 64.4341 110.282 64.1645C110.951 63.4819 112.201 64.0374 112.274 64.9903C112.351 65.977 112.537 66.9283 112.915 67.4759C112.961 67.5424 112.99 67.6199 112.99 67.7007C112.99 67.7787 112.965 67.8549 112.915 67.9147C112.544 68.3574 112.064 68.6966 111.521 68.8983C110.941 69.1139 110.312 69.1637 109.705 69.0421C109.49 69.0057 109.287 68.9148 109.117 68.7781C108.947 68.6414 108.814 68.4634 108.732 68.261Z" fill="#7F3E3B"/>
<path opacity="0.1" d="M109.914 64.7983C109.878 64.6782 109.907 64.5469 109.995 64.4573L111.653 62.7656C111.748 62.669 111.89 62.6365 112.018 62.6827C112.161 62.7348 112.253 62.8751 112.247 63.0279C112.243 63.1377 112.239 63.2513 112.237 63.3677C112.235 63.4869 112.209 63.6054 112.148 63.7079C111.885 64.1517 111.358 64.6951 110.329 65.0324C110.151 65.0905 109.968 64.9771 109.914 64.7983Z" fill="black"/>
<path d="M113.582 59.8742C112.987 62.15 112.784 63.1257 111.388 64.0789C109.29 65.5142 106.626 64.2875 106.527 61.8793C106.439 59.7107 107.424 56.3549 109.86 55.8811C110.396 55.7743 110.951 55.8064 111.472 55.9742C111.992 56.1421 112.461 56.4402 112.834 56.8402C113.207 57.2403 113.472 57.729 113.603 58.26C113.733 58.791 113.727 59.3467 113.582 59.8742Z" fill="#7F3E3B"/>
<path d="M107.93 61.6175C107.978 61.3776 107.595 61.2033 107.421 61.375C107.333 61.4618 107.326 61.607 107.432 61.6707C107.469 61.6931 107.508 61.7126 107.549 61.7288C107.606 61.7517 107.665 61.768 107.726 61.7776C107.825 61.7933 107.911 61.7167 107.93 61.6175Z" fill="#630F0F"/>
<path d="M110.588 59.6233C110.604 59.6226 110.619 59.6177 110.633 59.6092C110.643 59.6031 110.653 59.5949 110.66 59.5852C110.667 59.5754 110.673 59.5643 110.675 59.5524C110.678 59.5405 110.679 59.5282 110.677 59.5161C110.675 59.5041 110.67 59.4926 110.664 59.4823C110.577 59.3299 110.455 59.2008 110.308 59.106C110.16 59.0112 109.992 58.9535 109.818 58.938C109.806 58.9377 109.793 58.9397 109.782 58.944C109.77 58.9484 109.76 58.9549 109.751 58.9633C109.742 58.9717 109.735 58.9817 109.73 58.9929C109.725 59.004 109.722 59.0161 109.722 59.0283C109.721 59.0404 109.723 59.0525 109.727 59.0639C109.731 59.0753 109.737 59.0858 109.745 59.0947C109.753 59.1037 109.763 59.1109 109.774 59.116C109.785 59.121 109.797 59.1238 109.809 59.1242C109.953 59.1401 110.09 59.1898 110.211 59.2692C110.332 59.3486 110.432 59.4554 110.503 59.581C110.512 59.5948 110.525 59.6059 110.54 59.6133C110.555 59.6207 110.571 59.6242 110.588 59.6233Z" fill="#263238"/>
<path d="M106.814 58.9446C106.814 58.9413 106.818 58.9389 106.821 58.9395C106.832 58.9419 106.844 58.9417 106.856 58.939C106.858 58.9384 106.861 58.9373 106.863 58.9359C106.986 58.8636 107.124 58.8211 107.266 58.8119C107.41 58.8026 107.554 58.8274 107.686 58.8844C107.708 58.8955 107.733 58.8976 107.757 58.8902C107.781 58.8829 107.801 58.8666 107.813 58.8449C107.818 58.8339 107.822 58.8217 107.823 58.8093C107.824 58.7969 107.822 58.7843 107.818 58.7725C107.814 58.7607 107.808 58.7497 107.8 58.7404C107.792 58.731 107.782 58.7234 107.77 58.718C107.611 58.6469 107.436 58.615 107.262 58.6248C107.087 58.6346 106.917 58.6859 106.766 58.7744C106.745 58.7864 106.728 58.8063 106.721 58.8299C106.714 58.8536 106.716 58.8792 106.727 58.9013C106.735 58.9168 106.748 58.9295 106.764 58.938C106.778 58.9457 106.794 58.9497 106.81 58.9494C106.812 58.9494 106.814 58.9472 106.814 58.9446Z" fill="#263238"/>
<path d="M108.851 62.4123C108.742 62.4127 108.633 62.4033 108.526 62.3841C108.519 62.3831 108.512 62.3806 108.505 62.3767C108.499 62.3729 108.493 62.3678 108.489 62.3618C108.484 62.3557 108.481 62.3489 108.479 62.3416C108.477 62.3343 108.477 62.3267 108.478 62.3193C108.481 62.3046 108.489 62.2914 108.501 62.2825C108.513 62.2737 108.528 62.2696 108.543 62.2713C108.781 62.3181 109.027 62.3085 109.26 62.2434C109.494 62.1783 109.709 62.0594 109.888 61.8963C109.899 61.8886 109.913 61.8849 109.926 61.8859C109.94 61.8869 109.952 61.8925 109.962 61.9017C109.972 61.9109 109.979 61.9232 109.981 61.9366C109.984 61.963 109.963 61.9846 109.943 62.0023C109.643 62.2695 109.253 62.416 108.851 62.4123Z" fill="#263238"/>
<path d="M113.584 61.0926C113.139 61.4112 112.503 61.3451 112.296 60.839C112.26 60.7522 112.229 60.6635 112.202 60.5732C112.097 60.2214 112.06 59.8531 112.093 59.4882C112.101 59.3953 112.072 59.3027 112.012 59.2317C111.889 59.0877 111.674 58.8125 111.502 58.4686C111.417 58.2992 111.103 58.2096 111.129 58.3974C111.146 58.5236 111.079 58.7539 110.953 58.7359C110.513 58.6732 109.673 58.5035 109.222 58.087C109.15 58.0205 108.916 58 108.956 58.0899C108.985 58.1575 108.988 58.317 108.914 58.3155C108.391 58.3045 107.061 58.1908 107.294 57.3081C107.3 57.2833 107.307 57.2588 107.315 57.2346C107.836 55.6349 109.036 55.1102 110.705 55.3213C111.845 55.4654 113.618 56.9588 114.123 57.9903C114.464 58.6862 114.578 59.6461 113.842 60.8225C113.775 60.9285 113.685 61.0198 113.584 61.0926Z" fill="#263238"/>
<path d="M113.755 61.803C113.652 62.0043 113.509 62.1829 113.336 62.3282C113.162 62.4735 112.961 62.5826 112.745 62.649C112.181 62.8238 111.868 62.3106 112.018 61.7607C112.153 61.2643 112.615 60.5763 113.202 60.6327C113.405 60.6626 113.589 60.7721 113.711 60.9371C113.834 61.1021 113.886 61.3091 113.856 61.5125C113.843 61.6153 113.808 61.7142 113.755 61.803Z" fill="#7F3E3B"/>
<path d="M109.871 60.1362C109.849 60.3308 109.727 60.4803 109.589 60.4662C109.451 60.4521 109.375 60.2857 109.397 60.0855C109.42 59.8852 109.538 59.7442 109.665 59.7555C109.792 59.7668 109.891 59.9388 109.871 60.1362Z" fill="#2E353A"/>
<path d="M107.66 59.9051C107.641 60.0997 107.519 60.2463 107.392 60.235C107.266 60.2237 107.175 60.0517 107.195 59.8543C107.215 59.6569 107.336 59.5103 107.477 59.5244C107.618 59.5385 107.66 59.7049 107.66 59.9051Z" fill="#2E353A"/>
<path d="M107.33 59.5999C107.415 59.6103 107.408 59.5023 107.329 59.4702C107.233 59.4309 107.16 59.5275 107.252 59.575C107.277 59.5876 107.303 59.5965 107.33 59.5999Z" fill="#2E353A"/>
<path d="M109.552 59.8386C109.636 59.8505 109.631 59.7443 109.552 59.7128C109.457 59.6748 109.386 59.77 109.479 59.8154C109.502 59.8267 109.526 59.835 109.552 59.8386Z" fill="#2E353A"/>
<path d="M112.603 63.7064C112.751 63.7067 112.896 63.664 113.02 63.5835C113.144 63.503 113.241 63.3882 113.301 63.2531C113.361 63.118 113.38 62.9684 113.356 62.8225C113.336 62.6987 113.286 62.5821 113.21 62.483C113.188 62.4537 113.145 62.4519 113.118 62.4768C113.091 62.5017 113.089 62.5439 113.111 62.5736C113.19 62.6806 113.233 62.8108 113.232 62.945C113.233 63.0696 113.196 63.1916 113.127 63.2954C113.058 63.3993 112.96 63.4803 112.845 63.5283C112.73 63.5762 112.604 63.5889 112.481 63.5647C112.359 63.5406 112.247 63.4806 112.159 63.3925C112.071 63.3044 112.011 63.1921 111.986 63.0698C111.962 62.9476 111.975 62.8209 112.023 62.7059C112.071 62.5908 112.152 62.4927 112.256 62.4238C112.36 62.3549 112.482 62.3184 112.606 62.319C112.672 62.3184 112.738 62.3284 112.8 62.3485C112.835 62.3599 112.875 62.345 112.89 62.3112C112.905 62.2779 112.89 62.2387 112.856 62.2264C112.776 62.1978 112.691 62.1832 112.606 62.1836C112.506 62.1836 112.407 62.2033 112.315 62.2416C112.222 62.2798 112.138 62.3359 112.068 62.4066C111.997 62.4773 111.941 62.5612 111.903 62.6536C111.864 62.746 111.845 62.845 111.845 62.945C111.845 63.045 111.864 63.144 111.903 63.2364C111.941 63.3288 111.997 63.4127 112.068 63.4834C112.138 63.5541 112.222 63.6102 112.315 63.6484C112.407 63.6867 112.506 63.7064 112.606 63.7064H112.603Z" fill="#02513E"/>
<g opacity="0.6">
<path d="M112.603 63.7064C112.751 63.7067 112.896 63.664 113.02 63.5835C113.144 63.503 113.241 63.3882 113.301 63.2531C113.361 63.118 113.38 62.9684 113.356 62.8225C113.336 62.6987 113.286 62.5821 113.21 62.483C113.188 62.4537 113.145 62.4519 113.118 62.4768C113.091 62.5017 113.089 62.5439 113.111 62.5736C113.19 62.6806 113.233 62.8108 113.232 62.945C113.233 63.0696 113.196 63.1916 113.127 63.2954C113.058 63.3993 112.96 63.4803 112.845 63.5283C112.73 63.5762 112.604 63.5889 112.481 63.5647C112.359 63.5406 112.247 63.4806 112.159 63.3925C112.071 63.3044 112.011 63.1921 111.986 63.0698C111.962 62.9476 111.975 62.8209 112.023 62.7059C112.071 62.5908 112.152 62.4927 112.256 62.4238C112.36 62.3549 112.482 62.3184 112.606 62.319C112.672 62.3184 112.738 62.3284 112.8 62.3485C112.835 62.3599 112.875 62.345 112.89 62.3112C112.905 62.2779 112.89 62.2387 112.856 62.2264C112.776 62.1978 112.691 62.1832 112.606 62.1836C112.506 62.1836 112.407 62.2033 112.315 62.2416C112.222 62.2798 112.138 62.3359 112.068 62.4066C111.997 62.4773 111.941 62.5612 111.903 62.6536C111.864 62.746 111.845 62.845 111.845 62.945C111.845 63.045 111.864 63.144 111.903 63.2364C111.941 63.3288 111.997 63.4127 112.068 63.4834C112.138 63.5541 112.222 63.6102 112.315 63.6484C112.407 63.6867 112.506 63.7064 112.606 63.7064H112.603Z" fill="white"/>
</g>
<path d="M111.965 76.0434C112.025 75.6167 111.683 75.2407 111.252 75.2595L110.69 75.284C110.27 75.3023 109.873 75.0916 109.653 74.7335L109.316 74.1857C109.271 74.113 109.211 74.0514 109.139 74.0055C109.067 73.9596 108.986 73.9306 108.901 73.9206L108.766 73.9037C108.654 73.8891 108.541 73.9082 108.441 73.9585C108.34 74.0087 108.257 74.0878 108.202 74.1857L107.689 75.0852C107.636 75.1764 107.61 75.2804 107.614 75.3856C107.617 75.4907 107.65 75.5928 107.708 75.6803L107.948 76.044C108.005 76.1324 108.083 76.206 108.174 76.2589C108.265 76.3119 108.367 76.3426 108.473 76.3486L109.53 76.4078L111.19 76.6318C111.566 76.6826 111.913 76.4196 111.965 76.0434Z" fill="#7F3E3B"/>
<path d="M115.759 67.6803L116.328 71.7595C116.571 73.5036 115.217 75.0602 113.455 75.0602H111.672C111.17 75.0602 110.753 75.445 110.712 75.9449C110.671 76.4348 111.003 76.8752 111.488 76.9583C113.602 77.3209 118.967 78.1225 119.281 76.9807C119.673 75.5566 119.817 71.0248 119.225 69.2059C118.923 68.2894 118.037 67.2319 116.334 67.0768C116.254 67.0697 116.174 67.0807 116.099 67.1089C116.024 67.1372 115.956 67.182 115.901 67.2399C115.846 67.2979 115.804 67.3676 115.78 67.4439C115.755 67.5201 115.748 67.6009 115.759 67.6803Z" fill="#02513E"/>
<path d="M89.5243 25.098C85.7952 25.098 82.6847 27.9484 82.3598 31.6633L76.8642 94.5036C76.5555 98.033 79.3374 101.069 82.8804 101.069C84.386 101.041 85.8295 100.463 86.9378 99.4439C88.0462 98.4244 88.7426 97.0341 88.8954 95.536L94.5721 30.6337C94.6504 29.929 94.5775 29.2157 94.3583 28.5415C94.1391 27.8672 93.7786 27.2474 93.3009 26.7235C92.8232 26.1996 92.2392 25.7837 91.588 25.5034C90.9367 25.223 90.2332 25.0849 89.5243 25.098Z" fill="#263238"/>
<path d="M93.6084 32.7119C93.6226 32.5703 93.6875 32.4387 93.7912 32.3412C93.8948 32.2438 94.0303 32.1871 94.1724 32.1817C94.2404 32.1805 94.3078 32.1938 94.3702 32.2207C94.4326 32.2475 94.4886 32.2873 94.5345 32.3374C94.5803 32.3876 94.615 32.4469 94.6362 32.5114C94.6574 32.576 94.6647 32.6443 94.6575 32.7119L94.2119 37.7879C94.205 37.9357 94.143 38.0756 94.038 38.18C93.9331 38.2844 93.7929 38.3457 93.6451 38.3519C93.5774 38.3527 93.5103 38.3391 93.4482 38.3121C93.3861 38.285 93.3305 38.2452 93.2849 38.1951C93.2394 38.145 93.2049 38.0858 93.1839 38.0215C93.1628 37.9571 93.1557 37.889 93.1629 37.8217L93.6084 32.7119Z" fill="#02513E"/>
<path opacity="0.3" d="M93.6084 32.7119C93.6226 32.5703 93.6875 32.4387 93.7912 32.3412C93.8948 32.2438 94.0303 32.1871 94.1724 32.1817C94.2404 32.1805 94.3078 32.1938 94.3702 32.2207C94.4326 32.2475 94.4886 32.2873 94.5345 32.3374C94.5803 32.3876 94.615 32.4469 94.6362 32.5114C94.6574 32.576 94.6647 32.6443 94.6575 32.7119L94.2119 37.7879C94.205 37.9357 94.143 38.0756 94.038 38.18C93.9331 38.2844 93.7929 38.3457 93.6451 38.3519C93.5774 38.3527 93.5103 38.3391 93.4482 38.3121C93.3861 38.285 93.3305 38.2452 93.2849 38.1951C93.2394 38.145 93.2049 38.0858 93.1839 38.0215C93.1628 37.9571 93.1557 37.889 93.1629 37.8217L93.6084 32.7119Z" fill="white"/>
<path d="M81.5303 101.069H54.3765C53.668 101.081 52.9649 100.943 52.3141 100.663C51.6633 100.382 51.0797 99.9667 50.6021 99.4432C50.1245 98.9197 49.7639 98.3005 49.5444 97.6268C49.3248 96.9531 49.2513 96.2403 49.3287 95.5359L55.0082 30.6336C55.1592 29.1345 55.8549 27.7429 56.9636 26.7226C58.0723 25.7023 59.5168 25.1242 61.0232 25.098H88.177C88.8852 25.0854 89.588 25.2237 90.2386 25.5038C90.8892 25.784 91.4727 26.1994 91.9502 26.7226C92.4278 27.2458 92.7884 27.8646 93.0082 28.538C93.228 29.2114 93.3018 29.9238 93.2248 30.628L87.5453 95.5359C87.3925 97.0341 86.6961 98.4243 85.5877 99.4438C84.4794 100.463 83.0359 101.041 81.5303 101.069Z" fill="#02513E"/>
<path d="M88.0667 26.3727H81.0167C80.7871 26.3772 80.5656 26.4585 80.3877 26.6037C80.2098 26.7489 80.0857 26.9495 80.0353 27.1735L79.9874 27.3963C79.8649 27.9439 79.562 28.4345 79.1273 28.7894C78.6927 29.1443 78.1514 29.3429 77.5904 29.3534H70.8731C70.3417 29.3648 69.8275 29.1653 69.4428 28.7985C69.0581 28.4318 68.8342 27.9276 68.8202 27.3963V27.1735C68.8172 27.0654 68.793 26.9589 68.7489 26.8601C68.7048 26.7613 68.6417 26.6722 68.5631 26.5978C68.4845 26.5234 68.3921 26.4653 68.291 26.4266C68.19 26.388 68.0823 26.3697 67.9742 26.3727H60.9242C59.7646 26.3942 58.6531 26.8395 57.7995 27.6245C56.9459 28.4096 56.4092 29.48 56.2909 30.6337L50.5973 95.536C50.5375 96.0787 50.5941 96.628 50.7632 97.1471C50.9323 97.6663 51.21 98.1435 51.578 98.5469C51.9459 98.9503 52.3956 99.2707 52.897 99.4867C53.3985 99.7028 53.9402 99.8095 54.4861 99.7998H81.6427C82.8027 99.7782 83.9145 99.3325 84.7682 98.5469C85.6219 97.7613 86.1583 96.6902 86.276 95.536L91.9554 30.6337C92.0148 30.0912 91.9579 29.5423 91.7886 29.0234C91.6193 28.5046 91.3415 28.0278 90.9736 27.6247C90.6057 27.2216 90.1562 26.9014 89.655 26.6856C89.1538 26.4697 88.6123 26.363 88.0667 26.3727Z" fill="#02513E"/>
<path opacity="0.7" d="M88.0667 26.3727H81.0167C80.7871 26.3772 80.5656 26.4585 80.3877 26.6037C80.2098 26.7489 80.0857 26.9495 80.0353 27.1735L79.9874 27.3963C79.8649 27.9439 79.562 28.4345 79.1273 28.7894C78.6927 29.1443 78.1514 29.3429 77.5904 29.3534H70.8731C70.3417 29.3648 69.8275 29.1653 69.4428 28.7985C69.0581 28.4318 68.8342 27.9276 68.8202 27.3963V27.1735C68.8172 27.0654 68.793 26.9589 68.7489 26.8601C68.7048 26.7613 68.6417 26.6722 68.5631 26.5978C68.4845 26.5234 68.3921 26.4653 68.291 26.4266C68.19 26.388 68.0823 26.3697 67.9742 26.3727H60.9242C59.7646 26.3942 58.6531 26.8395 57.7995 27.6245C56.9459 28.4096 56.4092 29.48 56.2909 30.6337L50.5973 95.536C50.5375 96.0787 50.5941 96.628 50.7632 97.1471C50.9323 97.6663 51.21 98.1435 51.578 98.5469C51.9459 98.9503 52.3956 99.2707 52.897 99.4867C53.3985 99.7028 53.9402 99.8095 54.4861 99.7998H81.6427C82.8027 99.7782 83.9145 99.3325 84.7682 98.5469C85.6219 97.7613 86.1583 96.6902 86.276 95.536L91.9554 30.6337C92.0148 30.0912 91.9579 29.5423 91.7886 29.0234C91.6193 28.5046 91.3415 28.0278 90.9736 27.6247C90.6057 27.2216 90.1562 26.9014 89.655 26.6856C89.1538 26.4697 88.6123 26.363 88.0667 26.3727Z" fill="white"/>
<g opacity="0.2">
<path d="M72.5987 27.462C72.8237 27.2466 72.8463 26.9051 72.6492 26.6992C72.4521 26.4933 72.11 26.501 71.885 26.7164C71.6599 26.9318 71.6373 27.2733 71.8344 27.4792C72.0315 27.6851 72.3737 27.6774 72.5987 27.462Z" fill="black"/>
<path d="M76.654 26.5534H74.8041C74.6574 26.556 74.5167 26.6123 74.4087 26.7115C74.3006 26.8107 74.2326 26.9461 74.2175 27.092C74.2103 27.1607 74.2178 27.2301 74.2394 27.2957C74.261 27.3612 74.2964 27.4215 74.343 27.4724C74.3896 27.5233 74.4466 27.5637 74.51 27.591C74.5734 27.6183 74.642 27.6318 74.711 27.6306H76.5609C76.7074 27.6273 76.8477 27.5709 76.9556 27.4718C77.0636 27.3727 77.1318 27.2377 77.1475 27.092C77.1551 27.0232 77.148 26.9536 77.1265 26.8878C77.1051 26.822 77.0698 26.7616 77.0231 26.7106C76.9763 26.6596 76.9192 26.6191 76.8555 26.592C76.7919 26.5649 76.7231 26.5517 76.654 26.5534Z" fill="black"/>
</g>
<path d="M59.3707 29.0348C59.3568 29.2007 59.4875 29.3449 59.654 29.3449C59.8014 29.3449 59.9245 29.2308 59.9375 29.084C59.9523 28.9176 59.8213 28.7725 59.6543 28.7725C59.5064 28.7725 59.383 28.8874 59.3707 29.0348Z" fill="#02513E"/>
<path d="M60.5381 28.7723L60.5147 29.036C60.5 29.2019 60.6307 29.3447 60.7973 29.3447C60.9443 29.3447 61.0669 29.2325 61.0799 29.0861L61.1077 28.7723L61.1309 28.5123C61.1457 28.3459 61.0146 28.2026 60.8475 28.2026C60.6997 28.2026 60.5765 28.3159 60.5641 28.4632L60.5381 28.7723Z" fill="#02513E"/>
<path d="M62.0387 27.6304C61.8914 27.6304 61.7684 27.7429 61.7554 27.8897L61.7276 28.2028L61.6768 28.7725L61.6547 29.0367C61.6408 29.2026 61.7717 29.3449 61.9382 29.3449C62.0856 29.3449 62.2085 29.2324 62.2215 29.0856L62.2493 28.7725L62.3001 28.2028L62.3222 27.9386C62.3361 27.7727 62.2052 27.6304 62.0387 27.6304Z" fill="#02513E"/>
<path d="M86.5422 27.6706C86.4236 27.6702 86.3244 27.7608 86.314 27.879L86.3081 27.9469C86.3011 28.0263 86.2346 28.0873 86.1548 28.0873C86.075 28.0873 86.0085 28.1483 86.0016 28.2278L85.9526 28.7929C85.9461 28.8684 86.0056 28.9333 86.0814 28.9333C86.1572 28.9333 86.2168 28.9983 86.2102 29.0738L86.2041 29.1434C86.1942 29.2563 86.2833 29.3535 86.3967 29.3535H87.9296C88.3646 29.3535 88.7275 29.0209 88.7654 28.5876C88.8083 28.0983 88.4235 27.677 87.9324 27.6753L86.5422 27.6706ZM87.3726 28.5383C87.3538 28.7562 87.1713 28.9248 86.9527 28.9248C86.7056 28.9248 86.5116 28.7115 86.533 28.4653C86.5519 28.2475 86.7343 28.0788 86.9529 28.0788C87.2 28.0788 87.394 28.2922 87.3726 28.5383Z" fill="#02513E"/>
<g opacity="0.4">
<path d="M72.3752 29.3535C71.5008 29.3535 70.7351 29.9404 70.508 30.7849L52.7963 96.6463C52.4064 98.0962 52.9849 99.8114 54.4862 99.7999C55.3513 99.7999 56.1088 99.2193 56.3334 98.3839L74.2424 31.7892C74.5727 30.5607 73.6473 29.3535 72.3752 29.3535Z" fill="white"/>
<path d="M88.0666 26.3728H81.0166C80.787 26.3773 80.5656 26.4586 80.3877 26.6038C80.2097 26.749 80.0857 26.9497 80.0352 27.1737L79.9873 27.3965C79.8681 27.9295 79.578 28.409 79.161 28.7618C78.4213 29.3877 77.5075 29.9835 77.2557 30.9191L61.087 91.0093C59.8941 95.4427 63.234 99.8 67.825 99.8C70.9808 99.8 73.7438 97.6819 74.5633 94.6343L91.2767 32.4835C91.7262 30.8121 92.1237 28.8747 90.9502 27.6025C90.8807 27.5272 90.808 27.4544 90.7322 27.3845C90.0074 26.716 89.0524 26.3535 88.0666 26.3728Z" fill="white"/>
</g>
<path d="M59.6945 45.2891L58.8485 45.1058C58.7939 45.0951 58.7424 45.0726 58.6975 45.0398C58.6526 45.0071 58.6154 44.9649 58.5885 44.9163C58.5616 44.8676 58.5457 44.8137 58.5419 44.7582C58.5381 44.7028 58.5465 44.6472 58.5665 44.5953L59.5313 42.0761C59.6562 41.75 59.9993 41.5627 60.3412 41.6341C60.7489 41.7192 60.9966 42.1348 60.8775 42.534L60.1372 45.0155C60.1119 45.1088 60.0521 45.189 59.9699 45.2397C59.8876 45.2905 59.7892 45.3082 59.6945 45.2891Z" fill="#02513E"/>
<path d="M62.9712 41.3408C62.9156 41.3288 62.8629 41.3059 62.8161 41.2734C62.7693 41.2409 62.7295 41.1995 62.6988 41.1515C62.6681 41.1035 62.6473 41.05 62.6374 40.9939C62.6275 40.9378 62.6288 40.8803 62.6413 40.8248L62.7541 40.2946C62.7661 40.2387 62.7891 40.1856 62.8218 40.1387C62.8545 40.0917 62.8962 40.0517 62.9444 40.021C62.9927 39.9903 63.0467 39.9695 63.1031 39.9598C63.1595 39.9501 63.2172 39.9518 63.273 39.9647C63.3855 39.989 63.4838 40.057 63.5462 40.1538C63.6086 40.2506 63.63 40.3682 63.6057 40.4807L63.4901 41.0081C63.4651 41.1208 63.3965 41.2191 63.2993 41.2815C63.2021 41.3438 63.0841 41.3652 62.9712 41.3408Z" fill="#02513E"/>
<path d="M61.7746 40.3652C61.9683 39.4814 61.3555 38.6229 60.4636 38.4707C59.5024 38.3068 58.3744 38.0665 57.7968 37.7712C55.1517 36.412 52.6221 33.169 52.0863 33.0533C51.2121 32.8616 50.0221 34.9315 49.4243 37.6753C48.8264 40.4192 49.052 42.7936 49.9262 42.9826C50.4648 43.101 54.1083 41.2003 57.0806 41.0621C57.7283 41.0332 58.8504 41.2852 59.7902 41.5377C60.6643 41.7725 61.5807 41.2492 61.7746 40.3652Z" fill="#02513E"/>
<path opacity="0.3" d="M61.7746 40.3652C61.9683 39.4814 61.3555 38.6229 60.4636 38.4707C59.5024 38.3068 58.3744 38.0665 57.7968 37.7712C55.1517 36.412 52.6221 33.169 52.0863 33.0533C51.2121 32.8616 50.0221 34.9315 49.4243 37.6753C48.8264 40.4192 49.052 42.7936 49.9262 42.9826C50.4648 43.101 54.1083 41.2003 57.0806 41.0621C57.7283 41.0332 58.8504 41.2852 59.7902 41.5377C60.6643 41.7725 61.5807 41.2492 61.7746 40.3652Z" fill="white"/>
<path d="M52.588 38.3521C51.993 41.0932 50.8002 43.1631 49.926 42.9713C49.0518 42.7796 48.829 40.4051 49.424 37.6641C50.019 34.923 51.2119 32.8503 52.0861 33.0421C52.9603 33.2338 53.1859 35.6196 52.588 38.3521Z" fill="#02513E"/>
<path opacity="0.4" d="M52.588 38.3521C51.993 41.0932 50.8002 43.1631 49.926 42.9713C49.0518 42.7796 48.829 40.4051 49.424 37.6641C50.019 34.923 51.2119 32.8503 52.0861 33.0421C52.9603 33.2338 53.1859 35.6196 52.588 38.3521Z" fill="black"/>
<path d="M61.615 38.3519L60.1232 38.0276C60.0272 38.0064 59.9278 38.0052 59.8313 38.0241C59.7348 38.043 59.6432 38.0815 59.5623 38.1373C59.4813 38.1932 59.4127 38.265 59.3608 38.3485C59.3088 38.432 59.2746 38.5253 59.2603 38.6226C59.2067 38.9976 59.139 39.384 59.0544 39.7788C58.9698 40.1736 58.8683 40.5543 58.7724 40.9068C58.745 41.0015 58.7374 41.1007 58.7501 41.1985C58.7627 41.2962 58.7953 41.3903 58.8458 41.4749C58.8963 41.5595 58.9636 41.6329 59.0437 41.6904C59.1237 41.7479 59.2147 41.7883 59.311 41.8092L61.0792 42.1927C62.1395 42.4239 62.9037 41.6766 63.118 40.6107C63.2139 40.1123 63.11 39.5961 62.8289 39.1736C62.5477 38.751 62.1117 38.4559 61.615 38.3519Z" fill="#263238"/>
<path d="M51.054 37.802L50.9609 38.2335C50.9338 38.3541 50.9504 38.4804 51.0078 38.5899C51.0651 38.6993 51.1594 38.7849 51.274 38.8313L51.4816 38.9179C51.9476 39.112 52.4823 38.8568 52.5881 38.3632C52.6941 37.8684 52.3167 37.412 51.8109 37.395L51.587 37.3875C51.4637 37.3833 51.3428 37.4226 51.2454 37.4983C51.1481 37.574 51.0803 37.6815 51.054 37.802Z" fill="#263238"/>
<path opacity="0.8" d="M51.054 37.802L50.9609 38.2335C50.9338 38.3541 50.9504 38.4804 51.0078 38.5899C51.0651 38.6993 51.1594 38.7849 51.274 38.8313L51.4816 38.9179C51.9476 39.112 52.4823 38.8568 52.5881 38.3632C52.6941 37.8684 52.3167 37.412 51.8109 37.395L51.587 37.3875C51.4637 37.3833 51.3428 37.4226 51.2454 37.4983C51.1481 37.574 51.0803 37.6815 51.054 37.802Z" fill="white"/>
<path opacity="0.2" d="M51.8723 38.2051C51.8369 38.3736 51.7995 38.5321 51.7601 38.6877C51.7147 38.8669 51.8056 39.0534 51.9764 39.1242C52.1793 39.2084 52.4108 39.0971 52.4655 38.8843C52.5094 38.7135 52.5508 38.5395 52.5886 38.363C52.6264 38.1866 52.6615 38.0103 52.6936 37.8359C52.7334 37.6189 52.5691 37.4201 52.3486 37.4125C52.1635 37.4061 52.003 37.5386 51.9695 37.7208C51.9404 37.8786 51.908 38.04 51.8723 38.2051Z" fill="black"/>
<path d="M77.8635 38.9414C77.8949 38.6548 78.1932 38.4773 78.4811 38.4925C78.5778 38.4976 78.675 38.495 78.7719 38.4845C79.0587 38.4536 79.3341 38.3551 79.5753 38.197C80.4411 37.633 82.0654 38.3436 81.5747 40.6532C81.3513 41.7015 81.0639 42.6717 80.7829 43.5542C80.1468 45.5514 76.5134 47.5511 76.8597 45.4839C77.2827 42.9459 80.1506 40.092 79.4597 39.5224C79.2677 39.3632 79.0058 39.4042 78.3012 39.4227C78.0394 39.4296 77.8349 39.2018 77.8635 38.9414Z" fill="#263238"/>
<path d="M77.8845 38.7543C77.8455 39.1104 78.1321 39.4161 78.4886 39.4517C78.5496 39.4577 78.6104 39.4649 78.6711 39.4732C79.0625 39.5264 79.4679 39.3246 79.5285 38.9343C79.5319 38.9121 79.5352 38.8898 79.5383 38.8675C79.6014 38.4084 79.1789 38.062 78.7259 38.1602C78.5806 38.1917 78.436 38.227 78.2925 38.266C78.0682 38.327 77.9099 38.5233 77.8845 38.7543Z" fill="#02513E"/>
<path d="M74.6874 35.4369C74.3792 35.4661 74.0602 35.4502 73.7925 35.2947C73.4145 35.0753 73.0182 34.6561 73.6824 34.0062C75.5388 32.192 79.0964 35.5934 79.2607 38.1838C79.3043 38.8714 79.1277 39.684 78.5801 40.6291C78.1165 41.4294 77.5925 42.2043 77.0184 42.9294C76.6585 43.384 76.2789 43.7012 76.1443 43.2502C75.9877 42.7256 76.4988 41.6673 76.9844 40.8296C77.4468 40.0321 77.7225 39.1294 77.6792 38.2086L77.6563 37.7223C77.6411 37.4 77.5513 37.0857 77.3939 36.804C77.2092 36.4735 76.9378 36.1996 76.6091 36.0117L76.1583 35.7542C75.7124 35.4994 75.1987 35.3886 74.6874 35.4369Z" fill="#263238"/>
<path d="M67.9344 48.9864C67.827 48.8105 67.6859 48.6576 67.5192 48.5364C67.3526 48.4151 67.1637 48.3279 66.9634 48.2797C66.763 48.2315 66.5551 48.2233 66.3516 48.2555C66.1517 48.2872 65.96 48.3572 65.7868 48.4616C65.7805 48.4654 65.7732 48.4675 65.7659 48.4675C65.7585 48.4675 65.7513 48.4695 65.745 48.4734C65.2543 48.7736 64.7332 49.1068 64.2177 49.415L62.6526 50.3541C62.4082 50.4975 62.1635 50.6397 61.9183 50.7804C61.2306 51.1753 60.3804 50.7093 60.4135 49.917C60.4332 49.2571 60.4812 48.5831 60.5319 47.9091C60.5827 47.2351 60.6504 46.5442 60.7068 45.8759V45.859C60.7211 45.6711 60.6672 45.4844 60.555 45.333C60.4429 45.1815 60.2799 45.0756 60.0961 45.0345C59.9122 44.9934 59.7196 45.0199 59.5537 45.1092C59.3877 45.1984 59.2595 45.3445 59.1924 45.5206C58.9415 46.2002 58.7441 46.8714 58.5467 47.5594C58.3493 48.2475 58.1998 48.9412 58.0673 49.6575C57.9226 50.4012 57.8433 51.1561 57.8304 51.9135C57.8192 52.3901 57.881 52.8656 58.0137 53.3235C58.1347 53.733 58.3694 54.0997 58.6905 54.381C58.934 54.5868 59.2246 54.7292 59.5365 54.7956C59.8084 54.8483 60.088 54.8483 60.3599 54.7956C60.4253 54.781 60.4895 54.7612 60.5517 54.7364L60.6447 54.6997C61.2454 54.4515 61.8432 54.2034 62.4242 53.9214C63.0051 53.6394 63.586 53.3574 64.1528 53.0613C64.7196 52.7652 65.2808 52.4465 65.8448 52.1166C66.4088 51.7866 66.9333 51.4567 67.4889 51.0732C67.8117 50.8449 68.0369 50.5035 68.1194 50.1168C68.202 49.7302 68.1359 49.3266 67.9344 48.9864Z" fill="#CE7A63"/>
<path d="M66.669 47.3307C68.243 46.7336 69.9912 47.9996 69.2677 49.5196C69.0576 49.961 68.7559 50.419 68.3765 50.9081C67.3357 52.25 65.28 52.3571 64.4818 50.8581C63.906 49.7765 64.3767 48.4778 65.4535 47.8932C65.8211 47.6936 66.2323 47.4964 66.669 47.3307Z" fill="#02513E"/>
<path opacity="0.2" d="M68.1658 51.1859C69.0243 50.1267 68.3749 48.2044 67.19 48.8788C67.0185 48.9764 66.8566 49.1159 66.7083 49.3047C66.3887 49.7242 66.0406 50.1204 65.6664 50.4905C65.174 50.9778 65.0277 51.7516 65.4823 52.2744C65.9528 52.8153 66.7793 52.7623 67.2612 52.2316C67.5939 51.8652 67.8966 51.5181 68.1658 51.1859Z" fill="black"/>
<path d="M60.0019 42.2998L60.6449 42.7256C60.7648 42.8037 60.8641 42.9096 60.9343 43.0343C61.0045 43.159 61.0436 43.2988 61.0481 43.4419L61.0989 44.7983C61.1073 45.0652 61.0524 45.3303 60.9387 45.572C60.825 45.8136 60.6557 46.0249 60.4446 46.1886C60.2822 46.3134 60.0587 46.332 59.8929 46.2115C59.168 45.685 58.6439 44.8453 58.4278 44.4597C58.3517 44.324 58.2764 44.1883 58.1925 44.0571L58.0589 43.848C58.0033 43.7661 57.9645 43.6741 57.9447 43.5771C57.925 43.4802 57.9247 43.3803 57.9438 43.2832C57.963 43.1862 58.0012 43.0939 58.0563 43.0117C58.1114 42.9295 58.1823 42.8591 58.2648 42.8046L59.06 42.28C59.2022 42.192 59.3667 42.1471 59.5339 42.1506C59.701 42.1541 59.8636 42.2059 60.0019 42.2998Z" fill="#CE7A63"/>
<path d="M65.0125 99.801C66.2604 99.8003 67.3748 98.9983 67.7113 97.7965C68.3944 95.3568 68.8861 92.8533 68.9611 90.5592C69.0457 87.9703 69.0438 85.3068 69.7908 82.8266C72.7554 72.9831 72.6863 67.7556 72.3188 65.3793C72.1504 64.2903 71.3122 63.523 70.277 63.1454C67.492 62.1296 64.5143 64.0704 64.3337 67.0294C64.0073 72.3771 63.5546 80.1087 63.3662 84.8003C63.2316 88.1802 62.7512 92.3552 62.1417 96.4416C61.8791 98.2027 63.2318 99.8019 65.0125 99.801Z" fill="#263238"/>
<path opacity="0.5" d="M70.8849 70.4937C70.8492 70.3595 70.7939 70.2314 70.7207 70.1134L70.3489 69.5135C69.9253 68.8303 68.9148 68.8821 68.5634 69.605C68.5095 69.7157 68.4761 69.8353 68.4652 69.9579C68.33 71.4829 68.2572 73.0114 68.2465 74.5395C68.2272 77.2952 71.2517 77.5393 71.7721 74.8331C71.8465 74.4463 71.8303 74.0475 71.7291 73.6668L70.8849 70.4937Z" fill="black"/>
<path d="M71.4049 96.9607C71.4805 98.543 72.7762 99.7997 74.3602 99.7997C75.8462 99.7997 77.1099 98.6901 77.2102 97.2075C77.3813 94.6777 77.3356 92.152 76.9071 89.9366C76.4842 87.7496 76.0432 85.5129 76.2784 83.2979C77.4048 72.6918 76.3097 67.4295 75.4778 65.128C75.1036 64.0927 74.1346 63.5012 73.0473 63.3291C70.118 62.8653 67.5662 65.3416 67.956 68.2815C68.6599 73.5921 69.6965 81.264 70.4107 85.8999C70.8989 89.0835 71.217 93.0296 71.4049 96.9607Z" fill="#263238"/>
<path d="M65.9463 50.4919C65.6274 51.8644 65.4012 53.2569 65.2695 54.6598C65.1666 55.527 65.0754 56.3897 64.9866 57.3532C64.7394 60.0366 66.6546 62.4246 69.3157 62.8495C72.3002 63.3261 75.0707 61.1477 76.0115 58.2755C76.6149 56.4335 77.5027 54.2261 78.8083 51.4027C78.97 51.0807 79.0577 50.7267 79.0649 50.3665C79.0721 50.0062 78.9987 49.6489 78.85 49.3207C78.7013 48.9926 78.4811 48.7018 78.2055 48.4697C77.93 48.2375 77.606 48.07 77.2573 47.9792C76.8597 47.8749 76.4367 47.7734 75.9996 47.6803C74.4708 47.3258 72.9187 47.0808 71.355 46.9471C70.8446 46.9133 70.3116 46.8935 69.8012 46.8823C67.9569 46.8343 66.2875 48.7012 65.9463 50.4919Z" fill="#02513E"/>
<path d="M74.0878 43.7635C74.8492 43.3289 75.7449 44.2994 75.5667 45.1579C75.3902 46.0079 73.9259 47.6425 73.0873 47.867C72.8019 47.9434 72.4916 48.0377 72.1556 48.1536C71.5364 48.367 70.7267 48.1056 70.7779 47.4526C70.7913 47.2819 70.8414 47.1581 70.8983 47.0702C70.9998 46.9135 71.1978 46.8766 71.3824 46.848C72.5956 46.6599 72.9708 45.8686 73.0562 44.9836C73.0943 44.5895 73.2897 44.2191 73.6336 44.0228L74.0878 43.7635Z" fill="#CE7A63"/>
<path d="M72.2595 48.0474C72.0367 48.1364 72.058 48.4295 72.2286 48.5983C72.3629 48.7311 72.4671 48.8912 72.5342 49.0678C72.5903 49.1961 72.6729 49.3111 72.7767 49.4053C72.8804 49.4994 73.0029 49.5705 73.1361 49.6139C73.2692 49.6573 73.4101 49.6721 73.5494 49.6572C73.6887 49.6423 73.8232 49.598 73.9442 49.5274C74.5724 49.1735 75.322 48.7076 75.8845 48.2441C76.1741 48.0054 76.1334 47.5756 75.852 47.3273C75.6899 47.1843 75.4715 47.1223 75.2614 47.173C74.5981 47.3328 73.1095 47.7077 72.2595 48.0474Z" fill="white"/>
<path d="M70.9592 47.2848C70.7636 47.6355 70.4958 48.0322 70.1739 48.2725C70.1196 48.312 70.0541 48.3333 69.9869 48.3333C69.9197 48.3334 69.8542 48.3122 69.7997 48.2728C69.7453 48.2334 69.7047 48.1777 69.6838 48.1139C69.6629 48.05 69.6627 47.9811 69.6833 47.9172C69.9944 47.0361 70.5054 46.8316 70.6211 46.7957C70.637 46.7908 70.6527 46.7861 70.6683 46.7805C70.7144 46.7639 70.7612 46.7501 70.8085 46.739C71.0571 46.6807 71.1068 47.0371 70.9757 47.2561C70.97 47.2656 70.9645 47.2752 70.9592 47.2848Z" fill="white"/>
<path opacity="0.2" d="M74.9537 44.0005C75.0879 43.6542 74.7047 43.4154 74.3824 43.5999L73.3377 44.1981C73.1834 44.2865 73.0927 44.453 73.0874 44.6308C73.0785 44.9249 73.305 45.1809 73.5855 45.0921C74.1639 44.909 74.7848 44.484 74.9537 44.0005Z" fill="black"/>
<path d="M78.25 39.5929C77.404 41.9335 77.122 42.9374 75.5512 43.8765C73.2078 45.2865 70.5091 43.9188 70.6247 41.4175C70.7318 39.1614 72.0798 35.7154 74.6911 35.3122C75.2491 35.2068 75.8252 35.2525 76.3596 35.4447C76.894 35.6369 77.3672 35.9686 77.7302 36.4053C78.0933 36.842 78.3329 37.3678 78.4243 37.9283C78.5157 38.4888 78.4555 39.0635 78.25 39.5929Z" fill="#CE7A63"/>
<path d="M75.1064 39.5054C75.0444 39.7056 74.8921 39.8438 74.7624 39.8128C74.6326 39.7817 74.5791 39.5956 74.6383 39.3954C74.6975 39.1952 74.8554 39.0598 74.9851 39.0908C75.1149 39.1219 75.1684 39.308 75.1064 39.5054Z" fill="#263238"/>
<path d="M72.6101 38.8396C72.5481 39.037 72.393 39.1752 72.2633 39.1442C72.1335 39.1132 72.08 38.927 72.142 38.7296C72.204 38.5322 72.3591 38.3912 72.4889 38.4223C72.6186 38.4533 72.6722 38.6338 72.6101 38.8396Z" fill="#263238"/>
<path d="M72.3508 38.4882C72.439 38.5098 72.447 38.3925 72.3684 38.347C72.2748 38.2929 72.1812 38.3811 72.2671 38.4469C72.2919 38.4659 72.3198 38.4806 72.3508 38.4882Z" fill="#263238"/>
<path d="M72.9505 40.4955C73.0274 40.2468 72.628 40.0325 72.429 40.2003C72.3263 40.2869 72.307 40.446 72.4196 40.5193C72.456 40.543 72.4944 40.5639 72.5342 40.5818C72.5982 40.6105 72.6652 40.6311 72.7338 40.6432C72.8325 40.6606 72.9208 40.5913 72.9505 40.4955Z" fill="#BA4D3C"/>
<path d="M75.8642 38.3521C75.8482 38.3507 75.8328 38.3457 75.8191 38.3374C75.8054 38.3291 75.7938 38.3177 75.7852 38.3042C75.7082 38.1779 75.6008 38.073 75.4726 37.9991C75.3445 37.9252 75.1999 37.8846 75.052 37.8812C75.0366 37.8816 75.0213 37.8789 75.0069 37.8732C74.9926 37.8676 74.9795 37.8591 74.9684 37.8483C74.9574 37.8376 74.9486 37.8247 74.9427 37.8105C74.9367 37.7963 74.9336 37.781 74.9336 37.7656C74.9356 37.7326 74.9496 37.7014 74.973 37.6781C74.9964 37.6547 75.0275 37.6407 75.0605 37.6387C75.2473 37.6419 75.4305 37.6916 75.5934 37.7831C75.7563 37.8747 75.894 38.0053 75.9939 38.1632C76.0048 38.1841 76.0098 38.2075 76.0084 38.2311C76.007 38.2546 75.9992 38.2773 75.9859 38.2967C75.9725 38.3161 75.9542 38.3315 75.9327 38.3413C75.9113 38.3511 75.8876 38.3548 75.8642 38.3521Z" fill="#263238"/>
<path d="M72.0748 37.1649C72.0609 37.1592 72.0482 37.1508 72.0375 37.1401C72.0269 37.1295 72.0185 37.1168 72.0128 37.1028C72.0029 37.0725 72.0054 37.0396 72.0196 37.0111C72.0339 36.9826 72.0588 36.9608 72.0889 36.9505C72.2695 36.8746 72.4652 36.8411 72.6608 36.8529C72.8564 36.8646 73.0467 36.9212 73.2169 37.0182C73.2296 37.0271 73.2403 37.0386 73.2484 37.0518C73.2564 37.065 73.2617 37.0798 73.2638 37.0951C73.2659 37.1104 73.2649 37.1261 73.2607 37.141C73.2565 37.1559 73.2493 37.1698 73.2395 37.1818C73.2198 37.2075 73.1913 37.2249 73.1595 37.2306C73.1277 37.2364 73.0948 37.23 73.0675 37.2128C72.9315 37.1368 72.7799 37.0932 72.6244 37.0854C72.4688 37.0776 72.3136 37.1057 72.1707 37.1677C72.1553 37.1736 72.1389 37.1764 72.1225 37.1759C72.106 37.1754 72.0898 37.1717 72.0748 37.1649Z" fill="#263238"/>
<path d="M74.8451 39.154C74.9326 39.1766 74.9417 39.0602 74.8635 39.0148C74.771 38.9609 74.6785 39.0478 74.7634 39.113C74.7876 39.1316 74.8148 39.1461 74.8451 39.154Z" fill="#263238"/>
<path d="M65.7383 58.1792H63.3018C63.1834 58.174 63.0699 58.1305 62.9784 58.0552C62.8869 57.9799 62.8222 57.877 62.7942 57.7618L61.6662 52.4828C61.6518 52.4332 61.6494 52.3809 61.6593 52.3301C61.6692 52.2794 61.691 52.2318 61.723 52.1913C61.755 52.1507 61.7963 52.1184 61.8433 52.097C61.8903 52.0756 61.9418 52.0657 61.9934 52.0683H64.4298C64.5479 52.0733 64.6611 52.1164 64.7526 52.1911C64.8441 52.2658 64.9089 52.3682 64.9374 52.4828L66.0654 57.7618C66.0798 57.8116 66.0821 57.864 66.0722 57.9148C66.0623 57.9656 66.0405 58.0134 66.0085 58.0541C65.9766 58.0949 65.9355 58.1274 65.8885 58.1492C65.8415 58.1709 65.79 58.1812 65.7383 58.1792Z" fill="#263238"/>
<path d="M65.4561 58.1792H63.0196C62.9012 58.174 62.7877 58.1305 62.6962 58.0552C62.6046 57.9799 62.54 57.877 62.512 57.7618L61.384 52.4828C61.3696 52.4332 61.3672 52.3809 61.3771 52.3301C61.387 52.2794 61.4088 52.2318 61.4408 52.1913C61.4728 52.1507 61.514 52.1184 61.5611 52.097C61.6081 52.0756 61.6595 52.0657 61.7111 52.0683H64.1476C64.2656 52.0733 64.3789 52.1164 64.4704 52.1911C64.5618 52.2658 64.6267 52.3682 64.6552 52.4828L65.7832 57.7618C65.7975 57.8116 65.7998 57.864 65.79 57.9148C65.7801 57.9656 65.7583 58.0134 65.7263 58.0541C65.6944 58.0949 65.6532 58.1274 65.6063 58.1492C65.5593 58.1709 65.5078 58.1812 65.4561 58.1792Z" fill="#263238"/>
<path opacity="0.2" d="M65.4561 58.1792H63.0196C62.9012 58.174 62.7877 58.1305 62.6962 58.0552C62.6046 57.9799 62.54 57.877 62.512 57.7618L61.384 52.4828C61.3696 52.4332 61.3672 52.3809 61.3771 52.3301C61.387 52.2794 61.4088 52.2318 61.4408 52.1913C61.4728 52.1507 61.514 52.1184 61.5611 52.097C61.6081 52.0756 61.6595 52.0657 61.7111 52.0683H64.1476C64.2656 52.0733 64.3789 52.1164 64.4704 52.1911C64.5618 52.2658 64.6267 52.3682 64.6552 52.4828L65.7832 57.7618C65.7975 57.8116 65.7998 57.864 65.79 57.9148C65.7801 57.9656 65.7583 58.0134 65.7263 58.0541C65.6944 58.0949 65.6532 58.1274 65.6063 58.1492C65.5593 58.1709 65.5078 58.1812 65.4561 58.1792Z" fill="white"/>
<path d="M64.5819 55.069L65.3377 54.9026C65.4773 54.8717 65.6223 54.8745 65.7606 54.9108C65.8989 54.9471 66.0265 55.0158 66.1329 55.1113L67.1425 56.0193C67.3404 56.199 67.4929 56.4231 67.5875 56.673C67.6821 56.923 67.7161 57.1919 67.6868 57.4576C67.6628 57.6594 67.5213 57.831 67.321 57.8659C66.4387 58.0194 65.4672 57.8128 65.0441 57.7024C64.8985 57.6644 64.7534 57.6259 64.6059 57.596L64.3535 57.545C64.256 57.528 64.1628 57.4918 64.0794 57.4385C63.996 57.3853 63.924 57.316 63.8676 57.2346C63.8112 57.1533 63.7715 57.0616 63.7508 56.9648C63.7302 56.868 63.7289 56.768 63.7472 56.6708L63.9249 55.7317C63.9597 55.57 64.04 55.4217 64.1565 55.3043C64.2729 55.1868 64.4206 55.1052 64.5819 55.069Z" fill="#CE7A63"/>
<path d="M77.5789 49.5783C77.1653 49.539 76.7531 49.6655 76.4327 49.9298C76.1123 50.1942 75.9099 50.5749 75.8699 50.9883V51.0419C75.8417 51.3239 75.8051 51.6679 75.7684 51.9866C75.7318 52.3053 75.6867 52.6352 75.6387 52.9595C75.5428 53.6109 75.4272 54.2539 75.2975 54.8912C75.1678 55.5285 75.0155 56.1546 74.8322 56.7665C74.7506 57.0343 74.6623 57.297 74.5692 57.5556C74.4286 57.9458 74.0569 58.2191 73.6478 58.1511C72.9196 58.0417 72.1997 57.8824 71.4933 57.6745C70.8306 57.4659 70.1623 57.2233 69.4939 56.9695C68.8282 56.7167 68.1569 56.4443 67.5023 56.183C67.4972 56.181 67.4917 56.1799 67.4863 56.1799C67.4806 56.1799 67.4749 56.1788 67.4696 56.1767C67.2949 56.1063 67.1006 56.1013 66.9224 56.1629C66.7414 56.2255 66.5898 56.3523 66.4962 56.5193C66.4026 56.6863 66.3736 56.8818 66.4147 57.0688C66.4558 57.2558 66.5641 57.4212 66.7191 57.5335C67.3395 57.9904 67.9655 58.3795 68.6113 58.7856C69.2571 59.1917 69.9254 59.5386 70.6219 59.8741C71.4238 60.2256 72.254 60.5086 73.1035 60.7201C73.5631 60.8469 74.0369 60.9151 74.5135 60.9232C74.8328 60.9269 75.1507 60.8802 75.4554 60.785C75.8827 60.6542 76.2641 60.4049 76.5552 60.0659C76.6058 60.003 76.651 59.936 76.6906 59.8657L76.7188 59.8121C77.0834 59.1407 77.4 58.4443 77.6663 57.7281C77.9232 57.03 78.1416 56.3183 78.3205 55.5962C78.5038 54.8827 78.6448 54.1636 78.7604 53.4417C78.814 53.0779 78.862 52.717 78.9043 52.3532C78.9466 51.9894 78.9776 51.6369 78.9973 51.2252C79.0188 50.8208 78.8833 50.4237 78.6189 50.1168C78.3546 49.8099 77.982 49.617 77.5789 49.5783Z" fill="#CE7A63"/>
<path d="M76.1428 50.2756C76.9889 48.7627 79.2189 48.9012 79.4783 50.6151C79.5977 51.404 79.517 52.3582 79.2718 53.5384C79.0856 54.4349 78.2008 55.2097 77.2858 55.1781C75.6198 55.1204 74.8213 53.4959 75.3966 51.9313C75.6011 51.3751 75.8486 50.8015 76.1428 50.2756Z" fill="#02513E"/>
<path d="M71.7786 41.4312C71.7786 41.3728 71.8179 41.3253 71.8758 41.3171C72.0202 41.2967 72.332 41.2607 72.8552 41.2386C73.8548 41.1962 74.3616 42.3099 73.3671 42.4194C73.2304 42.4345 73.0829 42.4401 72.9235 42.4351C72.6386 42.4537 72.358 42.3584 72.1433 42.1702C71.9286 41.9819 71.7974 41.7161 71.7786 41.4312Z" fill="#263238"/>
<path d="M73.4874 41.8965C73.2944 41.8801 73.1012 41.8896 72.9129 41.924C72.5528 41.9897 72.5545 42.4269 72.9206 42.4266C73.1134 42.4436 73.3064 42.4343 73.4945 42.4C73.8571 42.3338 73.856 41.8918 73.4874 41.8965Z" fill="#BA4D3C"/>
<path d="M72.1434 41.2917C72.0053 41.3049 71.9119 41.4458 72.01 41.5439C72.1331 41.667 72.3231 41.6745 72.4972 41.6757C73.0963 41.6797 73.6949 41.6395 74.2883 41.5554C74.3966 41.5483 74.5016 41.5148 74.594 41.4577C74.7195 41.3803 74.6419 41.22 74.4946 41.2155C73.71 41.1911 72.9247 41.2166 72.1434 41.2917Z" fill="white"/>
<path d="M74.7115 35.1569C74.5825 35.1765 74.4549 35.2042 74.3294 35.2395C74.2967 35.2488 74.2744 35.2788 74.2744 35.3128C74.2744 35.3558 74.3096 35.3904 74.3525 35.3908C74.6972 35.3938 75.0396 35.448 75.3686 35.5517C77.32 36.1467 77.6246 37.2437 76.9703 38.8652C76.6573 39.6379 76.4881 41.2763 76.8491 41.5837C77.2091 41.8891 77.7046 41.3239 77.8717 40.8822C78.022 40.4852 78.1791 40.0416 78.3606 39.5335C78.5689 38.9913 78.6287 38.4034 78.5338 37.8304C78.439 37.2573 78.1928 36.72 77.8209 36.2739C77.449 35.8278 76.9647 35.4891 76.4181 35.2927C75.8714 35.0964 75.2823 35.0495 74.7115 35.1569Z" fill="#263238"/>
<path d="M78.4734 41.7359C78.2926 41.9248 78.0762 42.0759 77.8366 42.1805C77.5969 42.2851 77.3389 42.341 77.0775 42.345C76.4007 42.345 76.2935 41.6457 76.6742 41.0647C77.0155 40.543 77.7769 39.9142 78.3662 40.199C78.9556 40.4838 78.9415 41.2537 78.4734 41.7359Z" fill="#CE7A63"/>
<g opacity="0.9">
<path d="M74.314 53.7155C69.5651 53.4335 67.4219 52.5452 66.5674 52.0489C66.5399 52.0343 66.5143 52.0163 66.4913 51.9953C66.2459 51.781 66.5562 51.389 66.841 51.5526C67.5883 51.984 69.6469 52.861 74.3478 53.1515C74.4221 53.1559 74.4917 53.1894 74.5414 53.2449C74.591 53.3004 74.6167 53.3732 74.6129 53.4476C74.6111 53.4849 74.6019 53.5215 74.5859 53.5552C74.5698 53.5889 74.5472 53.6191 74.5194 53.644C74.4916 53.6689 74.4591 53.6881 74.4239 53.7004C74.3886 53.7126 74.3512 53.7178 74.314 53.7155Z" fill="white"/>
</g>
<g opacity="0.9">
<path d="M74.0655 56.3997C74.0655 56.438 74.0578 56.4758 74.0427 56.511C74.0277 56.5462 74.0057 56.5779 73.978 56.6043C73.9503 56.6307 73.9175 56.6511 73.8816 56.6644C73.8458 56.6778 73.8076 56.6836 73.7694 56.6817C71.0598 56.5832 68.3953 55.9587 65.9241 54.8431C65.89 54.8261 65.8597 54.8025 65.835 54.7735C65.8103 54.7445 65.7917 54.7108 65.7803 54.6744C65.769 54.638 65.7652 54.5998 65.769 54.5619C65.7729 54.524 65.7844 54.4872 65.8029 54.4539C65.8376 54.3907 65.8953 54.3431 65.964 54.3211C66.0327 54.299 66.1073 54.3042 66.1723 54.3355C68.5769 55.411 71.1653 56.016 73.7976 56.1177C73.8699 56.1213 73.938 56.1526 73.9879 56.2051C74.0378 56.2576 74.0656 56.3273 74.0655 56.3997Z" fill="white"/>
</g>
<g opacity="0.9">
<path d="M69.288 61.1008C67.0884 60.6722 65.9576 60.3789 65.481 60.2548C65.4445 60.2442 65.4104 60.2264 65.3809 60.2023C65.3515 60.1782 65.3272 60.1484 65.3095 60.1147C65.2918 60.0809 65.2812 60.044 65.2782 60.006C65.2752 59.9681 65.2799 59.9299 65.2921 59.8939C65.3154 59.8254 65.3641 59.7685 65.4281 59.7349C65.4921 59.7013 65.5666 59.6936 65.6361 59.7134C66.093 59.8431 67.221 60.1335 69.3952 60.5594C69.4684 60.5737 69.533 60.6165 69.5748 60.6783C69.6165 60.7402 69.6321 60.816 69.618 60.8893C69.6011 60.9605 69.5573 61.0223 69.4958 61.0617C69.4342 61.1012 69.3597 61.1152 69.288 61.1008Z" fill="white"/>
</g>
<path d="M74.308 36.096C74.2133 36.1361 74.1066 36.1376 74.0107 36.1002C73.9149 36.0628 73.8374 35.9895 73.7948 35.8958C73.7564 35.8005 73.7435 35.6967 73.7573 35.5949C73.7712 35.493 73.8113 35.3965 73.8738 35.3149C73.9652 35.1968 74.104 35.332 74.0602 35.4748C74.0501 35.5077 74.0412 35.541 74.0333 35.5746C74.0303 35.5875 74.029 35.6008 74.0295 35.614C74.0386 35.8346 74.1083 36.1644 74.308 36.096Z" fill="#263238"/>
<path d="M76.6473 41.8209C76.6512 41.8418 76.6627 41.868 76.6579 41.8887C76.655 41.9016 76.6506 41.9143 76.6449 41.9264C76.6337 41.9498 76.6178 41.9705 76.5981 41.9873C76.5784 42.0041 76.5553 42.0165 76.5305 42.0238C76.5056 42.031 76.4795 42.0329 76.4539 42.0293C76.4022 42.0181 76.3546 41.9926 76.3167 41.9557C76.2788 41.9188 76.2521 41.872 76.2395 41.8206C76.2183 41.7164 76.2183 41.609 76.2395 41.5048C76.2566 41.2645 76.3148 41.0289 76.4116 40.8082C76.4842 40.6421 76.6013 40.5008 76.7484 40.3988C76.8376 40.3369 76.9667 40.3669 76.9808 40.4745C76.9888 40.5355 76.9792 40.5975 76.953 40.6531C76.8949 40.7523 76.8289 40.8466 76.7556 40.9351C76.6706 41.0611 76.6155 41.2049 76.5945 41.3554C76.5745 41.4983 76.5858 41.6438 76.6275 41.7818C76.6316 41.7955 76.6447 41.8069 76.6473 41.8209Z" fill="#263238"/>
<path d="M44.8897 59.7388H24.8113C24.0709 59.7388 23.3608 60.0329 22.8372 60.5565C22.3137 61.0801 22.0195 61.7901 22.0195 62.5306V77.7924C22.0195 78.5329 22.3137 79.243 22.8372 79.7665C23.3608 80.2901 24.0709 80.5842 24.8113 80.5842H36.408C38.4478 80.5842 40.0802 82.325 41.6079 83.6767C42.5096 84.4745 43.6717 84.9151 44.8756 84.9157C45.0249 84.9157 45.0966 84.7538 45.0124 84.6307C44.5374 83.9366 44.1211 83.0638 43.7823 82.0619C43.5309 81.3187 44.1136 80.5842 44.8982 80.5842C45.6386 80.5842 46.3487 80.2901 46.8723 79.7665C47.3959 79.243 47.69 78.5329 47.69 77.7924V62.5306C47.69 62.1632 47.6175 61.7995 47.4767 61.4602C47.3358 61.121 47.1294 60.8128 46.8693 60.5535C46.6092 60.2941 46.3004 60.0887 45.9607 59.9489C45.621 59.8091 45.2571 59.7377 44.8897 59.7388Z" fill="#02513E"/>
<path opacity="0.4" d="M44.8897 59.7388H24.8113C24.0709 59.7388 23.3608 60.0329 22.8372 60.5565C22.3137 61.0801 22.0195 61.7901 22.0195 62.5306V77.7924C22.0195 78.5329 22.3137 79.243 22.8372 79.7665C23.3608 80.2901 24.0709 80.5842 24.8113 80.5842H36.408C38.4478 80.5842 40.0802 82.325 41.6079 83.6767C42.5096 84.4745 43.6717 84.9151 44.8756 84.9157C45.0249 84.9157 45.0966 84.7538 45.0124 84.6307C44.5374 83.9366 44.1211 83.0638 43.7823 82.0619C43.5309 81.3187 44.1136 80.5842 44.8982 80.5842C45.6386 80.5842 46.3487 80.2901 46.8723 79.7665C47.3959 79.243 47.69 78.5329 47.69 77.7924V62.5306C47.69 62.1632 47.6175 61.7995 47.4767 61.4602C47.3358 61.121 47.1294 60.8128 46.8693 60.5535C46.6092 60.2941 46.3004 60.0887 45.9607 59.9489C45.621 59.8091 45.2571 59.7377 44.8897 59.7388Z" fill="white"/>
<path d="M49.1056 66.888C48.9865 66.4818 49.1075 66.0432 49.4181 65.7555C49.9528 65.2604 50.8108 65.4026 51.1573 66.0436L51.2773 66.2656C51.5841 66.8333 51.4341 67.5615 50.8296 67.7872C50.5082 67.9072 50.1485 67.9826 49.8169 67.9192C49.4829 67.8554 49.294 67.5303 49.1983 67.204L49.1056 66.888Z" fill="#FF8B7B"/>
<path d="M49.9141 67.0662C49.4075 66.64 48.6347 66.8096 48.353 67.4087L48.172 67.7937C47.9811 68.1999 48.0893 68.6838 48.435 68.9701C48.8951 69.3509 49.5856 69.2373 49.8994 68.7291L50.1229 68.3672C50.3856 67.9417 50.2967 67.3881 49.9141 67.0662Z" fill="#FF8B7B"/>
<path d="M51.959 65.1141L52.2156 66.0475C52.2792 66.2657 52.2743 66.4981 52.2017 66.7134C52.1291 66.9287 51.9922 67.1166 51.8095 67.2517C51.5046 67.4545 51.0916 67.3564 50.9104 67.0381L50.3473 66.0492C49.9965 65.4332 50.3297 64.6525 51.0171 64.4796C51.1207 64.4584 51.2275 64.458 51.3312 64.4785C51.435 64.499 51.5336 64.54 51.6213 64.5991C51.709 64.6582 51.784 64.7341 51.842 64.8226C51.9 64.911 51.9398 65.0101 51.959 65.1141Z" fill="#FF8B7B"/>
<path d="M49.8615 65.9968C49.4603 66.0577 49.081 65.678 49.1824 65.2852C49.3119 64.7834 49.43 64.2156 49.3849 63.9495C49.337 63.6309 49.6669 63.6816 49.932 63.7775C50.0342 63.8123 50.1234 63.8773 50.1879 63.9639C50.2523 64.0505 50.289 64.1546 50.2929 64.2625C50.3155 64.8265 50.2929 65.9263 49.8615 65.9968Z" fill="#FF8B7B"/>
<path d="M50.7351 68.0357C50.2968 67.5456 49.7125 67.2095 49.0685 67.0769L48.5948 66.9782C48.5287 66.965 48.4752 66.958 48.4315 66.956C48.2646 66.9485 48.18 67.1308 48.09 67.2715L47.808 67.6917C47.6219 67.9737 47.4357 68.2557 47.244 68.5377C46.8689 69.1017 46.4769 69.629 46.0821 70.1423C45.7125 70.6329 45.3062 71.0948 44.8667 71.5241C44.8029 71.5833 44.703 71.5796 44.6455 71.5142C44.5378 71.3918 44.4333 71.265 44.3225 71.1349C43.9098 70.613 43.5248 70.0699 43.1691 69.5078C42.8053 68.9438 41.6265 67.2348 41.3051 66.6201C41.1443 66.3155 40.9864 66.0053 40.8369 65.6951L40.6198 65.2298C40.5549 65.0804 40.476 64.9055 40.4309 64.7927L40.3998 64.7194C40.1686 64.2106 39.7454 63.814 39.2226 63.6163C38.6999 63.4185 38.1201 63.4358 37.61 63.6642C37.0999 63.8926 36.701 64.3136 36.5004 64.8352C36.2997 65.3569 36.3137 65.9367 36.5393 66.4481C36.6408 66.6765 36.7197 66.84 36.8213 67.029L37.1033 67.5704C37.2913 67.9295 37.4793 68.282 37.6673 68.6279C38.0677 69.3244 39.3423 71.1011 39.8105 71.7694C40.2849 72.4498 40.804 73.098 41.3643 73.7096C41.9538 74.3601 42.6066 74.9505 43.3129 75.4721L43.4003 75.5369C43.6172 75.6942 43.867 75.8 44.1308 75.8464C44.3947 75.8929 44.6656 75.8786 44.9231 75.8048C45.4978 75.637 46.0335 75.3572 46.4995 74.9814C46.8555 74.6991 47.1867 74.3868 47.4893 74.0479C48.0185 73.4529 48.5003 72.8174 48.9303 72.1473C49.3449 71.5071 49.7087 70.8529 50.0583 70.1987C50.2247 69.8659 50.3883 69.536 50.5406 69.1976L50.7662 68.6899L50.8761 68.4333C50.91 68.3431 50.9269 68.2444 50.7351 68.0357Z" fill="#263238"/>
<path opacity="0.4" d="M40.6257 68.7002C40.4598 67.9633 39.5955 67.6261 38.9788 68.0623C38.8186 68.1756 38.6934 68.3315 38.6173 68.5124L38.4743 68.8528C38.3566 69.133 38.368 69.4538 38.5165 69.719C38.9141 70.4155 39.3625 71.0923 39.8193 71.7607C40.2937 72.4411 40.8128 73.0892 41.3732 73.7008C41.5537 73.8813 41.8994 73.6629 41.8245 73.4188C41.3977 72.0276 40.932 70.0605 40.6257 68.7002Z" fill="black"/>
<path d="M26.4219 75.7114C26.5378 78.4083 28.282 80.5843 30.9814 80.5843H33.3593C37.0431 80.5843 40.2498 77.8179 40.3047 74.1345C40.3322 72.2866 40.2322 70.8875 40.2399 68.4837C40.2399 65.9965 39.8592 63.4585 37.3832 63.199C34.4751 62.9153 31.5454 62.9342 28.6412 63.2554C28.2062 63.3084 27.7861 63.4477 27.4056 63.6653C27.0251 63.8828 26.6919 64.1742 26.4255 64.5222C26.1592 64.8703 25.965 65.268 25.8545 65.6921C25.7439 66.1162 25.7192 66.5581 25.7817 66.9919C26.3373 70.751 26.0355 72.8801 26.4219 75.7114Z" fill="#263238"/>
<path opacity="0.9" d="M36.6188 63.4446C36.3148 63.1927 35.9219 63.08 35.5277 63.0596C34.7625 63.02 33.9966 63.0003 33.2307 63.0005C31.7974 63.0009 30.9118 64.3081 32.0721 65.1494C32.4563 65.428 32.9413 65.7128 33.5532 65.992C33.9215 66.16 34.3436 65.9771 34.594 65.659C34.6064 65.6432 34.6191 65.6276 34.6319 65.6122C34.9558 65.2237 35.3995 65.1937 35.9051 65.2057C36.3789 65.2169 37.2979 65.8076 37.4089 65.3469C37.533 64.832 37.4546 64.1372 36.6188 63.4446Z" fill="white"/>
<path opacity="0.4" d="M26.8139 69.7512C27.4768 68.8172 28.6556 69.2069 28.4076 70.3252C27.9739 72.2809 27.1985 74.3544 26.6277 75.7487C26.5877 75.8464 26.4441 75.8172 26.4441 75.7117C26.2248 74.1156 26.2269 72.7408 26.1793 71.1747C26.1693 70.8471 26.265 70.5246 26.4547 70.2573L26.8139 69.7512Z" fill="black"/>
<path d="M34.4738 60.3672C33.5367 59.5135 31.9105 60.2109 31.5827 61.4355C31.4324 61.997 31.24 62.5479 31.0066 63.0837C30.9812 63.1435 30.9748 63.2098 30.9885 63.2734C31.0021 63.337 31.035 63.3948 31.0827 63.439C32.2335 64.4311 33.709 64.9651 35.2281 64.9392C37.0752 64.9618 36.9681 64.3752 36.531 63.7351C36.4673 63.6441 36.3845 63.5681 36.2885 63.5123C35.6564 63.1371 35.3293 62.6983 35.2047 62.2775C35.0117 61.6261 34.9761 60.8247 34.4738 60.3672Z" fill="#FF8B7B"/>
<path opacity="0.2" d="M31.9595 58.881C31.9774 58.5794 32.3383 58.4193 32.5615 58.6229L34.8436 60.7036C35.1305 60.9652 35.1675 61.3959 35.1462 61.7836C35.1287 62.1011 34.9147 62.4393 34.6034 62.3742C34.1363 62.2764 33.6981 62.0602 33.3332 61.7414C32.4774 61.0138 32.181 60.1566 31.9645 58.9629C31.9595 58.9355 31.9579 58.9088 31.9595 58.881Z" fill="black"/>
<path d="M30.9789 56.5016C31.1255 58.7576 30.8069 59.1186 31.9518 60.2607C33.6748 61.9781 36.4807 62.3052 36.8783 60.021C37.2337 57.9624 37.4423 54.2372 35.2174 53.3686C34.7271 53.1736 34.1951 53.1068 33.6718 53.1747C33.1485 53.2426 32.6512 53.4428 32.2269 53.7564C31.8025 54.0701 31.4652 54.4868 31.2468 54.9672C31.0285 55.4476 30.9363 55.9757 30.9789 56.5016Z" fill="#FF8B7B"/>
<path d="M36.0222 59.8829C36.5141 59.4843 36.7589 58.9871 36.1379 58.8639C35.1789 58.6735 33.7407 59.7413 34.6791 60.016C34.8547 60.0674 35.0526 60.0985 35.2762 60.1057C35.6109 60.1163 35.8506 60.022 36.0222 59.8829Z" fill="#263238"/>
<path d="M34.7628 59.4486C34.9553 59.4456 35.1456 59.4719 35.3275 59.5254C35.705 59.6364 35.6712 60.1267 35.2789 60.0972C35.0854 60.1011 34.894 60.0748 34.7114 60.0207C34.3339 59.9088 34.3703 59.4178 34.7628 59.4486Z" fill="#FF5652"/>
<path d="M35.8595 58.8085C36.1173 58.8528 36.2966 59.183 36.0488 59.2668C36.0165 59.2778 35.9727 59.2817 35.9386 59.2799C35.2905 59.2461 34.6469 59.1526 34.016 59.0005C33.9047 58.9804 33.8006 58.9316 33.7141 58.8588C33.5899 58.7545 33.6975 58.5895 33.8595 58.5961C34.5301 58.6237 35.1982 58.6946 35.8595 58.8085Z" fill="white"/>
<path d="M35.7443 58.0359C35.7086 57.7856 36.1149 57.6239 36.2869 57.8092C36.3739 57.903 36.375 58.0533 36.2626 58.1146C36.2221 58.1367 36.1798 58.1555 36.1359 58.1708C36.075 58.192 36.012 58.2062 35.9482 58.213C35.8437 58.2243 35.7592 58.14 35.7443 58.0359Z" fill="#FF5652"/>
<path d="M33.4043 55.8602C33.3668 55.8691 33.3233 55.861 33.2963 55.8335C33.2857 55.8231 33.2772 55.8105 33.2714 55.7967C33.2657 55.7829 33.2627 55.7681 33.2627 55.7532C33.2627 55.7382 33.2657 55.7234 33.2714 55.7096C33.2772 55.6958 33.2857 55.6833 33.2963 55.6728C33.4132 55.5356 33.5613 55.4285 33.7281 55.3603C33.8949 55.2921 34.0756 55.2648 34.2551 55.2808C34.2851 55.2853 34.312 55.3015 34.33 55.3258C34.3479 55.3502 34.3555 55.3806 34.351 55.4105C34.3465 55.4405 34.3304 55.4674 34.306 55.4854C34.2817 55.5033 34.2512 55.5109 34.2213 55.5064C34.0786 55.4954 33.9354 55.5185 33.8034 55.5739C33.6715 55.6294 33.5547 55.7155 33.4627 55.8251C33.4486 55.8411 33.4303 55.8527 33.4098 55.8587C33.408 55.8593 33.4061 55.8598 33.4043 55.8602Z" fill="#263238"/>
<path d="M37.092 56.2591C37.0736 56.2623 37.0546 56.2609 37.0369 56.255C37.0192 56.2491 37.0032 56.2388 36.9904 56.2252C36.8969 56.1186 36.7793 56.0359 36.6473 55.9839C36.5154 55.9319 36.373 55.9122 36.2319 55.9263C36.2027 55.9313 36.1728 55.9246 36.1486 55.9077C36.1243 55.8908 36.1076 55.8651 36.1021 55.8361C36.0972 55.8062 36.1042 55.7756 36.1216 55.7508C36.139 55.726 36.1654 55.709 36.1952 55.7035C36.3731 55.684 36.553 55.707 36.7202 55.7708C36.8875 55.8345 37.0371 55.9371 37.1568 56.0701C37.1675 56.0806 37.1759 56.0931 37.1817 56.1069C37.1875 56.1207 37.1905 56.1355 37.1905 56.1505C37.1905 56.1655 37.1875 56.1803 37.1817 56.1941C37.1759 56.2079 37.1675 56.2204 37.1568 56.2309C37.1386 56.2467 37.1159 56.2565 37.092 56.2591Z" fill="#263238"/>
<path d="M22.2367 76.1712C22.2416 76.2778 22.2577 76.3837 22.2846 76.487C22.5394 77.3887 22.8705 78.267 23.2744 79.1124C23.3504 79.2782 23.4272 79.4429 23.5049 79.6066C23.7576 80.1389 24.222 80.582 24.8113 80.5845H27.1157C27.4625 80.5845 27.6941 80.227 27.5524 79.9105C27.2168 79.1745 26.9066 78.4356 26.6246 77.7053C26.4775 77.3343 26.345 76.9577 26.2273 76.5766C26.0881 76.1257 26.0499 75.6445 26.1762 75.1898C26.2636 74.8514 26.3821 74.4848 26.5174 74.1126C26.7994 73.3709 27.1096 72.6067 27.448 71.8566C27.7864 71.1065 28.1615 70.3366 28.5394 69.578C28.9152 68.8237 29.3077 68.0609 29.6975 67.348C29.7018 67.3402 29.704 67.3315 29.704 67.3225C29.704 67.3148 29.7057 67.3071 29.709 67.3001L29.7238 67.2684C29.9796 66.7692 30.0266 66.1888 29.8544 65.6549C29.6823 65.1211 29.3051 64.6774 28.8059 64.4217C28.3066 64.1659 27.7262 64.1189 27.1924 64.291C26.6585 64.4632 26.2149 64.8403 25.9591 65.3396C25.5361 66.1686 25.1554 66.9611 24.7719 67.7817C24.3883 68.6023 24.0415 69.4314 23.7031 70.2774C23.3647 71.1234 23.0601 71.9778 22.7781 72.8943C22.6399 73.354 22.5159 73.8278 22.4115 74.3382C22.2818 74.9193 22.2222 75.5139 22.2339 76.1091L22.2367 76.1712Z" fill="#263238"/>
<path d="M29.9552 58.0132C30.1507 58.4967 30.5227 58.8879 30.9958 59.1074C31.5993 59.3668 31.932 58.7775 31.7882 58.1007C31.6613 57.4944 31.1904 56.6258 30.5728 56.654C29.9552 56.6822 29.6986 57.3928 29.9552 58.0132Z" fill="#FF8B7B"/>
<path d="M33.8809 56.6256C33.8809 56.8202 33.9626 56.9866 34.0952 56.995C34.2277 57.0035 34.3377 56.8512 34.3462 56.651C34.3546 56.4508 34.2644 56.29 34.1347 56.2816C34.0049 56.2731 33.8921 56.4254 33.8809 56.6256Z" fill="#2E353A"/>
<path d="M36.1113 56.7556C36.1113 56.953 36.1959 57.1194 36.3228 57.1279C36.4497 57.1363 36.5653 56.9812 36.5794 56.7838C36.5935 56.5864 36.4948 56.4229 36.3679 56.4144C36.241 56.4059 36.1226 56.5582 36.1113 56.7556Z" fill="#2E353A"/>
<path d="M42.5631 20.1822H22.496C21.7561 20.1829 21.0467 20.4774 20.5237 21.0008C20.0008 21.5243 19.707 22.234 19.707 22.974V38.2358C19.7067 38.6023 19.7785 38.9653 19.9185 39.304C20.0585 39.6427 20.2639 39.9504 20.5229 40.2097C20.7819 40.469 21.0895 40.6747 21.4281 40.815C21.7666 40.9554 22.1295 41.0276 22.496 41.0276H34.0863C36.1257 41.0276 37.7572 42.77 39.2838 44.1223C40.1852 44.9208 41.3477 45.3618 42.5518 45.3619C42.7025 45.3619 42.775 45.1987 42.6901 45.0744C42.2152 44.3791 41.7982 43.5073 41.4598 42.5057C41.2084 41.7619 41.7921 41.0276 42.5772 41.0276C43.3177 41.0276 44.0278 40.7335 44.5513 40.2099C45.0749 39.6863 45.369 38.9762 45.369 38.2358V22.974C45.3687 22.6062 45.2957 22.2422 45.1544 21.9028C45.0131 21.5633 44.8062 21.255 44.5455 20.9957C44.2849 20.7363 43.9756 20.531 43.6354 20.3914C43.2952 20.2518 42.9308 20.1807 42.5631 20.1822Z" fill="#02513E"/>
<path opacity="0.4" d="M42.5631 20.1822H22.496C21.7561 20.1829 21.0467 20.4774 20.5237 21.0008C20.0008 21.5243 19.707 22.234 19.707 22.974V38.2358C19.7067 38.6023 19.7785 38.9653 19.9185 39.304C20.0585 39.6427 20.2639 39.9504 20.5229 40.2097C20.7819 40.469 21.0895 40.6747 21.4281 40.815C21.7666 40.9554 22.1295 41.0276 22.496 41.0276H34.0863C36.1257 41.0276 37.7572 42.77 39.2838 44.1223C40.1852 44.9208 41.3477 45.3618 42.5518 45.3619C42.7025 45.3619 42.775 45.1987 42.6901 45.0744C42.2152 44.3791 41.7982 43.5073 41.4598 42.5057C41.2084 41.7619 41.7921 41.0276 42.5772 41.0276C43.3177 41.0276 44.0278 40.7335 44.5513 40.2099C45.0749 39.6863 45.369 38.9762 45.369 38.2358V22.974C45.3687 22.6062 45.2957 22.2422 45.1544 21.9028C45.0131 21.5633 44.8062 21.255 44.5455 20.9957C44.2849 20.7363 43.9756 20.531 43.6354 20.3914C43.2952 20.2518 42.9308 20.1807 42.5631 20.1822Z" fill="white"/>
<path d="M36.251 41.0292C37.0049 41.0284 37.5981 40.3889 37.5752 39.6353C37.5393 38.4581 37.5627 37.2795 37.6452 36.1039C37.82 33.2163 36.9571 30.0945 36.3057 29.5615C35.3666 28.786 34.4924 28.0557 34.1822 29.0314C34.0017 29.5954 33.9482 30.526 33.9594 31.5694C33.9876 34.0905 34.5234 37.2348 34.7772 38.6871C34.8191 38.9181 34.8896 39.416 34.9544 39.8938C35.0426 40.5432 35.5957 41.0299 36.251 41.0292Z" fill="#02513E"/>
<path d="M35.8909 29.6859C35.8587 29.4786 35.7674 29.285 35.6278 29.1284C35.4882 28.9718 35.3063 28.8589 35.1041 28.8032C34.3991 28.6143 33.1809 28.3069 32.0726 28.1095C30.7666 27.8973 29.4474 27.7767 28.1246 27.7485C27.2786 27.7147 26.4664 27.7485 25.815 27.7767C25.7378 27.7828 25.6613 27.796 25.5866 27.8162C25.449 27.8552 25.3204 27.921 25.2082 28.0097C25.096 28.0984 25.0024 28.2084 24.9328 28.3333C24.8631 28.4582 24.8187 28.5957 24.8022 28.7378C24.7857 28.8798 24.7973 29.0238 24.8365 29.1614C25.7579 32.4507 26.2769 34.7949 26.5718 36.7453C26.9301 39.1143 28.8495 41.0279 31.2454 41.0279C33.4569 41.0279 35.3574 39.3994 35.8283 37.2386C36.0672 36.1423 36.2663 35.1847 36.2998 34.384C36.3579 32.8071 36.2205 31.229 35.8909 29.6859Z" fill="#02513E"/>
<path opacity="0.8" d="M35.8909 29.6859C35.8587 29.4786 35.7674 29.285 35.6278 29.1284C35.4882 28.9718 35.3063 28.8589 35.1041 28.8032C34.3991 28.6143 33.1809 28.3069 32.0726 28.1095C30.7666 27.8973 29.4474 27.7767 28.1246 27.7485C27.2786 27.7147 26.4664 27.7485 25.815 27.7767C25.7378 27.7828 25.6613 27.796 25.5866 27.8162C25.449 27.8552 25.3204 27.921 25.2082 28.0097C25.096 28.0984 25.0024 28.2084 24.9328 28.3333C24.8631 28.4582 24.8187 28.5957 24.8022 28.7378C24.7857 28.8798 24.7973 29.0238 24.8365 29.1614C25.7579 32.4507 26.2769 34.7949 26.5718 36.7453C26.9301 39.1143 28.8495 41.0279 31.2454 41.0279C33.4569 41.0279 35.3574 39.3994 35.8283 37.2386C36.0672 36.1423 36.2663 35.1847 36.2998 34.384C36.3579 32.8071 36.2205 31.229 35.8909 29.6859Z" fill="white"/>
<path d="M32.337 26.2639C32.4612 26.5529 32.4138 26.881 32.2575 27.154C31.8979 27.7825 31.768 28.4949 32.4502 29.2686C32.6324 29.4674 32.7392 29.7239 32.7519 29.9933C32.7519 30.4248 32.5122 30.8393 31.1078 30.0159C30.0218 29.3781 29.564 28.6986 29.3733 28.2034C29.2108 27.7816 29.5445 27.3965 29.8473 27.0609C30.0216 26.8678 30.1799 26.624 30.3225 26.351C30.726 25.5787 31.993 25.4633 32.337 26.2639Z" fill="#FFB573"/>
<path opacity="0.2" d="M31.3138 25.5403C31.1949 25.96 31.5073 26.5655 31.8579 26.9851C32.0078 27.1646 32.2768 27.1102 32.4083 26.9168C32.4834 26.8064 32.5024 26.6657 32.45 26.543L32.0525 25.6132C31.9055 25.2693 31.4573 25.1949 31.3138 25.5403Z" fill="black"/>
<path d="M36.6718 19.9682C37.3881 20.8763 35.7751 23.6117 35.6002 23.0392C35.3182 22.1086 34.9065 20.2192 34.9122 19.4437C34.9234 18.2198 35.9584 19.063 36.6718 19.9682Z" fill="#263238"/>
<path d="M30.7331 20.2528C30.9232 19.9293 31.1752 19.6464 31.4746 19.4202C31.7741 19.1941 32.1152 19.0292 32.4784 18.9349C32.8416 18.8406 33.2199 18.8188 33.5915 18.8708C33.9632 18.9227 34.321 19.0474 34.6444 19.2376C36.5648 20.3487 36.4182 23.4676 35.7132 25.2612C34.9405 27.2605 32.3292 27.5172 30.9784 25.6983C30.0704 24.4857 30.186 23.603 30.3467 21.5134C30.3748 21.0687 30.5072 20.6369 30.7331 20.2528Z" fill="#FFB573"/>
<path d="M33.2849 22.5595C33.2708 22.7315 33.3469 22.8781 33.4569 22.8894C33.5669 22.9007 33.6712 22.771 33.691 22.6074C33.7107 22.4439 33.6289 22.2888 33.5189 22.2775C33.409 22.2662 33.3103 22.41 33.2849 22.5595Z" fill="#263238"/>
<path d="M33.6059 22.3805C33.5322 22.3763 33.5547 22.2865 33.6274 22.2734C33.7146 22.2576 33.758 22.3502 33.6723 22.3732C33.6508 22.3789 33.6285 22.3818 33.6059 22.3805Z" fill="#263238"/>
<path d="M35.6569 22.7658C35.3924 22.7387 35.327 23.3411 35.5905 23.3772C35.5919 23.3774 35.5934 23.3776 35.5949 23.3777C35.7049 23.389 35.8092 23.2593 35.8289 23.0957C35.8487 22.9322 35.7669 22.7771 35.6569 22.7658Z" fill="#263238"/>
<path d="M35.7436 22.8571C35.6699 22.8528 35.6924 22.7631 35.765 22.75C35.8523 22.7341 35.8957 22.8268 35.81 22.8497C35.7885 22.8555 35.7662 22.8584 35.7436 22.8571Z" fill="#263238"/>
<path d="M34.6434 24.1837C34.6309 24.2732 34.6805 24.3627 34.7694 24.3787C34.8235 24.3885 34.8787 24.3922 34.934 24.3896C34.9726 24.3879 35.011 24.3831 35.0487 24.3753C35.1576 24.353 35.1945 24.2275 35.1448 24.128C35.0474 23.9329 34.6735 23.9679 34.6434 24.1837Z" fill="#ED893E"/>
<path d="M33.0122 24.2658C33.007 24.2537 33.0064 24.2401 33.0106 24.2276C33.0147 24.2152 33.0233 24.2046 33.0347 24.1981C33.0467 24.1922 33.0605 24.1913 33.0732 24.1955C33.0859 24.1997 33.0964 24.2087 33.1024 24.2207C33.2066 24.4056 33.3532 24.5632 33.5302 24.6804C33.6968 24.7907 33.8858 24.8622 34.0834 24.89C34.108 24.8934 34.1362 24.8953 34.1504 24.9157C34.1577 24.926 34.161 24.9385 34.1599 24.951C34.1593 24.9573 34.1573 24.9633 34.1542 24.9687C34.1511 24.9741 34.1469 24.9789 34.1418 24.9826C34.1368 24.9863 34.131 24.9889 34.1249 24.9903C34.1188 24.9916 34.1125 24.9917 34.1063 24.9905C34.0252 24.9816 33.945 24.9656 33.8666 24.9426C33.6864 24.8921 33.5181 24.8063 33.3714 24.6901C33.2247 24.5739 33.1026 24.4296 33.0122 24.2658Z" fill="#263238"/>
<path d="M33.2375 21.4907C33.2207 21.4794 33.2045 21.466 33.1979 21.4469C33.1927 21.4322 33.1911 21.4163 33.1934 21.4006C33.1971 21.3746 33.2109 21.3513 33.2319 21.3355C33.3994 21.234 33.5867 21.1694 33.7812 21.146C33.9758 21.1227 34.173 21.1412 34.3599 21.2002C34.3847 21.2091 34.405 21.2274 34.4166 21.2511C34.4282 21.2748 34.4301 21.302 34.4219 21.3271C34.4135 21.3517 34.3958 21.372 34.3726 21.3836C34.3494 21.3952 34.3225 21.3972 34.2978 21.3891C34.142 21.3389 33.9774 21.3219 33.8147 21.3394C33.6726 21.3547 33.5348 21.3959 33.4079 21.4608C33.3709 21.4797 33.3368 21.5108 33.2953 21.5108C33.2743 21.5108 33.254 21.5037 33.2375 21.4907Z" fill="#263238"/>
<path d="M36.3286 22.1449C36.3027 22.132 36.2812 22.1121 36.2643 22.0886C36.1995 21.9989 36.1163 21.9237 36.0201 21.8682C35.9112 21.8054 35.7887 21.7697 35.663 21.7642C35.6498 21.7646 35.6367 21.7623 35.6244 21.7575C35.6121 21.7527 35.6009 21.7455 35.5914 21.7363C35.582 21.7271 35.5744 21.7161 35.5693 21.7039C35.5642 21.6918 35.5615 21.6787 35.5615 21.6655C35.5615 21.639 35.5718 21.6136 35.5903 21.5947C35.6087 21.5757 35.6338 21.5647 35.6602 21.564C35.8187 21.5695 35.9735 21.6129 36.1118 21.6904C36.2502 21.7679 36.368 21.8773 36.4555 22.0095C36.4628 22.0202 36.4678 22.0322 36.4703 22.0449C36.4729 22.0575 36.4728 22.0706 36.4702 22.0832C36.4676 22.0959 36.4624 22.1078 36.455 22.1184C36.4476 22.129 36.4382 22.138 36.4273 22.1449C36.4126 22.1545 36.3954 22.1596 36.3779 22.1596C36.3604 22.1596 36.3432 22.1545 36.3286 22.1449Z" fill="#263238"/>
<path d="M33.7219 19.8356C33.4069 19.8947 33.1089 20.023 32.8495 20.2112C32.59 20.3995 32.3756 20.643 32.2217 20.9241C32.0779 21.1892 31.1529 21.7701 30.995 22.0324C30.4987 22.8586 31.0401 25.2105 30.806 25.3882C30.572 25.5658 30.6538 24.8693 30.431 24.7339C30.1946 24.6272 29.9681 24.4998 29.7542 24.3532C29.4722 24.1163 28.4936 21.5642 29.7006 20.0189C30.3012 19.2037 31.1803 18.6377 32.1709 18.4284C33.1745 18.2579 34.2048 18.4921 35.036 19.0798C35.2983 19.2688 35.758 19.7848 35.036 20.0161C34.8386 20.0781 34.8302 19.9202 34.6243 19.8694C34.3295 19.7932 34.0216 19.7817 33.7219 19.8356Z" fill="#263238"/>
<path d="M28.8783 21.979C28.9022 22.0078 28.9456 22.01 28.9732 21.9847C29.6609 21.3556 30.5062 21.3556 31.2547 21.3556C31.6192 21.3845 31.9858 21.3433 32.3348 21.2344C33.1075 20.8988 33.5812 19.7962 33.6687 19.4352C33.7154 19.2875 33.7989 19.1541 33.9114 19.0475C33.935 19.0252 33.9597 19.0042 33.9854 18.9846C34.1784 18.8372 34.4451 18.7942 34.6676 18.8914C34.7796 18.9403 34.8788 19.0145 34.9574 19.1081C35.0883 19.2977 35.0825 19.5683 34.9402 19.8983C34.9269 19.929 34.9404 19.9651 34.9711 19.9785C35.001 19.9915 35.0359 19.978 35.0485 19.9479C35.2088 19.5642 35.2097 19.2555 35.0561 19.0291C34.9652 18.9193 34.8503 18.832 34.7202 18.7738C34.4617 18.6581 34.1492 18.7006 33.9216 18.8691C33.8915 18.8915 33.8625 18.9155 33.8348 18.9412C33.7025 19.0641 33.6052 19.22 33.553 19.3929C33.4741 19.7257 33.0088 20.8029 32.2869 21.1131C31.9531 21.2156 31.6026 21.253 31.2547 21.2231C30.5193 21.2231 29.5995 21.2231 28.8834 21.8928C28.8591 21.9156 28.8571 21.9534 28.8783 21.979Z" fill="#263238"/>
<path opacity="0.1" d="M28.8783 21.979C28.9022 22.0078 28.9456 22.01 28.9732 21.9847C29.6609 21.3556 30.5062 21.3556 31.2547 21.3556C31.6192 21.3845 31.9858 21.3433 32.3348 21.2344C33.1075 20.8988 33.5812 19.7962 33.6687 19.4352C33.7154 19.2875 33.7989 19.1541 33.9114 19.0475C33.935 19.0252 33.9597 19.0042 33.9854 18.9846C34.1784 18.8372 34.4451 18.7942 34.6676 18.8914C34.7796 18.9403 34.8788 19.0145 34.9574 19.1081C35.0883 19.2977 35.0825 19.5683 34.9402 19.8983C34.9269 19.929 34.9404 19.9651 34.9711 19.9785C35.001 19.9915 35.0359 19.978 35.0485 19.9479C35.2088 19.5642 35.2097 19.2555 35.0561 19.0291C34.9652 18.9193 34.8503 18.832 34.7202 18.7738C34.4617 18.6581 34.1492 18.7006 33.9216 18.8691C33.8915 18.8915 33.8625 18.9155 33.8348 18.9412C33.7025 19.0641 33.6052 19.22 33.553 19.3929C33.4741 19.7257 33.0088 20.8029 32.2869 21.1131C31.9531 21.2156 31.6026 21.253 31.2547 21.2231C30.5193 21.2231 29.5995 21.2231 28.8834 21.8928C28.8591 21.9156 28.8571 21.9534 28.8783 21.979Z" fill="white"/>
<path d="M29.5202 22.8247C29.5317 22.7352 29.5608 22.6488 29.6057 22.5706C29.6506 22.4923 29.7106 22.4237 29.7821 22.3687C29.8537 22.3136 29.9354 22.2733 30.0225 22.2499C30.1097 22.2266 30.2006 22.2206 30.2901 22.2325C30.809 22.3115 31.0459 23.0108 31.0459 23.4677C31.0459 23.9725 30.6708 24.3475 30.214 24.0627C29.8717 23.8444 29.6295 23.4998 29.54 23.1039C29.5138 23.0133 29.507 22.9181 29.5202 22.8247Z" fill="#FFB573"/>
<path d="M30.4424 30.2665C30.3324 31.7104 28.9985 37.1643 26.108 37.3165C26.1031 37.3167 26.0982 37.3168 26.0933 37.3169C25.194 37.3348 24.3641 36.6594 24.0286 35.8249C23.0722 33.4457 24.4261 28.5987 24.8193 28.2672C25.0225 28.0928 25.2663 27.9723 25.5281 27.9165C25.79 27.8606 26.0617 27.8714 26.3184 27.9477C26.5751 28.024 26.8085 28.1634 26.9974 28.3532C27.0278 28.3837 27.0568 28.4154 27.0845 28.4481C27.2095 28.5958 27.5132 28.571 27.5434 28.38C27.6647 27.6439 28.0651 25.9294 28.8039 25.8053C29.2495 25.7291 30.166 25.6897 30.4311 26.0535C30.6962 26.4172 30.6257 27.8836 30.4424 30.2665Z" fill="#02513E"/>
<g opacity="0.2">
<path d="M30.4115 22.269C30.351 22.2508 30.29 22.2961 30.29 22.3593L30.4226 23.6114V24.2407C30.4226 24.3734 30.6129 24.3949 30.6425 24.2656C30.6984 24.0158 30.7108 23.7583 30.6792 23.5042L30.5343 22.3817C30.5281 22.3338 30.4943 22.2939 30.448 22.28L30.4115 22.269Z" fill="black"/>
</g>
<path d="M29.5155 26.1014C29.1281 26.0983 28.8017 25.8115 28.7488 25.4278L28.6396 24.6369C28.5625 24.0784 28.9938 23.5793 29.5576 23.5747C30.1102 23.5703 30.5449 24.0445 30.4387 24.5867C30.3593 24.992 30.2448 25.4416 30.0861 25.7816C29.9852 25.9976 29.7539 26.1033 29.5155 26.1014Z" fill="#FFB573"/>
<path d="M28.7029 22.6126C28.7926 22.1957 29.1959 21.9243 29.6159 21.9984L29.8494 22.0396C30.1848 22.0987 30.4417 22.371 30.4813 22.7092C30.5345 23.1641 30.1818 23.5649 29.7239 23.5698L29.4868 23.5724C28.9782 23.5779 28.5959 23.1099 28.7029 22.6126Z" fill="#FFB573"/>
<path opacity="0.2" d="M25.4628 33.0725C25.4353 32.2045 26.3909 32.925 25.6211 33.327C25.5309 33.374 25.4709 33.3096 25.4628 33.0725Z" fill="black"/>
<path d="M104.104 48.2729H96.3434C95.9881 48.2729 95.6474 48.4141 95.3962 48.6653C95.145 48.9165 95.0039 49.2572 95.0039 49.6124V54.6095C95.0047 54.9643 95.1461 55.3042 95.3972 55.5548C95.6484 55.8054 95.9886 55.9462 96.3434 55.9462H96.9344C97.9678 55.9462 98.9421 56.4279 99.5695 57.249C99.6461 57.3495 99.7448 57.431 99.858 57.4871C99.9713 57.5432 100.096 57.5724 100.222 57.5724C100.349 57.5724 100.473 57.5432 100.587 57.4871C100.7 57.431 100.799 57.3495 100.875 57.249C101.503 56.4279 102.477 55.9462 103.51 55.9462H104.104C104.459 55.9462 104.799 55.8053 105.049 55.5547C105.3 55.304 105.441 54.964 105.441 54.6095V49.6124C105.441 49.2577 105.3 48.9174 105.049 48.6663C104.799 48.4152 104.459 48.2737 104.104 48.2729Z" fill="#02513E"/>
<path opacity="0.7" d="M104.104 48.2729H96.3434C95.9881 48.2729 95.6474 48.4141 95.3962 48.6653C95.145 48.9165 95.0039 49.2572 95.0039 49.6124V54.6095C95.0047 54.9643 95.1461 55.3042 95.3972 55.5548C95.6484 55.8054 95.9886 55.9462 96.3434 55.9462H96.9344C97.9678 55.9462 98.9421 56.4279 99.5695 57.249C99.6461 57.3495 99.7448 57.431 99.858 57.4871C99.9713 57.5432 100.096 57.5724 100.222 57.5724C100.349 57.5724 100.473 57.5432 100.587 57.4871C100.7 57.431 100.799 57.3495 100.875 57.249C101.503 56.4279 102.477 55.9462 103.51 55.9462H104.104C104.459 55.9462 104.799 55.8053 105.049 55.5547C105.3 55.304 105.441 54.964 105.441 54.6095V49.6124C105.441 49.2577 105.3 48.9174 105.049 48.6663C104.799 48.4152 104.459 48.2737 104.104 48.2729Z" fill="white"/>
<path d="M102.467 52.4338C103.009 52.1017 103.008 51.3145 102.466 50.9838L101.67 50.4986C101.452 50.3659 101.173 50.5225 101.173 50.7773C101.173 50.9577 101.027 51.1038 100.847 51.1038H100.045C99.3153 51.1038 98.6153 51.3938 98.0991 51.91C97.5829 52.4261 97.293 53.1262 97.293 53.8562C97.2936 54.0027 97.4978 54.0185 97.5609 53.8863C97.7392 53.5128 98.0005 53.1818 98.3278 52.9201C98.8155 52.5303 99.421 52.3175 100.045 52.3164H100.846C101.027 52.3164 101.173 52.4628 101.173 52.6434C101.173 52.8989 101.453 53.0556 101.671 52.922L102.467 52.4338Z" fill="#02513E"/>
<path d="M49.4973 17.687H55.4475C55.7197 17.687 55.9808 17.7952 56.1733 17.9877C56.3658 18.1802 56.474 18.4413 56.474 18.7135V22.56C56.474 22.6946 56.4474 22.828 56.3958 22.9524C56.3442 23.0767 56.2685 23.1897 56.1732 23.2848C56.0778 23.3799 55.9646 23.4552 55.8401 23.5065C55.7156 23.5578 55.5822 23.584 55.4475 23.5836H54.9935C54.201 23.5836 53.4541 23.954 52.9744 24.5847C52.9157 24.6619 52.84 24.7244 52.7532 24.7675C52.6663 24.8105 52.5707 24.8329 52.4738 24.8329C52.3769 24.8329 52.2813 24.8105 52.1945 24.7675C52.1076 24.7244 52.0319 24.6619 51.9733 24.5847C51.4916 23.9538 50.7433 23.5836 49.9496 23.5836H49.4973C49.3628 23.584 49.2295 23.5578 49.1051 23.5065C48.9808 23.4552 48.8678 23.3798 48.7726 23.2846C48.6775 23.1895 48.6021 23.0765 48.5508 22.9521C48.4995 22.8278 48.4733 22.6945 48.4736 22.56V18.7135C48.4733 18.5788 48.4995 18.4454 48.5508 18.3209C48.602 18.1964 48.6774 18.0832 48.7725 17.9878C48.8676 17.8925 48.9805 17.8168 49.1049 17.7652C49.2293 17.7136 49.3626 17.687 49.4973 17.687Z" fill="#02513E"/>
<path opacity="0.7" d="M49.4973 17.687H55.4475C55.7197 17.687 55.9808 17.7952 56.1733 17.9877C56.3658 18.1802 56.474 18.4413 56.474 18.7135V22.56C56.474 22.6946 56.4474 22.828 56.3958 22.9524C56.3442 23.0767 56.2685 23.1897 56.1732 23.2848C56.0778 23.3799 55.9646 23.4552 55.8401 23.5065C55.7156 23.5578 55.5822 23.584 55.4475 23.5836H54.9935C54.201 23.5836 53.4541 23.954 52.9744 24.5847C52.9157 24.6619 52.84 24.7244 52.7532 24.7675C52.6663 24.8105 52.5707 24.8329 52.4738 24.8329C52.3769 24.8329 52.2813 24.8105 52.1945 24.7675C52.1076 24.7244 52.0319 24.6619 51.9733 24.5847C51.4916 23.9538 50.7433 23.5836 49.9496 23.5836H49.4973C49.3628 23.584 49.2295 23.5578 49.1051 23.5065C48.9808 23.4552 48.8678 23.3798 48.7726 23.2846C48.6775 23.1895 48.6021 23.0765 48.5508 22.9521C48.4995 22.8278 48.4733 22.6945 48.4736 22.56V18.7135C48.4733 18.5788 48.4995 18.4454 48.5508 18.3209C48.602 18.1964 48.6774 18.0832 48.7725 17.9878C48.8676 17.8925 48.9805 17.8168 49.1049 17.7652C49.2293 17.7136 49.3626 17.687 49.4973 17.687Z" fill="white"/>
<path d="M50.7638 20.8782C50.3466 20.6239 50.3466 20.0181 50.7638 19.7638L51.3751 19.3913C51.542 19.2896 51.7559 19.4097 51.7559 19.6052C51.7559 19.7436 51.8681 19.8557 52.0064 19.8557H52.6273C52.9436 19.8566 53.2557 19.9284 53.5405 20.0658C53.8254 20.2033 54.0758 20.4029 54.2734 20.6499C54.4709 20.897 54.6105 21.1852 54.6819 21.4933C54.7331 21.7142 54.4217 21.7631 54.2807 21.5854C54.1823 21.4614 54.0696 21.3481 53.9443 21.2481C53.5703 20.9494 53.106 20.7866 52.6273 20.7863H52.0064C51.8681 20.7863 51.7559 20.8985 51.7559 21.0368C51.7559 21.2323 51.542 21.3525 51.3751 21.2507L50.7638 20.8782Z" fill="#02513E"/>
</svg>
