<svg width="24" height="24" viewBox="0 0 24 24" fill="none" xmlns="http://www.w3.org/2000/svg">
<path d="M2.99844 22.2C2.83931 22.2 2.6867 22.1368 2.57417 22.0243C2.46165 21.9117 2.39844 21.7591 2.39844 21.6C2.39844 21.4409 2.46165 21.2883 2.57417 21.1757C2.6867 21.0632 2.83931 21 2.99844 21H22.1984C22.3576 21 22.5102 21.0632 22.6227 21.1757C22.7352 21.2883 22.7984 21.4409 22.7984 21.6C22.7984 21.7591 22.7352 21.9117 22.6227 22.0243C22.5102 22.1368 22.3576 22.2 22.1984 22.2H2.99844Z" fill="black"/>
<path d="M7.79766 20.9984C7.79766 21.1576 7.73444 21.3102 7.62192 21.4227C7.5094 21.5352 7.35679 21.5984 7.19766 21.5984C7.03853 21.5984 6.88591 21.5352 6.77339 21.4227C6.66087 21.3102 6.59766 21.1576 6.59766 20.9984V5.76804C6.59766 3.92484 7.92006 2.39844 9.59766 2.39844H15.5977C17.2753 2.39844 18.5977 3.92484 18.5977 5.76804V20.9984C18.5977 21.1576 18.5344 21.3102 18.4219 21.4227C18.3094 21.5352 18.1568 21.5984 17.9977 21.5984C17.8385 21.5984 17.6859 21.5352 17.5734 21.4227C17.4609 21.3102 17.3977 21.1576 17.3977 20.9984V5.76804C17.3977 4.55244 16.5709 3.59844 15.5977 3.59844H9.59766C8.62446 3.59844 7.79766 4.55244 7.79766 5.76804V20.9984Z" fill="black"/>
<path d="M10.1977 5.39844H11.3977C11.5568 5.39844 11.7094 5.46165 11.8219 5.57417C11.9344 5.6867 11.9977 5.83931 11.9977 5.99844V7.19844C11.9977 7.35757 11.9344 7.51018 11.8219 7.6227C11.7094 7.73522 11.5568 7.79844 11.3977 7.79844H10.1977C10.0385 7.79844 9.88591 7.73522 9.77339 7.6227C9.66087 7.51018 9.59766 7.35757 9.59766 7.19844V5.99844C9.59766 5.83931 9.66087 5.6867 9.77339 5.57417C9.88591 5.46165 10.0385 5.39844 10.1977 5.39844ZM13.7977 5.39844H14.9977C15.1568 5.39844 15.3094 5.46165 15.4219 5.57417C15.5344 5.6867 15.5977 5.83931 15.5977 5.99844V7.19844C15.5977 7.35757 15.5344 7.51018 15.4219 7.6227C15.3094 7.73522 15.1568 7.79844 14.9977 7.79844H13.7977C13.6385 7.79844 13.4859 7.73522 13.3734 7.6227C13.2609 7.51018 13.1977 7.35757 13.1977 7.19844V5.99844C13.1977 5.83931 13.2609 5.6867 13.3734 5.57417C13.4859 5.46165 13.6385 5.39844 13.7977 5.39844ZM13.7977 8.99844H14.9977C15.1568 8.99844 15.3094 9.06165 15.4219 9.17417C15.5344 9.2867 15.5977 9.43931 15.5977 9.59844V10.7984C15.5977 10.9576 15.5344 11.1102 15.4219 11.2227C15.3094 11.3352 15.1568 11.3984 14.9977 11.3984H13.7977C13.6385 11.3984 13.4859 11.3352 13.3734 11.2227C13.2609 11.1102 13.1977 10.9576 13.1977 10.7984V9.59844C13.1977 9.43931 13.2609 9.2867 13.3734 9.17417C13.4859 9.06165 13.6385 8.99844 13.7977 8.99844ZM13.7977 12.5984H14.9977C15.1568 12.5984 15.3094 12.6617 15.4219 12.7742C15.5344 12.8867 15.5977 13.0393 15.5977 13.1984V14.3984C15.5977 14.5576 15.5344 14.7102 15.4219 14.8227C15.3094 14.9352 15.1568 14.9984 14.9977 14.9984H13.7977C13.6385 14.9984 13.4859 14.9352 13.3734 14.8227C13.2609 14.7102 13.1977 14.5576 13.1977 14.3984V13.1984C13.1977 13.0393 13.2609 12.8867 13.3734 12.7742C13.4859 12.6617 13.6385 12.5984 13.7977 12.5984ZM13.7977 16.1984H14.9977C15.1568 16.1984 15.3094 16.2617 15.4219 16.3742C15.5344 16.4867 15.5977 16.6393 15.5977 16.7984V17.9984C15.5977 18.1576 15.5344 18.3102 15.4219 18.4227C15.3094 18.5352 15.1568 18.5984 14.9977 18.5984H13.7977C13.6385 18.5984 13.4859 18.5352 13.3734 18.4227C13.2609 18.3102 13.1977 18.1576 13.1977 17.9984V16.7984C13.1977 16.6393 13.2609 16.4867 13.3734 16.3742C13.4859 16.2617 13.6385 16.1984 13.7977 16.1984ZM10.1977 8.99844H11.3977C11.5568 8.99844 11.7094 9.06165 11.8219 9.17417C11.9344 9.2867 11.9977 9.43931 11.9977 9.59844V10.7984C11.9977 10.9576 11.9344 11.1102 11.8219 11.2227C11.7094 11.3352 11.5568 11.3984 11.3977 11.3984H10.1977C10.0385 11.3984 9.88591 11.3352 9.77339 11.2227C9.66087 11.1102 9.59766 10.9576 9.59766 10.7984V9.59844C9.59766 9.43931 9.66087 9.2867 9.77339 9.17417C9.88591 9.06165 10.0385 8.99844 10.1977 8.99844ZM10.1977 16.1984H11.3977C11.5568 16.1984 11.7094 16.2617 11.8219 16.3742C11.9344 16.4867 11.9977 16.6393 11.9977 16.7984V17.9984C11.9977 18.1576 11.9344 18.3102 11.8219 18.4227C11.7094 18.5352 11.5568 18.5984 11.3977 18.5984H10.1977C10.0385 18.5984 9.88591 18.5352 9.77339 18.4227C9.66087 18.3102 9.59766 18.1576 9.59766 17.9984V16.7984C9.59766 16.6393 9.66087 16.4867 9.77339 16.3742C9.88591 16.2617 10.0385 16.1984 10.1977 16.1984ZM10.1977 12.5984H11.3977C11.5568 12.5984 11.7094 12.6617 11.8219 12.7742C11.9344 12.8867 11.9977 13.0393 11.9977 13.1984V14.3984C11.9977 14.5576 11.9344 14.7102 11.8219 14.8227C11.7094 14.9352 11.5568 14.9984 11.3977 14.9984H10.1977C10.0385 14.9984 9.88591 14.9352 9.77339 14.8227C9.66087 14.7102 9.59766 14.5576 9.59766 14.3984V13.1984C9.59766 13.0393 9.66087 12.8867 9.77339 12.7742C9.88591 12.6617 10.0385 12.5984 10.1977 12.5984Z" fill="black"/>
</svg>
