<svg width="1182" height="1048" viewBox="0 0 1182 1048" fill="none" xmlns="http://www.w3.org/2000/svg">
<path d="M1182 817.07L1034.24 817.675L886.5 817.902L591 818.306L295.5 817.902L147.763 817.675L0 817.07L147.763 816.44L295.5 816.213L591 815.809L886.5 816.213L1034.24 816.44L1182 817.07Z" fill="#263238"/>
<path d="M572.566 426.996C615.238 471.382 743.43 668.929 753.417 674.83C753.417 674.83 753.417 804.031 682.02 778.231C610.623 752.432 545.178 520.637 531.206 446.743C523.842 407.728 537.712 390.78 572.566 426.996Z" fill="#D3766A"/>
<path d="M561.698 579.726L692.538 564.847C692.538 564.847 611.381 457.184 569.441 418.749C525.71 378.7 504.273 384.324 524.549 460.185C544.927 536.5 561.698 579.726 561.698 579.726Z" fill="#A5ED9E"/>
<path d="M555.544 508.455C554.106 512.065 553.189 515.861 552.82 519.729C557.385 513.421 560.227 506.032 561.067 498.292C558.733 501.387 556.871 504.813 555.544 508.455ZM629.034 511.406C625.434 509.965 621.646 509.048 617.786 508.682C624.082 513.252 631.463 516.095 639.198 516.929C636.105 514.59 632.679 512.728 629.034 511.406ZM609.539 562.3C608 558.742 605.962 555.422 603.487 552.439C604.066 556.268 605.186 559.996 606.816 563.51C608.306 567.09 610.33 570.423 612.818 573.396C612.253 569.561 611.149 565.826 609.539 562.3ZM532.77 398.371C532.115 396.984 531.459 395.622 530.702 394.26C529.805 394.172 528.901 394.172 528.004 394.26C528.609 396.101 529.29 397.867 530.047 399.632C531.562 403.204 533.592 406.535 536.074 409.518C535.506 405.665 534.394 401.912 532.77 398.371ZM683.559 553.069L681.037 554.078C677.468 555.614 674.132 557.643 671.126 560.105C674.971 559.535 678.715 558.423 682.248 556.802C683.257 556.348 684.24 555.868 685.224 555.339L683.559 553.069ZM582.68 449.138C579.12 450.666 575.792 452.686 572.794 455.141C576.64 454.589 580.386 453.485 583.916 451.862C587.481 450.332 590.809 448.302 593.802 445.835C589.938 446.39 586.175 447.503 582.63 449.138H582.68ZM573.904 449.365C573.755 449.467 573.612 449.576 573.475 449.693H573.929C573.929 449.693 573.853 449.441 573.853 449.365H573.904Z" fill="white"/>
<path d="M567.979 556.197C571.031 555.49 574.234 555.213 577.336 554.784L586.97 553.448C593.451 552.54 599.958 551.733 606.465 550.926C619.478 549.412 632.491 547.824 645.53 546.537C649.111 546.184 652.718 545.831 656.299 545.554C659.88 545.276 663.865 545.276 667.648 544.999C667.875 544.999 667.875 545.327 667.648 545.352C664.445 545.831 661.267 546.563 658.064 547.067C654.861 547.571 651.457 548.025 648.153 548.429C641.671 549.261 635.139 550.018 628.633 550.749C615.821 552.136 602.984 553.599 590.122 554.734L579.379 555.642C575.621 555.97 571.813 556.524 568.03 556.499C568 556.488 567.975 556.47 567.955 556.446C567.935 556.422 567.922 556.393 567.916 556.363C567.911 556.332 567.914 556.3 567.925 556.271C567.936 556.242 567.955 556.216 567.979 556.197Z" fill="#263238"/>
<path opacity="0.1" d="M625.176 572.513L561.723 579.726C561.723 579.726 544.952 536.5 524.549 460.185C515.949 428.004 514.865 408.459 519.808 399.657L625.176 572.513Z" fill="black"/>
<path d="M597.99 848.822H398.98C397.341 842.416 395.752 836.212 394.163 829.907C392.348 822.77 390.557 815.809 388.842 809.025C388.464 807.512 388.06 805.998 387.682 804.51C386.371 799.315 385.084 794.271 383.823 789.379C383.067 786.377 382.31 783.427 381.579 780.501C380.847 777.576 380.066 774.6 379.334 771.75C379.132 770.993 378.956 770.237 378.754 769.505L378.149 766.983L377.392 764.033C377.115 762.999 376.863 761.99 376.611 760.981C376.106 759.064 375.627 757.173 375.173 755.332C374.467 752.608 373.786 749.935 373.13 747.337C372.853 746.202 372.55 745.067 372.273 743.958C371.794 742.142 371.34 740.377 370.911 738.636C370.608 737.476 370.331 736.341 370.053 735.232C368.876 730.658 367.784 726.371 366.775 722.37C366.497 721.31 366.245 720.276 365.968 719.268C365.539 717.527 365.11 715.863 364.707 714.224C364.421 713.215 364.169 712.231 363.95 711.273C363.067 707.843 362.26 704.716 361.58 701.967C361.378 701.236 361.201 700.529 361.025 699.848C360.571 698.033 360.142 696.418 359.789 694.981C359.638 694.401 359.511 693.846 359.36 693.342L358.957 691.753C358.957 691.4 358.78 691.047 358.704 690.744L358.351 689.382C358.351 689.164 358.301 688.962 358.2 688.777L357.746 686.986H551.459C551.459 686.986 557.84 708.978 568.054 744.437C570.122 751.65 572.366 759.569 574.762 767.715C581.546 791.371 589.465 818.961 597.99 848.822Z" fill="#37474F"/>
<path d="M431.565 848.822H426.521C419.157 818.339 412.02 787.798 405.109 757.198C403.428 749.75 401.747 742.302 400.065 734.853L399.611 732.76C399.603 732.688 399.621 732.615 399.662 732.554C399.703 732.494 399.765 732.451 399.836 732.432C399.906 732.414 399.981 732.421 400.047 732.454C400.112 732.486 400.163 732.541 400.191 732.609C400.191 732.836 400.318 733.063 400.393 733.29C402.629 741.293 404.857 749.304 407.076 757.324C415.601 787.739 423.764 818.238 431.565 848.822Z" fill="#263238"/>
<path d="M545.179 687.011L536.63 729.885L529.619 764.991L517.69 824.812L516.454 830.941L514.411 841.155L512.822 848.822H398.955C397.341 842.39 395.727 836.212 394.163 829.907C392.348 822.77 390.557 815.809 388.842 809.025C388.464 807.512 388.06 805.998 387.682 804.51C386.371 799.315 385.084 794.271 383.823 789.379C383.067 786.377 382.31 783.427 381.579 780.501C380.847 777.576 380.066 774.6 379.334 771.75C379.132 770.993 378.956 770.237 378.754 769.505L378.149 766.983L377.392 764.033C377.115 762.999 376.863 761.99 376.611 760.981C376.106 759.064 375.627 757.173 375.173 755.332C374.467 752.608 373.786 749.935 373.13 747.337C372.828 746.177 372.55 745.067 372.273 743.958C371.794 742.142 371.34 740.377 370.911 738.636C370.608 737.476 370.331 736.341 370.053 735.232C368.876 730.658 367.784 726.371 366.775 722.37C366.497 721.31 366.245 720.276 365.968 719.268C365.539 717.527 365.11 715.863 364.707 714.224C364.421 713.215 364.169 712.231 363.95 711.273C363.067 707.843 362.26 704.716 361.58 701.967C361.378 701.236 361.201 700.529 361.025 699.848C360.571 698.033 360.142 696.418 359.789 694.981C359.638 694.401 359.511 693.846 359.36 693.342L358.957 691.753C358.957 691.4 358.78 691.047 358.704 690.744L358.351 689.382C358.351 689.164 358.301 688.962 358.2 688.777L357.746 686.986L545.179 687.011Z" fill="#263238"/>
<path d="M545.204 686.936C545.204 687.995 544.397 699.545 542.531 717.199C542.001 722.243 541.37 727.993 540.639 734.046C539.504 743.604 538.117 754.222 536.352 765.293C533.376 784.738 529.492 805.948 524.448 826.678C522.657 834.244 520.69 841.533 518.597 848.771H268.543C271.494 810.664 274.192 776.188 276.336 749.027C279.337 710.793 281.38 686.86 281.38 686.86H508.206L545.204 686.936Z" fill="#37474F"/>
<path d="M544.673 709.911C544.396 718.864 544.017 727.792 543.437 736.694C542.832 746.354 541.949 755.988 540.688 765.621C540.688 765.975 540.688 766.328 540.562 766.681C539.385 775.709 538.032 784.713 536.502 793.691C535.064 802.064 533.98 811.093 530.298 818.911C528.898 821.909 526.908 824.594 524.447 826.805C522.194 828.866 519.436 830.293 516.452 830.941C515.964 831.063 515.466 831.148 514.964 831.193H514.535C514.627 831.245 514.702 831.323 514.752 831.417C514.801 831.511 514.822 831.617 514.813 831.722C514.813 834.724 514.813 837.775 514.46 840.751C514.46 840.877 514.46 841.003 514.46 841.129C514.157 843.651 513.678 846.3 513.199 848.872H508.911V848.721C509.668 845.896 510.299 843.046 511.005 840.196C511.711 837.347 512.72 834.446 513.401 831.496C513.438 831.385 513.509 831.288 513.602 831.218C510.881 831.349 508.185 830.643 505.876 829.196C503.568 827.748 501.758 825.629 500.69 823.123C499.614 819.287 499.544 815.24 500.488 811.37C501.27 806.326 502.026 801.131 502.808 796.011C504.271 786.604 506.163 777.298 507.852 767.942L508.609 763.68C511.963 744.639 515.469 725.598 519.68 706.733C519.832 705.952 520.008 705.17 520.185 704.388C520.361 703.606 521.143 704.01 521.093 704.514C520.967 705.775 520.84 707.036 520.689 708.322C519.949 715.569 519.109 722.781 518.167 729.961C516.957 738.409 516.124 746.908 514.939 755.357C514.535 758.232 514.132 761.107 513.703 763.982C511.761 777.878 509.744 791.724 507.373 805.62C506.263 812.051 502.329 823.576 511.509 825.569C513.63 826.039 515.848 825.763 517.789 824.787C521.876 822.324 524.932 818.462 526.389 813.917C528.659 806.348 530.304 798.605 531.307 790.766C532.82 782.359 534.165 773.877 535.342 765.319C536.855 754.71 538.435 744.109 540.083 733.517C540.907 728.12 541.748 722.723 542.605 717.326L543.816 709.76C543.841 709.23 544.673 709.381 544.673 709.911Z" fill="#263238"/>
<path d="M323.399 776.39C333.812 776.282 344.172 774.884 354.242 772.229C358.883 771.043 363.473 769.555 368.038 768.068C372.56 766.82 376.793 764.694 380.496 761.813C387.507 755.76 390.761 746.252 393.812 737.779C397.125 728.237 399.812 718.49 401.857 708.599C401.857 708.12 402.664 708.297 402.69 708.751C402.932 719.936 401.512 731.095 398.478 741.864C395.956 751.019 392.576 761.208 385.187 767.614C377.798 774.019 366.878 776.743 356.916 777.954C345.745 779.253 334.454 779.101 323.323 777.5C323.176 777.49 323.039 777.422 322.942 777.31C322.845 777.199 322.796 777.054 322.806 776.907C322.816 776.76 322.884 776.623 322.995 776.526C323.106 776.429 323.251 776.38 323.399 776.39Z" fill="#263238"/>
<path d="M306.02 708.902C305.465 722.891 304.877 736.896 304.255 750.918C302.825 783.553 301.253 816.187 299.538 848.821H294.848C297 816.12 299.261 783.435 301.632 750.767C302.657 736.795 303.717 722.832 304.809 708.877C304.813 708.716 304.88 708.564 304.996 708.453C305.112 708.342 305.267 708.281 305.427 708.284C305.588 708.288 305.74 708.355 305.852 708.471C305.963 708.586 306.023 708.742 306.02 708.902Z" fill="#263238"/>
<path d="M588.255 790.513L249.023 764.789C249.023 764.789 317.268 494.307 452.017 394.866C486.468 369.469 524.171 385.761 541.144 404.752C584.27 453.123 589.263 789.429 588.255 790.513Z" fill="#A5ED9E"/>
<path d="M467.704 407.173C466.281 410.778 465.364 414.564 464.981 418.421C467.303 415.341 469.171 411.944 470.529 408.333C471.952 404.728 472.869 400.942 473.253 397.085C470.94 400.171 469.072 403.567 467.704 407.173ZM430.883 553.095C429.433 556.699 428.524 560.498 428.185 564.368C432.728 558.051 435.56 550.666 436.407 542.931C434.091 546.039 432.231 549.461 430.883 553.095ZM309.677 615.665C308.242 619.275 307.325 623.071 306.953 626.938C311.518 620.63 314.36 613.242 315.2 605.501C312.904 608.621 311.046 612.041 309.677 615.665ZM407.505 707.843C406.041 711.435 405.122 715.227 404.781 719.091C409.324 712.774 412.156 705.389 413.003 697.654C410.69 700.769 408.838 704.2 407.505 707.843ZM555.545 508.405C554.107 512.015 553.19 515.81 552.821 519.678C557.385 513.37 560.228 505.982 561.068 498.242C558.729 501.353 556.868 504.795 555.545 508.456V508.405ZM495.169 691.879C493.702 695.472 492.775 699.262 492.42 703.127C494.738 700.049 496.599 696.651 497.943 693.039C499.378 689.437 500.295 685.65 500.667 681.791C498.356 684.87 496.504 688.268 495.169 691.879ZM372.928 501.545C371.49 505.146 370.573 508.934 370.205 512.793C374.776 506.491 377.611 499.099 378.426 491.357C376.104 494.465 374.251 497.898 372.928 501.545ZM508.459 453.123C504.863 451.671 501.074 450.753 497.211 450.4C500.295 452.704 503.692 454.555 507.299 455.898C510.902 457.356 514.701 458.274 518.573 458.621C515.484 456.31 512.078 454.459 508.459 453.123ZM546.894 574.708C543.296 573.261 539.508 572.344 535.646 571.984C538.723 574.299 542.121 576.151 545.734 577.482C549.331 578.937 553.12 579.863 556.982 580.231C553.901 577.943 550.503 576.116 546.894 574.809V574.708ZM557.209 720.024C553.608 718.586 549.821 717.669 545.961 717.3C549.037 719.623 552.435 721.484 556.049 722.824C559.652 724.256 563.438 725.173 567.297 725.547C564.204 723.278 560.809 721.453 557.209 720.125V720.024ZM315.73 708.07C312.13 706.629 308.342 705.712 304.482 705.346C310.778 709.916 318.159 712.759 325.894 713.593C322.782 711.309 319.36 709.483 315.73 708.171V708.07ZM403.016 614.757C399.416 613.311 395.628 612.385 391.768 612.008C394.849 614.328 398.246 616.197 401.855 617.556C405.461 618.98 409.246 619.896 413.104 620.28C410.017 617.993 406.62 616.159 403.016 614.833V614.757ZM532.771 398.296C532.418 397.539 532.065 396.808 531.687 396.076C530.451 395.143 529.165 394.235 527.778 393.353C528.402 395.467 529.16 397.539 530.048 399.557C531.562 403.129 533.593 406.46 536.075 409.443C535.5 405.615 534.388 401.888 532.771 398.371V398.296ZM433.632 476.729C432.112 473.16 430.081 469.83 427.605 466.843C428.817 474.536 432.036 481.773 436.936 487.826C436.381 483.986 435.268 480.247 433.632 476.729ZM521.17 775.155C519.649 771.591 517.628 768.262 515.168 765.268C515.726 769.105 516.83 772.842 518.446 776.365C519.884 779.682 521.74 782.801 523.97 785.646H524.373C523.791 782.019 522.714 778.488 521.17 775.155ZM488.965 599.398C487.43 595.836 485.401 592.507 482.937 589.512C484.19 597.188 487.395 604.413 492.243 610.495C491.685 606.658 490.581 602.922 488.965 599.398ZM257.901 733.416C257.75 733.946 257.598 734.475 257.422 734.98C257.75 735.333 258.052 735.711 258.355 736.064C258.254 735.198 258.102 734.339 257.901 733.492V733.416ZM358.78 666.13C357.249 662.573 355.22 659.253 352.753 656.269C353.972 663.952 357.19 671.179 362.084 677.226C361.483 673.412 360.345 669.701 358.704 666.205L358.78 666.13ZM380.419 763.226C378.888 759.661 376.859 756.332 374.391 753.34C375.64 761.029 378.854 768.266 383.722 774.348C383.129 770.531 381.991 766.82 380.343 763.327L380.419 763.226ZM550.072 646.408C546.511 647.944 543.183 649.973 540.186 652.435C544.023 651.869 547.76 650.756 551.283 649.131C554.859 647.61 558.198 645.58 561.194 643.104C557.317 643.681 553.545 644.819 549.996 646.483L550.072 646.408ZM282.49 661.136L281.204 664.616C283.924 663.304 286.466 661.651 288.77 659.699C286.605 659.982 284.475 660.489 282.415 661.212L282.49 661.136ZM455.447 745.168C451.882 746.686 448.553 748.707 445.561 751.171C449.405 750.609 453.15 749.505 456.683 747.892C460.246 746.347 463.573 744.309 466.569 741.839C462.688 742.411 458.914 743.558 455.372 745.244L455.447 745.168ZM300.775 767.664L299.034 768.497L304.961 768.951C307.438 767.7 309.758 766.159 311.871 764.361C308.006 764.952 304.244 766.089 300.699 767.74L300.775 767.664ZM360.192 560.282C356.64 561.835 353.314 563.863 350.306 566.31C357.993 565.068 365.23 561.863 371.314 557.004C367.439 557.572 363.667 558.702 360.117 560.358L360.192 560.282ZM447.15 656.874C443.585 658.413 440.256 660.451 437.264 662.927C444.958 661.691 452.197 658.475 458.272 653.595C454.399 654.174 450.628 655.303 447.074 656.95L447.15 656.874ZM492.546 524.092C488.989 525.638 485.663 527.666 482.66 530.119C490.346 528.9 497.58 525.692 503.642 520.813C499.751 521.385 495.963 522.515 492.394 524.167L492.546 524.092Z" fill="white"/>
<path d="M521.926 461.269C502.355 458.369 482.482 418.875 479.052 391.94C478.825 390.074 509.316 331.892 514.082 319.761C515.066 317.239 583.058 368.587 583.058 368.587C583.058 368.587 565.405 391.083 557.158 412.343C556.578 414.109 540.84 464.044 521.926 461.269Z" fill="#D3766A"/>
<path d="M583.161 368.587C583.161 368.587 565.508 391.083 557.236 412.318C557.084 412.746 556.075 415.874 554.411 420.338C519.456 402.684 505.207 371.159 499.457 350.353C506.065 337.112 512.218 324.679 514.185 319.761C515.169 317.264 583.161 368.587 583.161 368.587Z" fill="#263238"/>
<path d="M529.796 225.263C509.897 248.289 489.999 331.337 501.373 356.86C517.892 393.832 561.901 416.051 597.511 392.42C632.138 369.495 656.147 260.798 641.847 235.881C620.814 199.161 559.152 191.267 529.796 225.263Z" fill="#D3766A"/>
<path d="M582.956 292.726C580.434 292.927 577.912 292.726 575.39 292.726C572.713 293.09 569.99 292.558 567.647 291.212C566.994 290.645 566.546 289.878 566.373 289.03C566.199 288.181 566.311 287.3 566.689 286.522C567.674 285.099 569.021 283.966 570.59 283.239C572.16 282.512 573.895 282.217 575.617 282.385C579.154 282.177 582.642 283.292 585.402 285.513C585.986 286.063 586.4 286.769 586.594 287.548C586.788 288.327 586.755 289.145 586.497 289.905C586.239 290.665 585.768 291.335 585.14 291.835C584.513 292.335 583.754 292.644 582.956 292.726Z" fill="#263238"/>
<path d="M580.737 304.907C580.737 304.68 580.233 305.083 580.183 305.335C579.249 311.01 577.207 317.365 571.734 318.223C571.557 318.223 571.507 318.525 571.734 318.551C578.115 318.904 580.737 310.455 580.737 304.907Z" fill="#263238"/>
<path d="M576.855 297.996C567.902 295.474 563.564 313.607 571.811 315.902C580.058 318.197 584.345 300.09 576.855 297.996Z" fill="#263238"/>
<path d="M613.27 311.892C613.27 311.691 613.649 312.271 613.598 312.498C612.085 318.046 611.278 324.679 615.893 327.63C616.045 327.63 615.893 328.008 615.767 327.932C609.79 325.713 610.95 316.936 613.27 311.892Z" fill="#263238"/>
<path d="M619.677 307.252C628.857 308.715 625.251 326.949 616.752 325.587C608.253 324.225 611.985 306.016 619.677 307.252Z" fill="#263238"/>
<path d="M628.983 298.274C626.665 297.197 624.409 295.993 622.224 294.668C619.661 293.721 617.486 291.946 616.045 289.624C615.729 288.812 615.692 287.919 615.938 287.084C616.185 286.248 616.701 285.519 617.407 285.009C620.509 282.991 624.09 283.924 627.268 285.488C630.508 286.963 633.087 289.587 634.506 292.852C634.804 293.62 634.871 294.458 634.698 295.263C634.524 296.069 634.119 296.805 633.531 297.383C632.943 297.96 632.199 298.352 631.39 298.51C630.582 298.669 629.745 298.587 628.983 298.274Z" fill="#263238"/>
<path d="M561.975 353.455C562.984 355.094 563.892 357.213 565.884 357.868C567.987 358.322 570.162 358.322 572.265 357.868C572.307 357.864 572.35 357.874 572.387 357.896C572.423 357.918 572.452 357.95 572.469 357.99C572.486 358.029 572.49 358.072 572.48 358.114C572.471 358.156 572.448 358.193 572.416 358.221C571.354 359.128 570.067 359.732 568.691 359.967C567.315 360.202 565.9 360.061 564.598 359.558C563.524 358.992 562.643 358.119 562.068 357.049C561.493 355.98 561.25 354.764 561.37 353.556C561.37 353.228 561.824 353.203 561.975 353.455Z" fill="#263238"/>
<path d="M571.861 338.096C572.761 340.65 574.177 342.992 576.021 344.974C577.865 346.957 580.098 348.539 582.58 349.622C584.737 350.595 587.021 351.257 589.364 351.589C589.803 351.687 590.251 351.738 590.701 351.74C591.129 351.767 591.558 351.767 591.987 351.74C592.299 351.759 592.608 351.672 592.864 351.494C593.12 351.315 593.309 351.055 593.399 350.756C593.411 350.555 593.411 350.353 593.399 350.151V349.647C594.534 345.359 595.694 338.701 595.694 338.701C597.081 339.862 604.244 345.41 604.672 343.115C608.027 324.2 611.734 303.167 611.078 283.621C611.078 283.481 611.022 283.346 610.923 283.247C610.824 283.148 610.689 283.092 610.549 283.092C610.408 283.092 610.273 283.148 610.174 283.247C610.075 283.346 610.019 283.481 610.019 283.621C606.085 301.679 605.353 320.316 601.671 338.525C599.205 336.498 596.462 334.834 593.525 333.582C592.869 333.582 591.533 346.494 590.852 348.361C590.858 348.428 590.858 348.495 590.852 348.562C583.286 347.755 578.444 344.25 572.568 337.718C572.189 337.289 571.634 337.566 571.861 338.096Z" fill="#263238"/>
<path d="M587.345 348.789C584.238 351.296 580.538 352.963 576.602 353.632C574.447 353.932 572.252 353.553 570.322 352.547C566.136 350.302 566.993 346.166 568.658 342.837C569.564 341.083 570.672 339.441 571.961 337.945C575.799 343.111 581.19 346.911 587.345 348.789Z" fill="#263238"/>
<path d="M576.602 353.631C574.447 353.932 572.252 353.552 570.322 352.547C566.136 350.302 566.993 346.166 568.658 342.837C573.349 344.477 577.308 348.89 576.602 353.631Z" fill="#FF97B8"/>
<path d="M649.463 268.212C614.156 282.991 578.445 242.109 578.445 242.109C574.398 248.314 568.456 253.046 561.503 255.6C554.551 258.153 546.959 258.393 539.858 256.283C539.858 256.283 522.911 307.403 509.09 304.327C488.082 299.837 496.48 227.053 505.988 214.393C515.496 201.733 534.159 201.783 534.159 201.783C534.159 201.783 537.715 191.165 552.796 183.927C569.441 175.908 615.845 201.052 615.845 201.052C620.058 195.011 625.629 190.044 632.112 186.55C633.677 185.671 635.405 185.118 637.19 184.926C638.974 184.733 640.78 184.905 642.496 185.431C644.213 185.957 645.805 186.826 647.176 187.985C648.547 189.144 649.668 190.569 650.472 192.174C647.027 195.488 644.38 199.541 642.73 204.028C637.055 218.857 649.589 221.454 652.389 207.508C653.605 202.332 652.925 196.892 650.472 192.174C658.542 184.356 669.261 183.499 674.381 189.652C683.787 200.926 678.844 255.955 649.463 268.212Z" fill="#263238"/>
<path d="M562.858 332.977C558.514 331.584 554.648 328.999 551.7 325.517C548.753 322.034 546.842 317.794 546.187 313.279C545.531 308.764 546.156 304.156 547.991 299.979C549.826 295.802 552.797 292.224 556.565 289.653C560.334 287.082 564.749 285.62 569.307 285.435C573.866 285.25 578.385 286.349 582.349 288.606C586.314 290.863 589.565 294.188 591.733 298.203C593.901 302.217 594.897 306.76 594.61 311.313C594.371 315.01 593.294 318.605 591.458 321.824C589.623 325.042 587.078 327.8 584.018 329.889C580.957 331.977 577.461 333.34 573.794 333.875C570.128 334.41 566.388 334.103 562.858 332.977ZM576.779 289.725C575.144 289.195 573.45 288.865 571.735 288.741C566.36 288.36 561.041 290.043 556.865 293.449C552.689 296.855 549.969 301.726 549.261 307.068C548.554 312.411 549.911 317.822 553.056 322.198C556.202 326.573 560.898 329.584 566.188 330.616C571.477 331.647 576.961 330.621 581.52 327.748C586.079 324.874 589.37 320.37 590.721 315.153C592.072 309.936 591.382 304.4 588.791 299.675C586.201 294.949 581.904 291.391 576.779 289.725Z" fill="#A5ED9E"/>
<path d="M616.599 343.165C607.873 339.887 603.333 328.034 606.511 315.651C607.865 309.726 611.05 304.379 615.615 300.367C617.459 298.508 619.754 297.16 622.275 296.454C624.797 295.747 627.458 295.707 630 296.338C632.541 296.968 634.876 298.247 636.775 300.049C638.674 301.852 640.073 304.117 640.835 306.622C642.972 312.312 643.281 318.528 641.717 324.402C638.489 337.415 627.973 346.066 618.263 343.645C617.695 343.535 617.138 343.375 616.599 343.165ZM630.242 299.913L629.057 299.56C627.02 299.149 624.913 299.234 622.916 299.809C620.918 300.384 619.089 301.432 617.582 302.864C613.554 306.439 610.741 311.183 609.537 316.432C606.738 327.731 610.899 338.525 618.894 340.492C626.888 342.459 635.614 334.893 638.414 323.62C639.817 318.416 639.553 312.903 637.657 307.858C637.048 306.087 636.073 304.465 634.795 303.096C633.518 301.728 631.967 300.643 630.242 299.913Z" fill="#A5ED9E"/>
<path d="M593.271 313.936L591.707 311.086C595.919 308.74 605.099 306.319 609.714 313.608L606.94 315.323C602.829 308.791 593.649 313.709 593.271 313.936Z" fill="#A5ED9E"/>
<path d="M485.635 299.056L483.113 297.038C484.072 295.853 492.571 285.437 499.91 285.69C506.795 285.942 548.811 298.299 550.601 298.93L549.668 302.057C537.613 298.476 505.13 289.119 499.809 288.943C494.916 288.766 487.93 296.181 485.635 299.056Z" fill="#A5ED9E"/>
<path d="M518.092 299.585C518.092 299.585 511.308 267.102 497.286 268.489C483.264 269.877 480.893 311.666 492.116 322.334C493.456 323.8 495.079 324.98 496.887 325.803C498.696 326.626 500.652 327.075 502.638 327.122C504.624 327.169 506.6 326.814 508.445 326.077C510.29 325.341 511.968 324.239 513.376 322.838L518.092 299.585Z" fill="#D3766A"/>
<path d="M496.909 280.494C496.707 280.368 496.53 280.646 496.682 280.822C504.424 288.59 505.609 299.359 505.231 309.8C503.92 305.159 500.944 301.628 494.891 302.965C494.588 302.965 494.664 303.495 494.891 303.57C496.758 303.743 498.525 304.494 499.945 305.72C501.365 306.945 502.366 308.583 502.81 310.405C503.549 313.446 503.964 316.557 504.046 319.686C504.046 320.72 505.811 320.922 505.912 319.686C505.9 319.602 505.9 319.517 505.912 319.434C511.309 307.782 509.191 287.152 496.909 280.494Z" fill="#263238"/>
<path d="M690.999 527.572C697.38 510.776 845.319 541.191 839.417 566.94C817.754 661.262 757.377 745.547 742.119 764.814C722.095 790.034 682.248 784.435 667.721 769.152C646.663 746.984 684.694 544.217 690.999 527.572Z" fill="#D3766A"/>
<path d="M680.581 573.876C677.293 582.915 674.688 592.188 672.788 601.617C670.644 610.949 668.778 620.33 667.265 629.763C664.274 648.843 662.589 668.105 662.221 687.415C661.944 698.209 662.221 708.978 662.221 719.772C662.221 720.024 662.624 719.999 662.624 719.772C662.624 710.214 663.205 700.58 663.986 691.047C664.768 681.514 665.727 671.804 666.962 662.246C669.358 643.457 672.006 624.693 675.411 606.056C676.352 600.827 677.336 595.615 678.362 590.42C679.446 585.023 680.682 579.651 681.388 574.178C681.388 573.775 680.757 573.422 680.581 573.876Z" fill="#263238"/>
<path d="M655.312 261.731C654.338 274.574 652.416 287.328 649.562 299.888C649.083 302.032 648.553 304.226 648.023 306.395C645.905 315.02 643.383 323.696 640.457 332.044C639.785 334.061 639.079 336.053 638.339 338.021C629.386 362.206 617.558 383.013 604.242 391.84C600.86 394.107 597.272 396.049 593.524 397.64C574.435 386.507 558.493 370.7 547.198 351.706C535.903 332.712 529.627 311.157 528.961 289.069L524.926 287.959C525.556 286.976 526.212 285.967 526.842 284.908C527.473 283.849 528.255 282.512 528.936 281.251C529.946 248.781 543.062 217.863 565.706 194.571C597.407 186.046 635.363 198.227 651.327 226.045C655.211 232.93 656.396 245.893 655.312 261.731Z" fill="#D3766A"/>
<path d="M588.86 286.244C586.18 286.383 583.495 286.383 580.815 286.244C577.713 286.244 575.241 286.471 572.593 284.63C571.88 284.027 571.392 283.2 571.209 282.284C571.026 281.368 571.158 280.417 571.584 279.586C573.526 276.156 577.309 275.274 581.042 275.198C584.787 274.976 588.481 276.153 591.407 278.502C592.056 279.077 592.522 279.829 592.748 280.666C592.974 281.502 592.95 282.387 592.679 283.21C592.408 284.034 591.902 284.76 591.224 285.299C590.545 285.838 589.723 286.167 588.86 286.244Z" fill="#263238"/>
<path d="M586.513 299.283C586.513 299.056 585.983 299.484 585.933 299.711C584.949 305.739 582.781 312.473 576.98 313.38C576.803 313.38 576.753 313.708 576.98 313.734C583.739 313.986 586.513 305.033 586.513 299.283Z" fill="#263238"/>
<path d="M582.404 291.843C572.921 289.195 568.331 308.362 577.107 310.808C585.884 313.254 590.348 294.062 582.404 291.843Z" fill="#263238"/>
<path d="M620.988 306.546C620.988 306.344 621.391 306.949 621.316 307.202C619.702 313.078 618.794 320.089 623.838 323.342C623.989 323.342 623.838 323.746 623.712 323.67C617.306 321.173 618.516 311.892 620.988 306.546Z" fill="#263238"/>
<path d="M627.774 301.628C637.483 303.192 633.65 322.51 624.647 321.073C615.643 319.635 619.628 300.317 627.774 301.628Z" fill="#263238"/>
<path d="M637.607 292.121C635.085 291.036 632.891 289.599 630.47 288.312C627.766 287.32 625.463 285.468 623.912 283.041C623.582 282.185 623.543 281.244 623.803 280.363C624.063 279.483 624.607 278.713 625.35 278.174C628.654 276.03 632.437 277.014 635.791 278.678C639.19 280.25 641.886 283.027 643.357 286.471C643.643 287.27 643.695 288.133 643.505 288.96C643.316 289.786 642.894 290.542 642.289 291.136C641.684 291.73 640.922 292.139 640.092 292.313C639.262 292.488 638.4 292.421 637.607 292.121Z" fill="#263238"/>
<path d="M566.642 350.58C567.727 352.295 568.685 354.539 570.803 355.246C573.021 355.737 575.319 355.737 577.537 355.246C577.581 355.244 577.625 355.256 577.663 355.279C577.701 355.302 577.731 355.336 577.75 355.377C577.769 355.417 577.776 355.462 577.769 355.506C577.763 355.55 577.743 355.591 577.714 355.624C576.587 356.588 575.221 357.228 573.76 357.476C572.299 357.725 570.798 357.573 569.416 357.036C568.283 356.433 567.355 355.507 566.749 354.376C566.143 353.244 565.886 351.958 566.012 350.681C565.986 350.328 566.466 350.328 566.642 350.58Z" fill="#263238"/>
<path d="M577.132 334.288C578.073 336.998 579.565 339.484 581.514 341.589C583.463 343.694 585.826 345.373 588.456 346.519C590.74 347.55 593.161 348.246 595.644 348.587C596.116 348.694 596.597 348.753 597.081 348.764C597.526 348.792 597.973 348.792 598.418 348.764C598.749 348.785 599.078 348.695 599.352 348.508C599.627 348.32 599.83 348.046 599.931 347.73C599.957 347.529 599.957 347.326 599.931 347.125V346.595C601.141 342.055 602.453 334.994 602.453 334.994C603.916 336.23 611.507 342.106 611.935 339.685C615.491 319.509 619.501 297.341 618.745 276.635C618.745 276.488 618.686 276.347 618.582 276.243C618.478 276.139 618.337 276.081 618.19 276.081C618.043 276.081 617.902 276.139 617.798 276.243C617.694 276.347 617.635 276.488 617.635 276.635C613.449 295.752 612.591 315.499 608.783 334.641C606.083 332.553 603.103 330.855 599.931 329.597C599.25 329.597 597.812 343.266 597.106 345.258C597.117 345.325 597.117 345.393 597.106 345.46C589.212 344.603 583.967 340.921 577.763 333.96C577.46 333.456 576.88 333.733 577.132 334.288Z" fill="#263238"/>
<path d="M593.525 345.637C590.231 348.269 586.314 350.007 582.151 350.681C579.873 351.008 577.55 350.601 575.518 349.521C571.054 347.15 571.988 342.762 573.753 339.256C574.704 337.394 575.873 335.65 577.233 334.061C581.288 339.561 586.997 343.618 593.525 345.637Z" fill="#263238"/>
<path d="M582.128 350.757C579.85 351.083 577.527 350.677 575.495 349.596C571.031 347.226 571.964 342.838 573.73 339.332C578.673 341.072 582.884 345.713 582.128 350.757Z" fill="#FF97B8"/>
<path d="M659.3 260.293C657.963 260.848 656.627 261.327 655.315 261.731C619.2 272.928 584.069 232.627 584.069 232.627C579.803 239.22 573.519 244.255 566.156 246.983C558.792 249.71 550.744 249.982 543.213 247.759C539.297 259.299 534.5 270.522 528.863 281.327C529.542 259.881 535.504 238.935 546.222 220.347C556.939 201.759 572.079 186.105 590.299 174.773C601.803 178.81 612.997 183.682 623.79 189.35C628.261 182.953 634.169 177.692 641.041 173.991C642.696 173.059 644.524 172.471 646.413 172.265C648.302 172.059 650.214 172.239 652.031 172.793C653.849 173.347 655.536 174.264 656.989 175.489C658.442 176.713 659.631 178.22 660.485 179.918C656.845 183.456 654.044 187.765 652.289 192.528C646.286 208.214 659.552 210.963 662.503 196.21C663.806 190.721 663.09 184.947 660.485 179.943C669.035 171.696 680.384 170.788 685.705 177.421C695.642 189.073 690.446 247.305 659.3 260.293Z" fill="#263238"/>
<path d="M591.937 284.504C587.739 281.006 582.536 278.939 577.082 278.603C575.441 278.496 573.794 278.555 572.164 278.779C568.077 279.308 564.176 280.809 560.788 283.156C557.4 285.504 554.625 288.63 552.695 292.272C552.137 293.29 551.665 294.353 551.283 295.449C550.407 297.779 549.888 300.228 549.744 302.713C549.392 308.436 550.953 314.113 554.18 318.852C557.408 323.591 562.12 327.123 567.575 328.891C569.622 329.534 571.738 329.932 573.879 330.076H575.494C581.676 330.088 587.658 327.883 592.354 323.862C597.051 319.842 600.151 314.271 601.092 308.16C601.092 307.429 601.268 306.697 601.319 305.941C601.369 305.184 601.319 304.831 601.319 304.302C601.31 300.514 600.465 296.776 598.843 293.353C597.221 289.93 594.863 286.909 591.937 284.504ZM574.081 326.621C568.659 326.274 563.549 323.963 559.707 320.121C555.866 316.279 553.556 311.168 553.209 305.746C552.863 300.324 554.504 294.961 557.826 290.661C561.148 286.362 565.923 283.42 571.257 282.386C573.108 282.027 574.999 281.908 576.881 282.033C578.732 282.153 580.561 282.501 582.328 283.067C584.58 283.79 586.7 284.872 588.608 286.269C592.528 289.108 595.419 293.143 596.846 297.767C598.273 302.392 598.158 307.355 596.519 311.908C594.879 316.461 591.805 320.359 587.758 323.012C583.711 325.666 578.911 326.933 574.081 326.621Z" fill="#A5ED9E"/>
<path d="M650.018 300.972L649.564 299.888C648.02 296.342 645.364 293.395 641.998 291.49C640.912 290.886 639.75 290.428 638.543 290.128C636.786 289.7 634.965 289.598 633.171 289.825C629.515 290.337 626.087 291.906 623.31 294.34C621.225 296.116 619.422 298.199 617.964 300.519C616.852 302.237 615.914 304.062 615.164 305.966C614.65 307.194 614.229 308.458 613.903 309.749C613.813 310.005 613.737 310.266 613.676 310.531C612.181 316.249 612.339 322.275 614.13 327.907C614.878 330.516 616.195 332.926 617.988 334.962C619.78 336.999 622.003 338.612 624.496 339.685C625.025 339.887 625.555 340.038 626.11 340.189C628.198 340.663 630.36 340.716 632.469 340.343C634.578 339.971 636.592 339.181 638.392 338.02C644.815 333.822 649.341 327.278 651.002 319.786C652.647 313.566 652.303 306.987 650.018 300.972ZM647.496 318.954C646.349 323.873 643.901 328.394 640.409 332.043C638.765 333.96 636.646 335.411 634.265 336.252C631.884 337.093 629.324 337.294 626.841 336.835C618.367 334.742 613.954 323.317 616.93 311.363C618.202 305.805 621.172 300.781 625.429 296.988C627.031 295.472 628.974 294.363 631.093 293.753C633.212 293.143 635.447 293.05 637.61 293.482C638.03 293.582 638.442 293.708 638.846 293.861C640.672 294.639 642.315 295.79 643.67 297.241C645.025 298.692 646.062 300.409 646.714 302.284C647.253 303.611 647.659 304.988 647.925 306.395C648.731 310.555 648.619 314.841 647.597 318.954H647.496Z" fill="#A5ED9E"/>
<path d="M599.78 308.715L598.141 305.689C602.605 303.167 612.339 300.645 617.207 308.463L614.281 310.279C609.918 303.268 600.209 308.488 599.78 308.715Z" fill="#A5ED9E"/>
<path d="M554.56 292.827L553.577 296.13L551.282 295.449C545.607 293.785 537.234 291.364 528.887 289.044L524.852 287.934C525.482 286.95 526.138 285.942 526.768 284.882L528.811 285.462C538.899 288.237 548.659 291.086 552.694 292.272L554.56 292.827Z" fill="#A5ED9E"/>
<g opacity="0.3">
<path d="M686.837 412.242C661.71 417.776 635.506 415.735 611.54 406.376C587.574 397.017 566.921 380.762 552.193 359.665C537.466 338.568 529.325 313.578 528.8 287.854C528.276 262.131 535.392 236.829 549.247 215.15C563.103 193.471 583.076 176.387 606.641 166.059C630.207 155.732 656.305 152.624 681.636 157.13C706.968 161.635 730.394 173.551 748.953 191.371C767.512 209.191 780.369 232.114 785.9 257.241C789.575 273.924 789.928 291.166 786.938 307.985C783.948 324.804 777.675 340.868 768.475 355.262C759.276 369.656 747.332 382.096 733.324 391.873C719.316 401.65 703.52 408.571 686.837 412.242Z" fill="white"/>
<path d="M544.773 347.654C561.252 377.734 588.936 400.094 621.809 409.874C654.682 419.654 690.087 416.064 720.328 399.884L544.773 347.654Z" fill="#EBEBEB"/>
<path d="M548.504 216.436L788.949 287.984C789.158 277.653 788.142 267.334 785.923 257.241C783.408 245.664 779.291 234.493 773.691 224.052L596.194 171.217C576.692 181.963 560.272 197.532 548.504 216.436Z" fill="#EBEBEB"/>
<path d="M529.742 300.393L758.763 368.486C764.22 361.932 769.026 354.863 773.113 347.377L529.238 274.794C528.535 283.322 528.704 291.899 529.742 300.393Z" fill="#EBEBEB"/>
<path d="M540.184 232.173L787.337 305.739C787.59 304.175 787.816 302.612 787.993 301.048L542.151 227.911C541.47 229.298 540.789 230.71 540.184 232.173Z" fill="#EBEBEB"/>
<path d="M637.355 156.943L747.061 189.577C744.212 186.929 741.21 184.533 738.108 182.011L649.007 155.53C645.101 155.801 641.213 156.272 637.355 156.943Z" fill="#EBEBEB"/>
</g>
<path d="M704.743 573.049L738.141 565.694L705.796 418.828L672.399 426.183L704.743 573.049Z" fill="#EBEBEB"/>
<path d="M800.126 254.114C793.975 226.183 779.68 200.702 759.048 180.895C738.416 161.087 712.374 147.843 684.215 142.836C656.055 137.829 627.044 141.285 600.849 152.766C574.653 164.247 552.451 183.238 537.049 207.338C521.647 231.437 513.737 259.563 514.319 288.158C514.901 316.753 523.95 344.533 540.321 367.985C556.691 391.437 579.649 409.509 606.29 419.914C632.931 430.319 662.059 432.59 689.991 426.441C727.441 418.182 760.08 395.391 780.732 363.077C801.384 330.762 808.36 291.57 800.126 254.114ZM686.839 412.242C661.712 417.781 635.508 415.744 611.539 406.389C587.57 397.035 566.914 380.782 552.183 359.687C537.451 338.591 529.307 313.601 528.779 287.877C528.251 262.153 535.364 236.85 549.217 215.168C563.071 193.486 583.043 176.4 606.608 166.07C630.173 155.74 656.272 152.63 681.604 157.133C706.937 161.637 730.365 173.552 748.925 191.371C767.486 209.19 780.345 232.113 785.877 257.241C789.552 273.922 789.906 291.163 786.918 307.98C783.93 324.797 777.658 340.861 768.462 355.255C759.265 369.648 747.323 382.089 733.318 391.867C719.313 401.645 703.52 408.568 686.839 412.242Z" fill="#455A64"/>
<path d="M718.538 676.394L769.053 665.272L740.404 535.062L689.863 546.184L718.538 676.394Z" fill="#263238"/>
<path d="M740.583 268.161C740.53 268.014 740.487 267.862 740.457 267.707C739.852 265.539 741.113 269.801 740.659 268.388C740.205 266.976 739.549 264.984 738.919 263.344C736.712 257.494 734.012 251.841 730.848 246.447C730.42 245.691 729.94 244.934 729.512 244.177C729.36 243.925 730.621 245.943 729.512 244.354L728.629 242.992C727.469 241.252 726.284 239.537 725.048 237.948C722.316 234.257 719.342 230.753 716.145 227.457L713.825 225.137C712.766 224.103 715.061 226.271 713.598 224.935L712.135 223.598C710.244 221.959 708.302 220.37 706.284 218.857C704.267 217.344 701.871 215.679 699.576 214.242C698.517 213.586 697.457 212.955 696.373 212.35C694.507 211.266 697.18 212.728 695.793 212.022L693.801 211.013C687.776 208.049 681.474 205.684 674.987 203.952H674.659L673.953 203.801L671.052 203.17C669.161 202.792 667.295 202.464 665.378 202.187C661.372 201.613 657.34 201.243 653.298 201.077C652.175 200.949 651.088 200.602 650.1 200.054C649.111 199.507 648.24 198.77 647.537 197.886C646.115 196.101 645.462 193.824 645.719 191.556C645.977 189.289 647.124 187.217 648.91 185.795C650.695 184.374 652.972 183.72 655.239 183.978C681.008 184.775 705.65 194.727 724.745 212.047C737.432 223.928 747.35 238.453 753.798 254.593C755.274 258.196 756.504 261.895 757.48 265.665C757.829 267.918 757.271 270.218 755.929 272.061C754.587 273.904 752.57 275.141 750.318 275.5C748.072 275.803 745.796 275.227 743.963 273.892C742.131 272.558 740.884 270.569 740.482 268.338L740.583 268.161Z" fill="white"/>
<path d="M744.111 293.507C744.367 295.166 745.109 296.711 746.244 297.947C747.379 299.183 748.855 300.054 750.486 300.45C752.116 300.846 753.828 300.749 755.403 300.171C756.978 299.594 758.347 298.561 759.335 297.205C760.323 295.849 760.886 294.23 760.953 292.553C761.02 290.876 760.587 289.218 759.71 287.787C758.833 286.356 757.551 285.218 756.027 284.517C754.502 283.816 752.804 283.583 751.147 283.848C748.936 284.202 746.955 285.416 745.636 287.226C744.318 289.036 743.769 291.294 744.111 293.507Z" fill="white"/>
<path d="M829.48 596.422C829.48 596.422 865.594 537.055 820.628 480.411C802.116 457.108 758.436 415.319 669.813 421.145C648.78 422.532 619.803 439.404 654.959 449.618C679.926 456.881 697.959 453.93 711.729 460.79C711.729 460.79 677.405 486.64 679.624 507.648C680.607 517.03 681.339 537.534 686.761 557.054C686.761 557.054 693.873 562.098 699.648 561.24C699.648 561.24 715.209 606.132 771.172 619.927L829.48 596.422Z" fill="#D3766A"/>
<path d="M801.64 472.795C787.164 467.02 756.245 455.318 727.62 454.511C695.818 453.628 634.307 460.513 633.929 483.993C633.626 501.218 657.333 500.638 657.333 500.638C657.333 500.638 632.516 508.834 635.669 524.445C638.519 538.669 656.828 537.055 656.828 537.055C656.828 537.055 642.629 544.621 648.026 557.786C654.508 573.624 683.183 555.264 703.51 565.553C708.201 567.974 801.64 472.795 801.64 472.795Z" fill="#D3766A"/>
<path d="M732.232 488.254C717.73 485.077 682.902 486.287 657.632 500.082C657.052 500.385 656.976 500.99 657.632 500.814C681.913 493.732 706.962 489.617 732.232 488.557C732.459 488.557 732.459 488.431 732.232 488.254Z" fill="#263238"/>
<path d="M730.466 520.334C717.655 518.871 681.817 521.721 656.698 536.575C656.118 536.903 656.093 537.509 656.698 537.307C680.595 528.978 705.36 523.386 730.517 520.636C730.557 520.63 730.593 520.607 730.616 520.574C730.64 520.541 730.65 520.5 730.643 520.46C730.636 520.42 730.614 520.384 730.581 520.36C730.548 520.337 730.506 520.327 730.466 520.334Z" fill="#263238"/>
<path d="M782.094 623.785C769.256 620.738 756.863 616.051 745.223 609.839C733.501 603.496 723.127 594.93 714.681 584.619C712.16 581.467 709.638 578.188 707.443 574.834C705.249 571.48 702.828 567.671 700.231 564.342C700.029 564.09 699.55 564.342 699.701 564.569C702.623 571.57 706.221 578.268 710.444 584.569C714.231 590.461 718.757 595.843 723.912 600.583C734.089 609.638 746.148 616.322 759.22 620.154C766.643 622.221 774.241 623.597 781.917 624.265C782.296 624.365 782.447 623.861 782.094 623.785Z" fill="#263238"/>
<path d="M413.959 433.805C348.993 521.04 240.574 748.396 224.635 781.838C213.815 804.536 332.424 864.306 337.443 847.813C343.899 826.678 449.948 547.697 464.803 445.986C472.923 390.225 436.43 403.617 413.959 433.805Z" fill="#D3766A"/>
<path d="M340.646 836.464C337.897 857.018 323.926 898.429 313.535 904.759C303.144 911.089 248.544 909.803 221.029 909.803C193.514 909.803 188.243 902.111 188.571 892.653C188.899 883.196 246.753 881.38 246.753 881.38C246.753 881.38 169.631 903.372 150.237 907.079C130.843 910.787 86.1787 921.959 79.6216 905.894C76.7213 898.631 88.9529 891.292 88.9529 891.292C88.9529 891.292 70.2146 896.764 67.2135 887.458C63.834 876.841 78.7389 871.015 78.7389 871.015C78.7389 871.015 67.0117 873.36 66.7343 864.71C66.2299 845.291 139.569 835.808 139.569 835.808C139.569 835.808 83.4298 863.146 81.5635 847.359C79.0416 825.544 194.145 801.61 206.124 792.102C214.84 784.836 222.993 776.92 230.511 768.421L340.646 836.464Z" fill="#D3766A"/>
<path d="M188.976 897.345C188.782 896.005 188.909 894.639 189.348 893.358C189.786 892.077 190.524 890.92 191.498 889.98C193.476 888.169 195.744 886.703 198.207 885.643C203.295 883.481 208.571 881.792 213.969 880.599C224.814 877.85 235.936 875.908 247.007 873.033C235.594 872.862 224.206 874.133 213.112 876.816C207.443 878.116 201.985 880.204 196.895 883.02C194.261 884.468 191.951 886.442 190.111 888.82C189.207 890.024 188.627 891.441 188.428 892.934C188.23 894.427 188.418 895.946 188.976 897.345Z" fill="#263238"/>
<path d="M89.1289 891.191C97.0731 889.249 104.891 887.029 112.684 884.76C120.477 882.49 128.245 880.119 136.012 877.774L159.24 870.51C166.982 867.988 174.725 865.668 182.543 863.323C174.427 864.216 166.38 865.657 158.458 867.635C150.489 869.451 142.67 871.721 134.878 874.092C127.085 876.462 119.367 879.136 111.751 881.96C104.135 884.785 96.4426 887.761 89.1289 891.191Z" fill="#263238"/>
<path d="M163.832 844.03C156.351 844.499 148.916 845.528 141.588 847.107C134.236 848.569 126.969 850.438 119.824 852.705C112.661 854.927 105.63 857.554 98.7652 860.574C91.8761 863.518 85.2091 866.957 78.8164 870.864C85.9032 868.342 92.8134 865.694 99.8497 863.298C106.886 860.902 113.897 858.531 120.984 856.362C128.071 854.193 135.157 852.05 142.295 849.956C149.432 847.863 156.594 846.047 163.832 844.03Z" fill="#263238"/>
<path d="M152.48 825.67C140.431 826.64 128.561 829.184 117.172 833.236C105.672 837.045 94.7252 842.353 84.6133 849.023C96.0126 844.963 107.109 840.676 118.433 836.893C129.757 833.11 140.979 829.377 152.48 825.67Z" fill="#263238"/>
<path d="M441.577 583.333L309.93 579.701C309.93 579.701 381.68 465.506 420.115 423.616C460.24 379.986 482.08 383.744 468.385 461.042C454.59 538.87 441.577 583.333 441.577 583.333Z" fill="#A5ED9E"/>
<path d="M360.117 560.358C356.564 561.911 353.238 563.938 350.23 566.385C357.918 565.144 365.154 561.938 371.239 557.079C367.393 557.631 363.647 558.735 360.117 560.358ZM433.632 476.729C432.112 473.16 430.081 469.83 427.605 466.843C428.817 474.536 432.036 481.773 436.936 487.826C436.381 483.986 435.268 480.247 433.632 476.729ZM372.928 501.545C371.49 505.146 370.573 508.934 370.205 512.793C374.776 506.491 377.611 499.099 378.426 491.357C376.104 494.465 374.251 497.898 372.928 501.545ZM430.934 553.095C429.484 556.699 428.574 560.498 428.235 564.368C432.778 558.051 435.611 550.666 436.457 542.931C434.124 546.036 432.247 549.458 430.883 553.095H430.934ZM469.52 403.163C468.889 404.475 468.309 405.811 467.755 407.173C466.331 410.778 465.415 414.564 465.031 418.421C467.353 415.341 469.221 411.944 470.579 408.333C470.705 408.005 470.806 407.703 470.907 407.375C470.547 405.933 470.066 404.524 469.47 403.163H469.52Z" fill="white"/>
<path d="M433.329 560.434C430.202 559.98 426.999 559.98 423.872 559.828L414.162 559.299C407.639 558.979 401.09 558.719 394.516 558.517C381.402 558.113 368.313 557.659 355.224 557.483C351.617 557.483 348.011 557.483 344.404 557.483C340.798 557.483 336.838 557.861 333.055 557.886C332.828 557.886 332.854 558.239 333.055 558.239C336.284 558.441 339.512 558.92 342.765 559.122C346.018 559.324 349.398 559.526 352.727 559.652C359.284 559.904 365.841 560.131 372.398 560.282C385.286 560.585 398.198 560.938 411.085 560.963H422.031C425.789 560.963 429.597 561.165 433.38 560.837C433.481 560.761 433.531 560.459 433.329 560.434Z" fill="#263238"/>
<path d="M467.096 497.712C467.096 497.46 466.793 497.308 466.667 497.561C464.225 502.058 462.134 506.738 460.412 511.558C460.866 509.263 461.396 506.968 461.825 504.647C463.262 497.233 464.574 489.768 466.036 482.353C466.021 482.309 465.992 482.27 465.953 482.243C465.915 482.215 465.869 482.201 465.822 482.201C465.775 482.201 465.729 482.215 465.69 482.243C465.652 482.27 465.623 482.309 465.608 482.353C462.203 495.114 458.243 507.749 455.217 520.611C452.191 533.474 449.139 546.336 446.314 559.248C444.776 566.385 443.389 575.288 441.825 582.4C438.017 582.854 433.125 582.4 429.014 582.93C428.661 582.93 428.761 583.56 429.014 583.56C433.351 583.686 438.522 584.67 443.086 584.392C443.666 584.392 454.713 538.517 459.303 516.551C462.127 510.297 464.75 504.042 467.096 497.712Z" fill="#263238"/>
<path d="M560.739 426.39C558.898 432.418 556.805 438.37 554.409 444.196C552.409 449.444 549.953 454.507 547.07 459.328C541.622 467.927 533.249 475.039 522.632 475.014C512.544 475.014 503.313 469.163 496.857 461.698C489.796 453.552 485.105 443.338 480.893 433.502C478.371 427.425 475.849 421.22 473.832 414.941C472.798 411.763 471.713 408.585 470.805 405.357C469.897 402.129 469.115 398.876 468.006 395.723C468.006 395.471 467.451 395.496 467.527 395.723C469.393 402.987 474.815 425.987 476.984 431.838C480.969 442.556 485.458 453.628 492.646 462.657C499.455 471.181 508.711 477.637 519.782 478.696C530.853 479.756 540.336 473.93 546.439 465.153C550.028 459.625 552.829 453.624 554.762 447.323C557.107 440.413 559.074 433.326 560.865 426.239C560.966 426.34 560.739 426.315 560.739 426.39Z" fill="#263238"/>
<path d="M86.0185 954.273H99.1932V1001.79C99.1932 1007 97.9621 1011.58 95.5 1015.53C93.0616 1019.48 89.6288 1022.57 85.2017 1024.8C80.7746 1027 75.6018 1028.1 69.6832 1028.1C63.741 1028.1 58.5563 1027 54.1293 1024.8C49.7022 1022.57 46.2694 1019.48 43.831 1015.53C41.3925 1011.58 40.1733 1007 40.1733 1001.79V954.273H53.348V1000.69C53.348 1003.72 54.0109 1006.42 55.3366 1008.78C56.6861 1011.15 58.58 1013.01 61.0185 1014.36C63.4569 1015.68 66.3452 1016.35 69.6832 1016.35C73.0213 1016.35 75.9096 1015.68 78.348 1014.36C80.8101 1013.01 82.7041 1011.15 84.0298 1008.78C85.3556 1006.42 86.0185 1003.72 86.0185 1000.69V954.273ZM112.945 1047.45V972.455H125.587V981.474H126.333C126.996 980.149 127.931 978.74 129.138 977.249C130.346 975.733 131.979 974.443 134.039 973.378C136.098 972.289 138.726 971.744 141.922 971.744C146.136 971.744 149.936 972.821 153.321 974.976C156.73 977.107 159.429 980.267 161.418 984.457C163.43 988.624 164.436 993.738 164.436 999.798C164.436 1005.79 163.454 1010.88 161.489 1015.07C159.524 1019.26 156.849 1022.45 153.463 1024.66C150.078 1026.86 146.243 1027.96 141.958 1027.96C138.833 1027.96 136.24 1027.44 134.181 1026.4C132.121 1025.35 130.464 1024.1 129.209 1022.63C127.978 1021.14 127.019 1019.73 126.333 1018.41H125.8V1047.45H112.945ZM125.551 999.727C125.551 1003.25 126.049 1006.34 127.043 1009C128.061 1011.65 129.517 1013.72 131.411 1015.21C133.328 1016.68 135.649 1017.41 138.371 1017.41C141.212 1017.41 143.591 1016.65 145.509 1015.14C147.426 1013.6 148.871 1011.51 149.841 1008.85C150.836 1006.18 151.333 1003.14 151.333 999.727C151.333 996.342 150.847 993.335 149.877 990.707C148.906 988.08 147.462 986.02 145.544 984.528C143.627 983.037 141.236 982.291 138.371 982.291C135.625 982.291 133.293 983.013 131.375 984.457C129.458 985.902 128.002 987.926 127.007 990.53C126.037 993.134 125.551 996.2 125.551 999.727ZM218.556 986.872L206.837 988.151C206.506 986.967 205.926 985.854 205.097 984.812C204.292 983.771 203.203 982.93 201.83 982.291C200.457 981.652 198.776 981.332 196.787 981.332C194.112 981.332 191.863 981.912 190.04 983.072C188.241 984.232 187.353 985.736 187.377 987.582C187.353 989.169 187.933 990.459 189.117 991.453C190.324 992.447 192.313 993.264 195.083 993.903L204.387 995.892C209.548 997.005 213.383 998.768 215.892 1001.18C218.426 1003.6 219.704 1006.76 219.728 1010.66C219.704 1014.1 218.698 1017.13 216.709 1019.76C214.744 1022.36 212.01 1024.4 208.506 1025.86C205.002 1027.33 200.978 1028.07 196.432 1028.07C189.756 1028.07 184.382 1026.67 180.31 1023.88C176.238 1021.06 173.811 1017.14 173.03 1012.12L185.566 1010.91C186.134 1013.38 187.341 1015.23 189.188 1016.49C191.034 1017.74 193.437 1018.37 196.397 1018.37C199.451 1018.37 201.901 1017.74 203.748 1016.49C205.618 1015.23 206.553 1013.68 206.553 1011.84C206.553 1010.27 205.949 1008.98 204.742 1007.97C203.558 1006.95 201.712 1006.17 199.202 1005.62L189.898 1003.67C184.666 1002.58 180.795 1000.75 178.286 998.165C175.776 995.561 174.533 992.27 174.557 988.293C174.533 984.931 175.445 982.019 177.292 979.557C179.162 977.071 181.754 975.153 185.069 973.804C188.407 972.431 192.254 971.744 196.61 971.744C203.002 971.744 208.033 973.106 211.702 975.828C215.395 978.551 217.68 982.232 218.556 986.872ZM246.059 954.273L244.887 1005.62H233.453L232.316 954.273H246.059ZM239.17 1027.78C237.016 1027.78 235.169 1027.02 233.63 1025.51C232.115 1023.99 231.358 1022.15 231.358 1019.97C231.358 1017.84 232.115 1016.02 233.63 1014.5C235.169 1012.98 237.016 1012.23 239.17 1012.23C241.277 1012.23 243.1 1012.98 244.639 1014.5C246.201 1016.02 246.983 1017.84 246.983 1019.97C246.983 1021.41 246.616 1022.73 245.882 1023.91C245.172 1025.09 244.225 1026.04 243.041 1026.75C241.881 1027.44 240.591 1027.78 239.17 1027.78ZM269.106 1027.78C266.952 1027.78 265.105 1027.02 263.566 1025.51C262.028 1023.99 261.27 1022.15 261.294 1019.97C261.27 1017.84 262.028 1016.02 263.566 1014.5C265.105 1012.98 266.952 1012.23 269.106 1012.23C271.19 1012.23 273.001 1012.98 274.539 1014.5C276.102 1016.02 276.895 1017.84 276.919 1019.97C276.895 1021.41 276.516 1022.73 275.782 1023.91C275.072 1025.09 274.125 1026.04 272.941 1026.75C271.781 1027.44 270.503 1027.78 269.106 1027.78ZM298.11 1027.78C295.956 1027.78 294.109 1027.02 292.57 1025.51C291.031 1023.99 290.274 1022.15 290.298 1019.97C290.274 1017.84 291.031 1016.02 292.57 1014.5C294.109 1012.98 295.956 1012.23 298.11 1012.23C300.193 1012.23 302.004 1012.98 303.543 1014.5C305.106 1016.02 305.899 1017.84 305.923 1019.97C305.899 1021.41 305.52 1022.73 304.786 1023.91C304.076 1025.09 303.129 1026.04 301.945 1026.75C300.785 1027.44 299.507 1027.78 298.11 1027.78ZM327.114 1027.78C324.96 1027.78 323.113 1027.02 321.574 1025.51C320.035 1023.99 319.278 1022.15 319.301 1019.97C319.278 1017.84 320.035 1016.02 321.574 1014.5C323.113 1012.98 324.96 1012.23 327.114 1012.23C329.197 1012.23 331.008 1012.98 332.547 1014.5C334.11 1016.02 334.903 1017.84 334.926 1019.97C334.903 1021.41 334.524 1022.73 333.79 1023.91C333.08 1025.09 332.133 1026.04 330.949 1026.75C329.789 1027.44 328.511 1027.78 327.114 1027.78ZM383.613 995.04V1027H370.757V972.455H383.044V981.723H383.684C384.938 978.669 386.939 976.242 389.685 974.443C392.455 972.644 395.876 971.744 399.948 971.744C403.712 971.744 406.991 972.549 409.784 974.159C412.602 975.769 414.78 978.101 416.319 981.155C417.881 984.209 418.65 987.914 418.627 992.27V1027H405.772V994.259C405.772 990.613 404.825 987.76 402.931 985.7C401.06 983.641 398.468 982.611 395.154 982.611C392.905 982.611 390.904 983.108 389.152 984.102C387.424 985.073 386.063 986.482 385.069 988.328C384.098 990.175 383.613 992.412 383.613 995.04ZM455.488 1028.07C450.161 1028.07 445.544 1026.89 441.638 1024.55C437.732 1022.21 434.702 1018.93 432.547 1014.71C430.417 1010.5 429.351 1005.57 429.351 999.94C429.351 994.306 430.417 989.37 432.547 985.132C434.702 980.894 437.732 977.604 441.638 975.26C445.544 972.916 450.161 971.744 455.488 971.744C460.814 971.744 465.431 972.916 469.337 975.26C473.243 977.604 476.262 980.894 478.392 985.132C480.547 989.37 481.624 994.306 481.624 999.94C481.624 1005.57 480.547 1010.5 478.392 1014.71C476.262 1018.93 473.243 1022.21 469.337 1024.55C465.431 1026.89 460.814 1028.07 455.488 1028.07ZM455.559 1017.77C458.447 1017.77 460.862 1016.97 462.803 1015.39C464.744 1013.78 466.188 1011.62 467.135 1008.92C468.106 1006.23 468.591 1003.22 468.591 999.905C468.591 996.567 468.106 993.548 467.135 990.849C466.188 988.127 464.744 985.961 462.803 984.351C460.862 982.741 458.447 981.936 455.559 981.936C452.599 981.936 450.137 982.741 448.172 984.351C446.231 985.961 444.775 988.127 443.804 990.849C442.857 993.548 442.384 996.567 442.384 999.905C442.384 1003.22 442.857 1006.23 443.804 1008.92C444.775 1011.62 446.231 1013.78 448.172 1015.39C450.137 1016.97 452.599 1017.77 455.559 1017.77ZM517.339 1027V972.455H529.804V981.545H530.372C531.366 978.397 533.071 975.97 535.486 974.266C537.924 972.537 540.706 971.673 543.831 971.673C544.541 971.673 545.334 971.709 546.21 971.78C547.11 971.827 547.856 971.91 548.447 972.028V983.854C547.903 983.664 547.039 983.499 545.855 983.357C544.695 983.191 543.571 983.108 542.482 983.108C540.138 983.108 538.031 983.617 536.161 984.635C534.314 985.629 532.858 987.014 531.793 988.79C530.727 990.565 530.195 992.613 530.195 994.933V1027H517.339ZM578.89 1028.07C573.421 1028.07 568.698 1026.93 564.721 1024.66C560.767 1022.36 557.725 1019.12 555.594 1014.93C553.463 1010.71 552.398 1005.75 552.398 1000.05C552.398 994.436 553.463 989.512 555.594 985.274C557.748 981.013 560.755 977.698 564.614 975.331C568.473 972.94 573.007 971.744 578.215 971.744C581.577 971.744 584.749 972.289 587.732 973.378C590.739 974.443 593.39 976.1 595.686 978.349C598.007 980.598 599.829 983.463 601.155 986.943C602.481 990.4 603.144 994.519 603.144 999.301V1003.24H558.435V994.578H590.821C590.798 992.116 590.265 989.926 589.223 988.009C588.182 986.067 586.726 984.54 584.855 983.428C583.009 982.315 580.855 981.759 578.392 981.759C575.765 981.759 573.456 982.398 571.468 983.676C569.479 984.931 567.928 986.588 566.816 988.648C565.727 990.684 565.17 992.921 565.147 995.359V1002.92C565.147 1006.1 565.727 1008.82 566.887 1011.09C568.047 1013.34 569.668 1015.07 571.752 1016.28C573.835 1017.46 576.274 1018.05 579.067 1018.05C580.937 1018.05 582.63 1017.79 584.145 1017.27C585.66 1016.73 586.974 1015.93 588.087 1014.89C589.2 1013.85 590.04 1012.56 590.608 1011.02L602.611 1012.37C601.854 1015.54 600.409 1018.31 598.279 1020.68C596.172 1023.02 593.473 1024.85 590.182 1026.15C586.891 1027.43 583.127 1028.07 578.89 1028.07ZM657.13 986.872L645.411 988.151C645.08 986.967 644.5 985.854 643.671 984.812C642.866 983.771 641.777 982.93 640.404 982.291C639.031 981.652 637.35 981.332 635.362 981.332C632.686 981.332 630.437 981.912 628.614 983.072C626.815 984.232 625.927 985.736 625.951 987.582C625.927 989.169 626.507 990.459 627.691 991.453C628.898 992.447 630.887 993.264 633.657 993.903L642.961 995.892C648.122 997.005 651.957 998.768 654.467 1001.18C657 1003.6 658.278 1006.76 658.302 1010.66C658.278 1014.1 657.272 1017.13 655.283 1019.76C653.318 1022.36 650.584 1024.4 647.08 1025.86C643.576 1027.33 639.552 1028.07 635.006 1028.07C628.33 1028.07 622.956 1026.67 618.884 1023.88C614.812 1021.06 612.386 1017.14 611.604 1012.12L624.14 1010.91C624.708 1013.38 625.915 1015.23 627.762 1016.49C629.609 1017.74 632.012 1018.37 634.971 1018.37C638.025 1018.37 640.475 1017.74 642.322 1016.49C644.192 1015.23 645.127 1013.68 645.127 1011.84C645.127 1010.27 644.523 1008.98 643.316 1007.97C642.132 1006.95 640.286 1006.17 637.776 1005.62L628.472 1003.67C623.24 1002.58 619.37 1000.75 616.86 998.165C614.351 995.561 613.108 992.27 613.131 988.293C613.108 984.931 614.019 982.019 615.866 979.557C617.736 977.071 620.328 975.153 623.643 973.804C626.981 972.431 630.828 971.744 635.184 971.744C641.576 971.744 646.607 973.106 650.276 975.828C653.969 978.551 656.254 982.232 657.13 986.872ZM703.668 1004.06V972.455H716.523V1027H704.058V1017.31H703.49C702.259 1020.36 700.235 1022.86 697.418 1024.8C694.624 1026.74 691.179 1027.71 687.084 1027.71C683.509 1027.71 680.348 1026.92 677.602 1025.33C674.88 1023.72 672.749 1021.39 671.21 1018.34C669.671 1015.26 668.902 1011.54 668.902 1007.18V972.455H681.757V1005.2C681.757 1008.65 682.704 1011.4 684.598 1013.43C686.492 1015.47 688.978 1016.49 692.055 1016.49C693.949 1016.49 695.784 1016.03 697.56 1015.1C699.335 1014.18 700.791 1012.81 701.928 1010.98C703.088 1009.14 703.668 1006.83 703.668 1004.06ZM742.597 954.273V1027H729.742V954.273H742.597ZM783.053 972.455V982.398H751.697V972.455H783.053ZM759.438 959.386H772.293V1010.59C772.293 1012.32 772.554 1013.65 773.075 1014.57C773.619 1015.47 774.329 1016.09 775.205 1016.42C776.081 1016.75 777.052 1016.91 778.117 1016.91C778.922 1016.91 779.656 1016.86 780.319 1016.74C781.005 1016.62 781.526 1016.51 781.881 1016.42L784.048 1026.47C783.361 1026.7 782.379 1026.96 781.1 1027.25C779.845 1027.53 778.307 1027.7 776.484 1027.75C773.264 1027.84 770.364 1027.36 767.783 1026.29C765.203 1025.2 763.155 1023.52 761.64 1021.25C760.148 1018.97 759.415 1016.13 759.438 1012.72V959.386ZM836.134 986.872L824.415 988.151C824.084 986.967 823.504 985.854 822.675 984.812C821.87 983.771 820.781 982.93 819.408 982.291C818.035 981.652 816.354 981.332 814.365 981.332C811.69 981.332 809.441 981.912 807.618 983.072C805.819 984.232 804.931 985.736 804.955 987.582C804.931 989.169 805.511 990.459 806.695 991.453C807.902 992.447 809.891 993.264 812.661 993.903L821.965 995.892C827.126 997.005 830.961 998.768 833.471 1001.18C836.004 1003.6 837.282 1006.76 837.306 1010.66C837.282 1014.1 836.276 1017.13 834.287 1019.76C832.322 1022.36 829.588 1024.4 826.084 1025.86C822.58 1027.33 818.556 1028.07 814.01 1028.07C807.334 1028.07 801.96 1026.67 797.888 1023.88C793.816 1021.06 791.39 1017.14 790.608 1012.12L803.144 1010.91C803.712 1013.38 804.919 1015.23 806.766 1016.49C808.613 1017.74 811.016 1018.37 813.975 1018.37C817.029 1018.37 819.479 1017.74 821.326 1016.49C823.196 1015.23 824.131 1013.68 824.131 1011.84C824.131 1010.27 823.527 1008.98 822.32 1007.97C821.136 1006.95 819.29 1006.17 816.78 1005.62L807.476 1003.67C802.244 1002.58 798.373 1000.75 795.864 998.165C793.355 995.561 792.112 992.27 792.135 988.293C792.112 984.931 793.023 982.019 794.87 979.557C796.74 977.071 799.332 975.153 802.647 973.804C805.985 972.431 809.832 971.744 814.188 971.744C820.58 971.744 825.611 973.106 829.28 975.828C832.973 978.551 835.258 982.232 836.134 986.872ZM900.338 972.455V982.398H868.094V972.455H900.338ZM876.155 1027V967.305C876.155 963.636 876.913 960.582 878.428 958.143C879.967 955.705 882.026 953.882 884.607 952.675C887.187 951.467 890.052 950.864 893.201 950.864C895.426 950.864 897.403 951.041 899.131 951.396C900.859 951.751 902.138 952.071 902.966 952.355L900.409 962.298C899.865 962.133 899.178 961.967 898.35 961.801C897.521 961.612 896.598 961.517 895.58 961.517C893.189 961.517 891.496 962.097 890.502 963.257C889.531 964.393 889.046 966.027 889.046 968.158V1027H876.155ZM932.148 1028.07C926.821 1028.07 922.205 1026.89 918.298 1024.55C914.392 1022.21 911.362 1018.93 909.207 1014.71C907.077 1010.5 906.011 1005.57 906.011 999.94C906.011 994.306 907.077 989.37 909.207 985.132C911.362 980.894 914.392 977.604 918.298 975.26C922.205 972.916 926.821 971.744 932.148 971.744C937.474 971.744 942.091 972.916 945.997 975.26C949.903 977.604 952.922 980.894 955.053 985.132C957.207 989.37 958.284 994.306 958.284 999.94C958.284 1005.57 957.207 1010.5 955.053 1014.71C952.922 1018.93 949.903 1022.21 945.997 1024.55C942.091 1026.89 937.474 1028.07 932.148 1028.07ZM932.219 1017.77C935.107 1017.77 937.522 1016.97 939.463 1015.39C941.404 1013.78 942.848 1011.62 943.795 1008.92C944.766 1006.23 945.251 1003.22 945.251 999.905C945.251 996.567 944.766 993.548 943.795 990.849C942.848 988.127 941.404 985.961 939.463 984.351C937.522 982.741 935.107 981.936 932.219 981.936C929.259 981.936 926.797 982.741 924.832 984.351C922.891 985.961 921.435 988.127 920.464 990.849C919.518 993.548 919.044 996.567 919.044 999.905C919.044 1003.22 919.518 1006.23 920.464 1008.92C921.435 1011.62 922.891 1013.78 924.832 1015.39C926.797 1016.97 929.259 1017.77 932.219 1017.77ZM1003.96 1004.06V972.455H1016.82V1027H1004.35V1017.31H1003.78C1002.55 1020.36 1000.53 1022.86 997.711 1024.8C994.917 1026.74 991.472 1027.71 987.377 1027.71C983.802 1027.71 980.641 1026.92 977.895 1025.33C975.173 1023.72 973.042 1021.39 971.503 1018.34C969.964 1015.26 969.195 1011.54 969.195 1007.18V972.455H982.05V1005.2C982.05 1008.65 982.997 1011.4 984.891 1013.43C986.785 1015.47 989.271 1016.49 992.348 1016.49C994.242 1016.49 996.077 1016.03 997.853 1015.1C999.628 1014.18 1001.08 1012.81 1002.22 1010.98C1003.38 1009.14 1003.96 1006.83 1003.96 1004.06ZM1042.89 995.04V1027H1030.03V972.455H1042.32V981.723H1042.96C1044.22 978.669 1046.22 976.242 1048.96 974.443C1051.73 972.644 1055.15 971.744 1059.23 971.744C1062.99 971.744 1066.27 972.549 1069.06 974.159C1071.88 975.769 1074.06 978.101 1075.6 981.155C1077.16 984.209 1077.93 987.914 1077.9 992.27V1027H1065.05V994.259C1065.05 990.613 1064.1 987.76 1062.21 985.7C1060.34 983.641 1057.75 982.611 1054.43 982.611C1052.18 982.611 1050.18 983.108 1048.43 984.102C1046.7 985.073 1045.34 986.482 1044.35 988.328C1043.38 990.175 1042.89 992.412 1042.89 995.04ZM1111.21 1027.96C1106.93 1027.96 1103.09 1026.86 1099.71 1024.66C1096.32 1022.45 1093.65 1019.26 1091.68 1015.07C1089.72 1010.88 1088.74 1005.79 1088.74 999.798C1088.74 993.738 1089.73 988.624 1091.72 984.457C1093.73 980.267 1096.44 977.107 1099.85 974.976C1103.26 972.821 1107.06 971.744 1111.25 971.744C1114.45 971.744 1117.07 972.289 1119.13 973.378C1121.19 974.443 1122.83 975.733 1124.03 977.249C1125.24 978.74 1126.18 980.149 1126.84 981.474H1127.37V954.273H1140.26V1027H1127.62V1018.41H1126.84C1126.18 1019.73 1125.22 1021.14 1123.96 1022.63C1122.71 1024.1 1121.05 1025.35 1118.99 1026.4C1116.93 1027.44 1114.34 1027.96 1111.21 1027.96ZM1114.8 1017.41C1117.52 1017.41 1119.84 1016.68 1121.76 1015.21C1123.68 1013.72 1125.13 1011.65 1126.13 1009C1127.12 1006.34 1127.62 1003.25 1127.62 999.727C1127.62 996.2 1127.12 993.134 1126.13 990.53C1125.16 987.926 1123.71 985.902 1121.8 984.457C1119.9 983.013 1117.57 982.291 1114.8 982.291C1111.94 982.291 1109.54 983.037 1107.63 984.528C1105.71 986.02 1104.27 988.08 1103.29 990.707C1102.32 993.335 1101.84 996.342 1101.84 999.727C1101.84 1003.14 1102.32 1006.18 1103.29 1008.85C1104.29 1011.51 1105.75 1013.6 1107.66 1015.14C1109.6 1016.65 1111.98 1017.41 1114.8 1017.41Z" fill="#807D7E"/>
</svg>
