<svg width="65" height="58" viewBox="0 0 65 58" fill="none" xmlns="http://www.w3.org/2000/svg">
<path d="M30.285 1.2972L0.341545 53.563C0.117491 53.9541 -0.000314777 54.3978 6.31684e-07 54.8494C0.000316041 55.301 0.118731 55.7445 0.34333 56.1353C0.56793 56.526 0.890782 56.8502 1.27933 57.0752C1.66787 57.3002 2.10838 57.4179 2.55648 57.4167H62.4435C62.8916 57.4179 63.3321 57.3002 63.7207 57.0752C64.1092 56.8502 64.432 56.526 64.6566 56.1353C64.8812 55.7445 64.9997 55.301 65 54.8494C65.0003 54.3978 64.8825 53.9541 64.6585 53.563L34.7149 1.2972C34.4922 0.903223 34.1699 0.575663 33.7809 0.347828C33.3919 0.119992 32.9499 0 32.5 0C32.05 0 31.6081 0.119992 31.2191 0.347828C30.8301 0.575663 30.5078 0.903223 30.285 1.2972Z" fill="#02513E"/>
<path d="M28.9754 46.1159C28.982 45.7177 29.0694 45.3249 29.2325 44.9612C29.3956 44.5975 29.6309 44.2705 29.9242 43.9999C30.2175 43.7293 30.5627 43.5208 30.939 43.3869C31.3152 43.253 31.7147 43.1966 32.1134 43.221C32.5024 43.2261 32.8865 43.3076 33.2438 43.4608C33.6011 43.6139 33.9245 43.8358 34.1957 44.1137C34.4669 44.3916 34.6805 44.7201 34.8243 45.0804C34.9681 45.4407 35.0393 45.8259 35.0338 46.2137C35.0283 46.6016 34.9463 46.9847 34.7924 47.3411C34.6384 47.6975 34.4157 48.0203 34.1367 48.2909C33.8578 48.5616 33.5282 48.7748 33.1667 48.9185C32.8052 49.0622 32.4189 49.1336 32.0299 49.1284C31.6288 49.1384 31.2298 49.0676 30.8568 48.9202C30.4839 48.7728 30.1447 48.5518 29.8595 48.2705C29.5743 47.9893 29.349 47.6535 29.1971 47.2833C29.0452 46.913 28.9698 46.516 28.9754 46.1159ZM29.5729 22.1511L35.2348 22.2285L34.0313 40.0588L30.2436 40.0092L29.5729 22.1511Z" fill="white"/>
</svg>
