<svg width="25" height="25" viewBox="0 0 25 25" fill="none" xmlns="http://www.w3.org/2000/svg">
<path d="M3.69609 3.47273C3.30949 3.47273 2.99609 3.78613 2.99609 4.17273C2.99609 4.55933 3.30949 4.87273 3.69609 4.87273V3.47273ZM5.46375 4.17273V4.87276L5.46982 4.87271L5.46375 4.17273ZM6.98703 5.49273L7.66876 5.33385C7.66603 5.32216 7.66301 5.31053 7.65968 5.29899L6.98703 5.49273ZM9.35884 15.6696L8.67711 15.8285C8.75096 16.1454 9.03345 16.3696 9.35884 16.3696V15.6696ZM18.4785 15.6696V16.3696C18.4868 16.3696 18.4951 16.3694 18.5033 16.3691L18.4785 15.6696ZM19.4806 14.8596L20.1597 15.0296C20.1619 15.0209 20.1639 15.0121 20.1657 15.0033L19.4806 14.8596ZM20.8174 8.48719L20.1345 8.33333L20.1324 8.34347L20.8174 8.48719ZM19.8153 7.20719L19.8315 6.50738C19.8261 6.50725 19.8207 6.50719 19.8153 6.50719V7.20719ZM7.49784 6.50719C7.11124 6.50719 6.79784 6.82059 6.79784 7.20719C6.79784 7.59379 7.11124 7.90719 7.49784 7.90719V6.50719ZM3.69609 4.87273L5.46375 4.87276V3.47273H3.69609V4.87273ZM5.46982 4.87271C5.68402 4.87085 5.83753 4.91804 6.01708 5.07379L6.93448 4.01626C6.47782 3.62011 5.9866 3.46817 5.45768 3.47276L5.46982 4.87271ZM6.01708 5.07379C6.01705 5.07376 6.01765 5.07428 6.01885 5.07544C6.02005 5.0766 6.02176 5.07832 6.02397 5.08066C6.02844 5.08542 6.03441 5.0922 6.04171 5.10135C6.05661 5.12004 6.0743 5.1451 6.09402 5.17705C6.13415 5.24205 6.17324 5.32011 6.20866 5.40151C6.24353 5.48165 6.27105 5.55625 6.28975 5.61071C6.29899 5.63761 6.30578 5.65876 6.30998 5.67218C6.31207 5.67887 6.3135 5.68359 6.31424 5.68606C6.31461 5.6873 6.31481 5.68798 6.31483 5.68806C6.3148 5.68795 6.31427 5.68619 6.31424 5.68606C6.31422 5.686 6.31425 5.68609 6.31424 5.68606C6.31421 5.68596 6.31437 5.68647 6.98703 5.49273C7.65968 5.29899 7.65971 5.2991 7.65968 5.29899C7.65967 5.29895 7.6597 5.29907 7.65968 5.29899C7.65963 5.29883 7.65945 5.29819 7.6594 5.29801C7.65929 5.29763 7.65917 5.29722 7.65904 5.29677C7.65877 5.29585 7.65846 5.29478 7.65809 5.29354C7.65737 5.29106 7.65644 5.28792 7.65531 5.28417C7.65307 5.27667 7.65002 5.26667 7.6462 5.25445C7.63857 5.23004 7.62776 5.19652 7.61388 5.1561C7.58636 5.07592 7.54563 4.96526 7.49239 4.84292C7.39866 4.6275 7.21992 4.26387 6.93448 4.01626L6.01708 5.07379ZM6.3053 5.65162L8.67711 15.8285L10.0406 15.5107L7.66876 5.33385L6.3053 5.65162ZM9.35884 16.3696H18.4785V14.9696H9.35884V16.3696ZM18.5033 16.3691C18.8872 16.3555 19.2564 16.2176 19.5552 15.9761L18.6752 14.8873C18.6125 14.938 18.5347 14.9671 18.4536 14.97L18.5033 16.3691ZM19.5552 15.9761C19.8541 15.7346 20.0663 15.4024 20.1597 15.0296L18.8016 14.6896C18.7822 14.7672 18.7379 14.8366 18.6752 14.8873L19.5552 15.9761ZM20.1657 15.0033L21.5025 8.63091L20.1324 8.34347L18.7955 14.7159L20.1657 15.0033ZM21.5003 8.64103C21.5573 8.38814 21.5573 8.12578 21.5004 7.8729L20.1346 8.18048C20.1459 8.23082 20.1458 8.283 20.1345 8.33333L21.5003 8.64103ZM21.5004 7.8729C21.4434 7.62002 21.3309 7.38301 21.1712 7.17895L20.0688 8.04201C20.1008 8.08285 20.1232 8.13015 20.1346 8.18048L21.5004 7.8729ZM21.1712 7.17895C21.0114 6.9749 20.8084 6.80888 20.5767 6.69278L19.9494 7.9444C19.9961 7.96779 20.0369 8.00115 20.0688 8.04201L21.1712 7.17895ZM20.5767 6.69278C20.345 6.57669 20.0905 6.51339 19.8315 6.50738L19.799 7.907C19.8514 7.90822 19.9028 7.92102 19.9494 7.9444L20.5767 6.69278ZM19.8153 6.50719H7.49784V7.90719H19.8153V6.50719Z" fill="#30363C"/>
<path d="M11.0681 21.0007C11.891 21.0007 12.5581 20.3369 12.5581 19.5179C12.5581 18.699 11.891 18.0352 11.0681 18.0352C10.2452 18.0352 9.57812 18.699 9.57812 19.5179C9.57812 20.3369 10.2452 21.0007 11.0681 21.0007Z" stroke="#30363C" stroke-width="1.4" stroke-linecap="round" stroke-linejoin="round"/>
<path d="M17.6853 21.0007C18.5082 21.0007 19.1753 20.3369 19.1753 19.5179C19.1753 18.699 18.5082 18.0352 17.6853 18.0352C16.8624 18.0352 16.1953 18.699 16.1953 19.5179C16.1953 20.3369 16.8624 21.0007 17.6853 21.0007Z" stroke="#30363C" stroke-width="1.4" stroke-linecap="round" stroke-linejoin="round"/>
</svg>
