<svg width="85" height="84" viewBox="0 0 85 84" fill="none" xmlns="http://www.w3.org/2000/svg">
<g clip-path="url(#clip0_390_11057)">
<g clip-path="url(#clip1_390_11057)">
<g clip-path="url(#clip2_390_11057)">
<path fill-rule="evenodd" clip-rule="evenodd" d="M42.3255 30.0117L51.6255 34.9343C51.6255 34.9343 52.2205 35.1803 53.3385 35.1803C54.1521 35.1803 54.0729 36.1649 54.0729 36.1649C54.0729 36.1649 53.5318 36.2165 53.0938 36.6572C52.3596 37.3953 51.3805 36.1649 51.3805 36.1649L44.7729 33.4577C42.9619 33.2486 41.5848 32.63 42.3255 30.0117Z" fill="#EF998B"/>
<path fill-rule="evenodd" clip-rule="evenodd" d="M52.8474 36.6583L54.3399 37.2844L54.8054 36.6583L53.385 35.9442C53.3514 35.9274 53.3169 35.9158 53.2796 35.9104C53.0468 35.8762 52.3581 35.9199 52.8474 36.6583Z" fill="#565A5B"/>
<path fill-rule="evenodd" clip-rule="evenodd" d="M37.3776 19.1836L36.2031 21.891L39.3555 23.2392L40.6082 20.1681L37.3776 19.1836Z" fill="#FEC5B5"/>
<path fill-rule="evenodd" clip-rule="evenodd" d="M48.1986 61.0206C48.1986 61.0206 47.0808 62.4972 47.8844 64.2203H51.3803C51.6131 64.4345 54.1995 62.8608 55.0133 61.0928C55.2959 59.544 52.604 61.7591 52.604 61.7591L50.4012 60.7746L48.1986 61.0206Z" fill="#929B9B"/>
<mask id="mask0_390_11057" style="mask-type:alpha" maskUnits="userSpaceOnUse" x="-1" y="10" width="95" height="67">
<path fill-rule="evenodd" clip-rule="evenodd" d="M-0.0078125 76.1154H93.0383V10.8477H-0.0078125V76.1154Z" fill="white"/>
</mask>
<g mask="url(#mask0_390_11057)">
<path fill-rule="evenodd" clip-rule="evenodd" d="M9.28125 39.8599H20.0496V36.168H9.28125V39.8599Z" fill="#DBB08D"/>
<path fill-rule="evenodd" clip-rule="evenodd" d="M8.02344 39.8599H19.7979V36.168H8.02344V39.8599Z" fill="#C19571"/>
<path fill-rule="evenodd" clip-rule="evenodd" d="M11.9766 50.4453L15.8291 53.1803C15.998 53.3001 16.2317 53.2562 16.3463 53.0832L16.4264 52.9622C16.5375 52.7946 16.4945 52.5686 16.3299 52.4538L13.5394 50.5109C13.4779 50.4681 13.405 50.4453 13.3303 50.4453H11.9766Z" fill="#565A5B"/>
<path fill-rule="evenodd" clip-rule="evenodd" d="M11.3972 56.5977H12.9534L10.751 60.7816H9.04544C8.81398 60.7816 8.67499 60.5229 8.8022 60.3286L11.1542 56.7297C11.2079 56.647 11.2992 56.5977 11.3972 56.5977Z" fill="#F76B6D"/>
<path fill-rule="evenodd" clip-rule="evenodd" d="M31.024 67.3407C31.024 72.1887 27.1161 76.1189 22.2952 76.1189C17.4744 76.1189 13.5664 72.1887 13.5664 67.3407C13.5664 62.4924 17.4744 58.5625 22.2952 58.5625C27.1161 58.5625 31.024 62.4924 31.024 67.3407Z" fill="#565A5B"/>
<path fill-rule="evenodd" clip-rule="evenodd" d="M75.8326 67.3407C75.8326 72.1887 71.9246 76.1189 67.1038 76.1189C62.2829 76.1189 58.375 72.1887 58.375 67.3407C58.375 62.4924 62.2829 58.5625 67.1038 58.5625C71.9246 58.5625 75.8326 62.4924 75.8326 67.3407Z" fill="#565A5B"/>
<path fill-rule="evenodd" clip-rule="evenodd" d="M28.4965 67.3362C28.4965 70.7815 25.7192 73.5747 22.2932 73.5747C18.8671 73.5747 16.0898 70.7815 16.0898 67.3362C16.0898 63.8905 18.8671 61.0977 22.2932 61.0977C25.7192 61.0977 28.4965 63.8905 28.4965 67.3362Z" fill="#929B9B"/>
<path fill-rule="evenodd" clip-rule="evenodd" d="M73.3051 67.3362C73.3051 70.7815 70.5278 73.5747 67.1017 73.5747C63.6757 73.5747 60.8984 70.7815 60.8984 67.3362C60.8984 63.8905 63.6757 61.0977 67.1017 61.0977C70.5278 61.0977 73.3051 63.8905 73.3051 67.3362Z" fill="#929B9B"/>
<path fill-rule="evenodd" clip-rule="evenodd" d="M60.4339 37.8907C60.4339 39.2502 59.3383 40.3519 57.9865 40.3519C56.6347 40.3519 55.5391 39.2502 55.5391 37.8907C55.5391 36.5314 56.6347 35.4297 57.9865 35.4297C59.3383 35.4297 60.4339 36.5314 60.4339 37.8907Z" fill="#BDECFF"/>
<path fill-rule="evenodd" clip-rule="evenodd" d="M42.0173 50.4456H23.782C22.9379 50.4456 22.2539 49.7574 22.2539 48.9087V48.783C22.2539 47.9343 22.9379 47.2461 23.782 47.2461H42.0173C42.8614 47.2461 43.5457 47.9343 43.5457 48.783V48.9087C43.5457 49.7574 42.8614 50.4456 42.0173 50.4456Z" fill="#FFC501"/>
<path fill-rule="evenodd" clip-rule="evenodd" d="M18.338 50.4434H41.3525C41.3525 50.4434 32.7773 54.1354 38.1614 62.5035C38.1614 62.5035 39.6301 64.2265 42.0775 64.2265H51.6221C51.6221 64.2265 56.7614 62.2574 57.0062 53.8891C57.0062 53.8891 57.9851 52.9045 53.0905 40.5983L54.0695 36.6604L54.8038 36.1679V34.9375H58.4747C58.4747 34.9375 58.7195 40.5983 58.4747 40.5983H56.0272C56.0272 40.5983 65.3272 53.1509 64.1035 56.1044C62.8798 59.0579 56.2721 66.6875 56.2721 66.6875H30.5747C30.5747 66.6875 25.1903 60.7805 25.1903 61.273C25.1903 61.765 14.667 65.211 14.667 65.211L10.996 64.7186L10.5063 63.488L9.52734 61.519C9.52734 61.519 14.4223 52.9045 18.338 50.4434Z" fill="#31CEA3"/>
<path fill-rule="evenodd" clip-rule="evenodd" d="M6.30078 49.9505H21.5213V38.875H6.30078V49.9505Z" fill="#DBB08D"/>
<path fill-rule="evenodd" clip-rule="evenodd" d="M21.1526 50.6916H5.73421C5.53145 50.6916 5.36719 50.5263 5.36719 50.3224C5.36719 50.1186 5.53145 49.9531 5.73421 49.9531H21.1526C21.3553 49.9531 21.5195 50.1186 21.5195 50.3224C21.5195 50.5263 21.3553 50.6916 21.1526 50.6916Z" fill="#565A5B"/>
<path fill-rule="evenodd" clip-rule="evenodd" d="M50.7274 39.4035L54.0802 37.2852C54.0802 37.2852 55.5359 37.6435 54.8018 38.8741L51.5834 40.8162C51.2405 41.023 50.7943 40.9653 50.528 40.6648C50.5214 40.6573 50.5151 40.6501 50.5088 40.6426C50.1854 40.2603 50.3048 39.6703 50.7274 39.4035Z" fill="#565A5B"/>
<path fill-rule="evenodd" clip-rule="evenodd" d="M54.0698 29.4006C54.0698 30.6921 53.5767 31.7386 52.9685 31.7386C52.3602 31.7386 51.8672 30.6921 51.8672 29.4006C51.8672 28.1091 52.3602 27.0625 52.9685 27.0625C53.5767 27.0625 54.0698 28.1091 54.0698 29.4006Z" fill="#BDECFF"/>
<path fill-rule="evenodd" clip-rule="evenodd" d="M11.2427 63.7346H8.71585C8.21902 63.7346 7.81641 63.3297 7.81641 62.8304V62.4237C7.81641 61.9244 8.21902 61.5195 8.71585 61.5195H11.2427V63.7346Z" fill="#565A5B"/>
<path fill-rule="evenodd" clip-rule="evenodd" d="M24.2999 67.3351C24.2999 68.4498 23.401 69.3537 22.2925 69.3537C21.1837 69.3537 20.2852 68.4498 20.2852 67.3351C20.2852 66.22 21.1837 65.3164 22.2925 65.3164C23.401 65.3164 24.2999 66.22 24.2999 67.3351Z" fill="#565A5B"/>
<path fill-rule="evenodd" clip-rule="evenodd" d="M74.2915 60.2028C74.8244 60.2579 75.1901 59.6567 74.8793 59.2178C72.9058 56.4317 69.6085 54.6602 65.9104 54.8318C60.5497 55.0808 56.2052 59.4969 56.0108 64.8902C55.9763 65.8542 56.0714 66.7905 56.2799 67.6826C56.4373 68.3555 57.208 68.6907 57.8065 68.3505C63.2725 65.2437 63.7109 59.1045 74.2915 60.2028Z" fill="#FFC501"/>
<path fill-rule="evenodd" clip-rule="evenodd" d="M69.1124 67.3351C69.1124 68.4498 68.2136 69.3537 67.1051 69.3537C65.9963 69.3537 65.0977 68.4498 65.0977 67.3351C65.0977 66.22 65.9963 65.3164 67.1051 65.3164C68.2136 65.3164 69.1124 66.22 69.1124 67.3351Z" fill="#565A5B"/>
<path fill-rule="evenodd" clip-rule="evenodd" d="M54.0206 29.7398C54.5246 29.5665 55.0505 29.8481 55.3438 30.2672C55.6576 30.7157 55.759 31.2747 55.8647 31.8015C55.9844 32.3979 56.1194 32.9907 56.2739 33.5787C56.354 33.884 56.4394 34.1879 56.5292 34.4904C56.5777 34.653 56.6225 35.0724 56.7968 35.1533C56.8693 35.1867 56.9396 35.1804 56.9999 35.127C57.0071 35.1206 57.0142 35.1143 57.0211 35.108C57.0643 35.07 57.0812 34.9982 57.0644 34.9442C57.0619 34.937 57.0599 34.9298 57.0577 34.9226C56.993 34.7166 56.6696 34.8047 56.7349 35.0121L56.7415 35.0337C56.7557 34.9791 56.7701 34.9245 56.7845 34.8699C56.7773 34.8764 56.7701 34.8827 56.7629 34.889C56.8307 34.8801 56.8985 34.8714 56.966 34.8624C57.0122 34.8839 56.9485 34.7181 56.9435 34.703C56.9177 34.6193 56.8925 34.5353 56.8672 34.4513C56.8169 34.2834 56.7682 34.1151 56.7208 33.9461C56.6263 33.6086 56.5378 33.2691 56.4551 32.9283C56.302 32.2953 56.2043 31.6464 56.0327 31.0185C55.7843 30.1109 55.0075 29.0453 53.9317 29.4152C53.7289 29.4848 53.8159 29.8103 54.0206 29.7398Z" fill="#232828"/>
<path fill-rule="evenodd" clip-rule="evenodd" d="M13.3531 44.6964C13.2156 44.5642 13.0166 44.5659 12.8807 44.6944C12.5993 44.9592 12.3239 45.2304 12.0488 45.4996C11.9681 45.5796 11.9362 45.6804 11.9618 45.7918C12.0189 46.0674 12.3471 46.1682 12.5611 45.9747C12.7325 45.817 12.8957 45.6552 13.0608 45.4912C13.1119 45.4407 13.1435 45.4303 13.2006 45.4869C13.4528 45.7393 13.7112 45.9873 13.9714 46.231C14.0289 46.2859 14.0225 46.3174 13.9651 46.368C13.798 46.5256 13.6305 46.6876 13.4654 46.8493C13.3574 46.9566 13.3362 47.089 13.3933 47.2257C13.4505 47.3646 13.5671 47.4295 13.688 47.436C13.8106 47.4382 13.8953 47.4108 13.9588 47.3455C14.2385 47.0787 14.5179 46.8136 14.791 46.5403C14.9226 46.4079 14.9226 46.2166 14.789 46.0861C14.3126 45.6174 13.8362 45.1567 13.3531 44.6964Z" fill="white"/>
<path fill-rule="evenodd" clip-rule="evenodd" d="M15.7523 45.1231C15.6612 45.0348 15.5722 44.9403 15.4748 44.856C15.409 44.7994 15.3944 44.7592 15.4516 44.6775C15.6526 44.385 15.7458 44.0529 15.7502 43.6977C15.7502 43.5463 15.7289 43.399 15.6971 43.2541C15.3393 41.8728 13.5834 41.37 12.5269 42.3499C12.2007 42.6525 11.8851 42.9658 11.5651 43.2751C11.2668 43.5651 10.9658 43.8534 10.6694 44.1433C10.5655 44.2444 10.5319 44.3662 10.5804 44.5048C10.6292 44.6437 10.7352 44.7151 10.8791 44.7342C11.004 44.7489 11.108 44.6964 11.1947 44.6079C11.7814 44.0401 12.3701 43.4727 12.9545 42.9049C13.2489 42.6169 13.5964 42.5011 14.005 42.5434C14.6362 42.6127 15.1147 43.216 15.028 43.8322C14.9878 44.1075 14.8692 44.3368 14.6678 44.5303C14.5176 44.6775 14.5007 44.8731 14.6362 45.0117C14.8416 45.226 15.0575 45.4345 15.2778 45.634C15.4177 45.7602 15.6379 45.7411 15.7671 45.6066C15.8984 45.466 15.894 45.2682 15.7523 45.1231Z" fill="white"/>
<path fill-rule="evenodd" clip-rule="evenodd" d="M26.8711 39.6679L37.6718 41.8241C37.6718 41.8241 38.2763 40.9346 38.6546 39.7242L41.7872 30.9402C41.7872 30.9402 43.0427 22.6071 36.6139 21.0054C36.1639 20.8933 35.696 21.1157 35.4994 21.5379L26.8711 39.6679Z" fill="#31CEA3"/>
<path fill-rule="evenodd" clip-rule="evenodd" d="M28.0076 39.8398C28.0076 39.8398 25.9961 44.7228 28.0601 47.1772L43.142 47.583L47.4812 61.7658L51.8205 61.2202L47.4812 45.9466C47.4812 45.9466 46.9388 43.2193 43.142 42.1282C37.989 40.7646 28.0076 39.8398 28.0076 39.8398Z" fill="#565A5B"/>
<path fill-rule="evenodd" clip-rule="evenodd" d="M46.6332 16.1038L45.5035 21.2293C45.455 21.3345 45.4073 21.4329 45.3668 21.5248C45.0156 22.2525 44.2451 22.6841 43.4456 22.6239C43.1906 22.6049 42.9454 22.539 42.7179 22.42L40.524 21.3044L35.5542 18.7922C35.1972 18.5952 34.9893 18.2132 35.0183 17.8213L35.1386 16.2C35.3172 13.788 37.3396 11.4149 39.6224 10.9612C40.1845 10.8538 40.7472 10.8212 41.2977 10.8694C42.4388 10.9685 43.5507 11.3985 44.463 12.119C45.7074 13.1021 46.49 14.5715 46.6332 16.1038Z" fill="#31CEA3"/>
<path fill-rule="evenodd" clip-rule="evenodd" d="M37.7551 17.624C37.0142 17.5686 36.4565 16.9173 36.5116 16.1722C36.5671 15.4271 37.2143 14.8663 37.9553 14.9217C38.6962 14.9772 39.2539 15.6284 39.1987 16.3735C39.1433 17.1186 38.4961 17.6795 37.7551 17.624Z" fill="#565A5B"/>
<path fill-rule="evenodd" clip-rule="evenodd" d="M46.634 16.1054L42.6589 15.3008L41.9432 15.8411L41.7617 18.291L42.3581 19.3546L45.5042 21.2312L45.7951 21.4091C45.8405 21.4328 45.8864 21.4498 45.9401 21.4538C46.0007 21.4585 46.0622 21.4495 46.1185 21.4198C46.2242 21.3597 46.2928 21.256 46.3012 21.1414L46.6547 16.3719C46.6478 16.283 46.6475 16.1949 46.634 16.1054Z" fill="#565A5B"/>
<path fill-rule="evenodd" clip-rule="evenodd" d="M42.6583 15.2948L42.3578 19.348L40.9541 18.5091C40.8766 18.4626 40.8062 18.4097 40.7435 18.3439C40.5494 18.1391 40.4423 17.8526 40.4636 17.5621L40.5764 16.0422C40.598 15.7516 40.7456 15.4909 40.9679 15.3176L40.9751 15.3112C41.2045 15.1313 41.5 15.0652 41.7863 15.1206L42.6583 15.2948Z" fill="#565A5B"/>
<path fill-rule="evenodd" clip-rule="evenodd" d="M42.6568 15.2947L42.3563 19.3479L40.9526 18.5089C40.8751 18.4624 40.8047 18.4096 40.7422 18.3437L40.9664 15.3175L40.9736 15.3111C41.2031 15.1312 41.4986 15.0653 41.7848 15.1205L42.6568 15.2947Z" fill="#565A5B"/>
<path fill-rule="evenodd" clip-rule="evenodd" d="M32.7654 65.2004C32.763 65.204 32.7608 65.2074 32.7585 65.2109C28.1645 65.195 23.5698 65.2082 18.9759 65.2082H10.9897C10.2812 65.2082 9.77951 64.5039 10.0164 63.8324C10.0202 63.8226 10.0228 63.8151 10.0245 63.8108C10.5118 62.6105 11.1126 61.4547 11.8013 60.3594C15.3465 54.7209 22.4711 49.7627 29.3589 51.6885C33.029 52.7153 35.6553 55.7259 35.099 59.6928C34.8198 61.6856 33.8699 63.522 32.7654 65.2004Z" fill="#FFC501"/>
<path fill-rule="evenodd" clip-rule="evenodd" d="M17.1133 58.5666H26.4133V57.8281H17.1133V58.5666Z" fill="#D6A10D"/>
<path fill-rule="evenodd" clip-rule="evenodd" d="M16.1367 60.5353H25.4367V59.7969H16.1367V60.5353Z" fill="#D6A10D"/>
<path fill-rule="evenodd" clip-rule="evenodd" d="M17.1133 62.258H26.4133V61.5195H17.1133V62.258Z" fill="#D6A10D"/>
<path fill-rule="evenodd" clip-rule="evenodd" d="M24.1158 53.1861C26.5554 53.0532 29.6811 53.0067 31.1624 55.3709C31.4139 55.7726 32.0504 55.4018 31.797 54.9977C30.1587 52.3827 26.8538 52.2978 24.1158 52.4468C23.6451 52.4723 23.6423 53.2118 24.1158 53.1861Z" fill="white"/>
<path fill-rule="evenodd" clip-rule="evenodd" d="M31.6798 56.8048C31.6927 56.8776 31.7049 56.9503 31.7157 57.0234C31.7184 57.0405 31.7209 57.0573 31.7232 57.0742C31.7178 57.0324 31.7178 57.0333 31.7235 57.0772C31.7275 57.1113 31.7319 57.145 31.7355 57.1788C31.7511 57.3201 31.7623 57.4618 31.7694 57.6039C31.7835 57.8935 31.779 58.1835 31.7577 58.4727C31.7436 58.6662 31.9371 58.851 32.1252 58.8426C32.3367 58.833 32.4777 58.68 32.4931 58.4727C32.5387 57.8485 32.4985 57.2242 32.3889 56.6082C32.355 56.4175 32.1135 56.2926 31.9366 56.35C31.7329 56.4163 31.6434 56.6004 31.6798 56.8048Z" fill="white"/>
<path fill-rule="evenodd" clip-rule="evenodd" d="M39.2178 31.6787C40.3188 31.0728 41.3883 30.4112 42.4224 29.6958C42.616 29.5614 42.4324 29.2412 42.237 29.3763C41.2027 30.0917 40.1334 30.7536 39.0322 31.3595C38.8246 31.4736 39.0099 31.793 39.2178 31.6787Z" fill="#249370"/>
<path fill-rule="evenodd" clip-rule="evenodd" d="M43.5534 46.362C43.2851 46.6872 43.0743 47.0467 42.9192 47.4391C42.8837 47.5293 42.9581 47.6463 43.0476 47.6667C43.1537 47.691 43.2357 47.6341 43.2737 47.5377C43.2825 47.5156 43.2912 47.494 43.3001 47.4724C43.2866 47.505 43.3139 47.4412 43.3161 47.4357C43.3352 47.3926 43.3553 47.3502 43.3757 47.308C43.4169 47.2237 43.4615 47.1411 43.5092 47.0602C43.5569 46.9794 43.6074 46.9005 43.6611 46.8237C43.7243 46.7337 43.7457 46.705 43.8132 46.6233C43.8747 46.549 43.8911 46.4338 43.8132 46.362C43.7454 46.2996 43.6191 46.2825 43.5534 46.362Z" fill="#838B8C"/>
<path fill-rule="evenodd" clip-rule="evenodd" d="M43.1546 47.68C43.4246 47.6389 43.6882 47.5341 43.9148 47.3805C43.9943 47.3265 44.0369 47.2153 43.9805 47.1276C43.9298 47.0481 43.8146 47.0037 43.7293 47.0614C43.6774 47.0964 43.624 47.1292 43.5685 47.1588C43.5392 47.1744 43.5094 47.1891 43.4789 47.2032C43.4674 47.2084 43.4215 47.2366 43.4657 47.2095C43.4539 47.2168 43.4378 47.221 43.4249 47.226C43.306 47.2719 43.1828 47.3046 43.057 47.3236C43.0145 47.3299 42.9677 47.373 42.947 47.4085C42.9241 47.4481 42.9143 47.5065 42.9284 47.5509C42.943 47.5957 42.9703 47.6386 43.0127 47.6616C43.0594 47.686 43.103 47.6878 43.1546 47.68Z" fill="#838B8C"/>
<path fill-rule="evenodd" clip-rule="evenodd" d="M42.945 47.5491C43.2222 48.5574 43.4989 49.5653 43.7761 50.5734C43.839 50.8025 44.194 50.7051 44.1306 50.4753C43.8537 49.467 43.5765 48.4589 43.2994 47.451C43.2366 47.222 42.8818 47.319 42.945 47.5491Z" fill="#838B8C"/>
<path fill-rule="evenodd" clip-rule="evenodd" d="M29.848 42.747C30.9628 42.6213 31.9745 42.0311 32.6344 41.1185C32.7737 40.9259 32.455 40.7409 32.3171 40.9319C31.741 41.7281 30.8215 42.2676 29.848 42.3773C29.7485 42.3885 29.6653 42.4541 29.6641 42.5621C29.6633 42.6534 29.7494 42.758 29.848 42.747Z" fill="#838B8C"/>
<path fill-rule="evenodd" clip-rule="evenodd" d="M37.2344 27.8927C37.2344 27.8927 37.8342 36.4064 39.7719 36.5943L41.5044 31.7369L38.5281 27.6758L37.2344 27.8927Z" fill="#269E79"/>
<path fill-rule="evenodd" clip-rule="evenodd" d="M38.5859 29.3069L40.8535 33.2129L50.2213 38.6399C50.7634 40.0039 52.1195 39.458 52.6619 40.2766C52.9141 40.4074 54.2891 39.731 54.2891 39.458L53.7466 38.3672L52.7915 38.0057L51.3059 37.8218L43.0561 31.2439L41.0533 27.125L38.5859 29.3069Z" fill="#FEC5B5"/>
<path fill-rule="evenodd" clip-rule="evenodd" d="M39.5344 22.5742L43.3018 29.5224L39.1413 31.7374L36.4492 27.0612L39.5344 22.5742Z" fill="#31CEA3"/>
<path fill-rule="evenodd" clip-rule="evenodd" d="M36.6445 27.0668C37.3756 28.6199 38.1072 30.1731 38.8383 31.7265C38.9394 31.9413 39.2565 31.754 39.1557 31.5399C38.4244 29.9865 37.6933 28.4334 36.9618 26.8802C36.8608 26.6654 36.5437 26.8527 36.6445 27.0668Z" fill="#249370"/>
</g>
</g>
</g>
</g>
<defs>
<clipPath id="clip0_390_11057">
<rect width="84" height="84" fill="white" transform="translate(0.660156)"/>
</clipPath>
<clipPath id="clip1_390_11057">
<rect width="84" height="84" fill="white" transform="translate(0.660156)"/>
</clipPath>
<clipPath id="clip2_390_11057">
<rect width="84" height="69" fill="white" transform="translate(0.660156 7.5)"/>
</clipPath>
</defs>
</svg>
