<svg width="84" height="84" viewBox="0 0 84 84" fill="none" xmlns="http://www.w3.org/2000/svg">
<g clip-path="url(#clip0_390_10953)">
<g clip-path="url(#clip1_390_10953)">
<g clip-path="url(#clip2_390_10953)">
<mask id="mask0_390_10953" style="mask-type:luminance" maskUnits="userSpaceOnUse" x="0" y="0" width="84" height="84">
<path d="M84 0H0V84H84V0Z" fill="white"/>
</mask>
<g mask="url(#mask0_390_10953)">
<mask id="mask1_390_10953" style="mask-type:alpha" maskUnits="userSpaceOnUse" x="6" y="16" width="66" height="13">
<path fill-rule="evenodd" clip-rule="evenodd" d="M6.89844 16.3359H71.801V28.7541H6.89844V16.3359Z" fill="white"/>
</mask>
<g mask="url(#mask1_390_10953)">
<path fill-rule="evenodd" clip-rule="evenodd" d="M65.6266 28.7541H13.0728C9.66283 28.7541 6.89844 25.9745 6.89844 22.545C6.89844 19.1159 9.66283 16.3359 13.0728 16.3359H65.6266C69.0365 16.3359 71.801 19.1159 71.801 22.545C71.801 25.9745 69.0365 28.7541 65.6266 28.7541Z" fill="#FFC501"/>
</g>
<path fill-rule="evenodd" clip-rule="evenodd" d="M31.0849 21.7859C31.0424 21.6539 30.926 21.5603 30.7882 21.5475L28.9178 21.377L28.178 19.6361C28.1236 19.5084 27.9994 19.4258 27.8614 19.4258C27.7235 19.4258 27.5995 19.5084 27.5449 19.6364L26.8051 21.377L24.9344 21.5475C24.7969 21.5606 24.6808 21.6539 24.638 21.7859C24.5954 21.9179 24.6349 22.0625 24.7388 22.1538L26.1526 23.4008L25.7359 25.2476C25.7054 25.3833 25.7578 25.5237 25.8697 25.6052C25.93 25.6488 26.0003 25.6713 26.0713 25.6713C26.1328 25.6713 26.1934 25.6545 26.248 25.6218L27.8614 24.6521L29.4743 25.6218C29.5924 25.6932 29.7412 25.6866 29.8529 25.6052C29.9651 25.5234 30.0175 25.383 29.987 25.2476L29.57 23.4008L30.9838 22.154C31.0877 22.0625 31.1275 21.9182 31.0849 21.7859Z" fill="white"/>
<path fill-rule="evenodd" clip-rule="evenodd" d="M19.6005 21.7859C19.558 21.6539 19.4416 21.5603 19.3038 21.5475L17.4334 21.377L16.6936 19.6361C16.639 19.5084 16.515 19.4258 16.3768 19.4258C16.2391 19.4258 16.1149 19.5084 16.0605 19.6364L15.3207 21.377L13.45 21.5475C13.3124 21.5606 13.1964 21.6539 13.1536 21.7859C13.1111 21.9179 13.1504 22.0625 13.2544 22.1538L14.6682 23.4008L14.2515 25.2476C14.221 25.3833 14.2733 25.5237 14.3853 25.6052C14.4456 25.6488 14.516 25.6713 14.5869 25.6713C14.6483 25.6713 14.7089 25.6545 14.7635 25.6218L16.3768 24.6521L17.9899 25.6218C18.108 25.6932 18.2568 25.6866 18.3685 25.6052C18.4807 25.5234 18.5331 25.383 18.5026 25.2476L18.0856 23.4008L19.4994 22.154C19.6033 22.0625 19.6429 21.9182 19.6005 21.7859Z" fill="white"/>
<path fill-rule="evenodd" clip-rule="evenodd" d="M42.5731 21.7859C42.5306 21.6539 42.4142 21.5603 42.2764 21.5475L40.406 21.377L39.6662 19.6361C39.6118 19.5084 39.4876 19.4258 39.3496 19.4258C39.2117 19.4258 39.0877 19.5084 39.0331 19.6364L38.2933 21.377L36.4226 21.5475C36.2851 21.5606 36.169 21.6539 36.1262 21.7859C36.0838 21.9179 36.1231 22.0625 36.227 22.1538L37.6408 23.4008L37.2241 25.2476C37.1936 25.3833 37.246 25.5237 37.3579 25.6052C37.4182 25.6488 37.4885 25.6713 37.5595 25.6713C37.621 25.6713 37.6816 25.6545 37.7362 25.6218L39.3496 24.6521L40.9625 25.6218C41.0806 25.6932 41.2294 25.6866 41.3411 25.6052C41.4533 25.5234 41.5057 25.383 41.4752 25.2476L41.0582 23.4008L42.472 22.154C42.5759 22.0625 42.6157 21.9182 42.5731 21.7859Z" fill="white"/>
<path fill-rule="evenodd" clip-rule="evenodd" d="M54.0613 21.7859C54.0189 21.6539 53.9025 21.5603 53.7646 21.5475L51.8943 21.377L51.1545 19.6361C51.0999 19.5084 50.9758 19.4258 50.8377 19.4258C50.6998 19.4258 50.5758 19.5084 50.5213 19.6364L49.7816 21.377L47.9109 21.5475C47.7733 21.5606 47.6573 21.6539 47.6145 21.7859C47.5721 21.9179 47.6114 22.0625 47.7153 22.1538L49.129 23.4008L48.7124 25.2476C48.6819 25.3833 48.7343 25.5237 48.8462 25.6052C48.9065 25.6488 48.9768 25.6713 49.0478 25.6713C49.1093 25.6713 49.1699 25.6545 49.2245 25.6218L50.8377 24.6521L52.4508 25.6218C52.5688 25.6932 52.7176 25.6866 52.8294 25.6052C52.9416 25.5234 52.994 25.383 52.9635 25.2476L52.5465 23.4008L53.9603 22.154C54.0642 22.0625 54.1038 21.9182 54.0613 21.7859Z" fill="white"/>
<path fill-rule="evenodd" clip-rule="evenodd" d="M65.5496 21.7859C65.5072 21.6539 65.3909 21.5603 65.2531 21.5475L63.3826 21.377L62.6428 19.6361C62.5883 19.5084 62.4643 19.4258 62.3261 19.4258C62.1883 19.4258 62.0642 19.5084 62.0096 19.6364L61.2698 21.377L59.3992 21.5475C59.2616 21.5606 59.1455 21.6539 59.1028 21.7859C59.0603 21.9179 59.0996 22.0625 59.2036 22.1538L60.6173 23.4008L60.2006 25.2476C60.1702 25.3833 60.2225 25.5237 60.3344 25.6052C60.3947 25.6488 60.4652 25.6713 60.536 25.6713C60.5975 25.6713 60.6581 25.6545 60.7127 25.6218L62.3261 24.6521L63.9392 25.6218C64.0573 25.6932 64.2059 25.6866 64.3177 25.6052C64.43 25.5234 64.4822 25.383 64.4518 25.2476L64.0348 23.4008L65.4485 22.154C65.5526 22.0625 65.5922 21.9182 65.5496 21.7859Z" fill="white"/>
<path fill-rule="evenodd" clip-rule="evenodd" d="M52.4808 76.7199C52.8363 73.4542 51.8378 62.6578 53.2737 55.438C54.7097 48.2181 61.3833 50.4396 61.3833 50.4396C67.9886 48.7068 68.5674 65.6001 67.9886 75.8535L52.4808 76.7199Z" fill="#565A5B"/>
<mask id="mask2_390_10953" style="mask-type:alpha" maskUnits="userSpaceOnUse" x="-4" y="16" width="94" height="69">
<path fill-rule="evenodd" clip-rule="evenodd" d="M-3.5 84.5802H89.6772V16.3359H-3.5V84.5802Z" fill="white"/>
</mask>
<g mask="url(#mask2_390_10953)">
<path fill-rule="evenodd" clip-rule="evenodd" d="M58.2227 70.3078H61.6688V65.1094H58.2227V70.3078Z" fill="#FEC5B5"/>
<path fill-rule="evenodd" clip-rule="evenodd" d="M58.2227 67.4753C59.3714 68.1724 60.5201 68.1724 61.6688 67.4753V65.1094H58.2227V67.4753Z" fill="#EF998B"/>
<path fill-rule="evenodd" clip-rule="evenodd" d="M72.3446 84.3754H46.4497C46.4095 83.3416 46.4123 81.7849 46.6277 80.185V80.1763C46.8431 78.5966 47.2654 76.9736 48.0694 75.7721C48.3508 75.3476 48.6811 74.9752 49.0688 74.6747C49.0802 74.6632 49.0946 74.6546 49.109 74.6431L51.1709 73.3984L52.5466 72.5695L54.2294 71.5529L58.2241 69.1444L58.6835 68.8672H61.1705C61.1705 68.8672 61.3543 68.9768 61.6702 69.1703C62.2474 69.5227 63.2698 70.1551 64.43 70.9147C65.6161 71.6915 66.9457 72.5983 68.0944 73.4734V73.4762C68.149 73.5167 68.2036 73.5571 68.2552 73.5976C68.9359 74.1232 69.5447 74.6315 70.0156 75.0935C70.0588 75.134 70.099 75.1772 70.1392 75.2177C70.343 75.4228 70.5125 75.6191 70.6474 75.7982C71.9341 77.5223 72.2585 82.1431 72.3446 84.3754Z" fill="#FEC5B5"/>
<path fill-rule="evenodd" clip-rule="evenodd" d="M63.0391 61.0651C63.0391 61.7828 63.6178 62.3647 64.3313 62.3647C65.045 62.3647 65.6237 61.7828 65.6237 61.0651C65.6237 60.3475 65.045 59.7656 64.3313 59.7656C63.6178 59.7656 63.0391 60.3475 63.0391 61.0651Z" fill="#EF998B"/>
<path fill-rule="evenodd" clip-rule="evenodd" d="M54.4219 61.0651C54.4219 61.7828 55.0006 62.3647 55.7143 62.3647C56.4278 62.3647 57.0065 61.7828 57.0065 61.0651C57.0065 60.3475 56.4278 59.7656 55.7143 59.7656C55.0006 59.7656 54.4219 60.3475 54.4219 61.0651Z" fill="#EF998B"/>
<path fill-rule="evenodd" clip-rule="evenodd" d="M24.4112 52.9805L24.2951 55.664L24.124 59.6228L22.4009 61.9332L20.965 60.4892L20.3906 52.9805H24.4112Z" fill="#FEC5B5"/>
<path fill-rule="evenodd" clip-rule="evenodd" d="M35.6139 64.8228V66.4429V84.3742H8.90625V66.3274C8.90625 65.2242 9.51793 64.2163 10.4915 63.7138L19.2906 59.1711L19.5319 59.0469L20.3934 59.6244L20.9304 60.0114L21.1688 60.1818L21.232 60.2251L22.0303 60.8028H22.0332L22.3377 61.0222L22.4037 61.0684L22.7139 60.8085L23.5007 60.15L24.1267 59.6244L26.1371 59.0469L33.4113 63.4798L35.3498 64.6611L35.3526 64.6639L35.6139 64.8228Z" fill="#31CEA3"/>
<path fill-rule="evenodd" clip-rule="evenodd" d="M35.3579 56.3543C35.3579 57.0719 34.7794 57.6539 34.0657 57.6539C33.352 57.6539 32.7734 57.0719 32.7734 56.3543C32.7734 55.6367 33.352 55.0547 34.0657 55.0547C34.7794 55.0547 35.3579 55.6367 35.3579 56.3543Z" fill="#EF998B"/>
<path fill-rule="evenodd" clip-rule="evenodd" d="M45.4089 56.0691C45.4089 56.7867 44.8302 57.3687 44.1166 57.3687C43.4029 57.3687 42.8242 56.7867 42.8242 56.0691C42.8242 55.3515 43.4029 54.7695 44.1166 54.7695C44.8302 54.7695 45.4089 55.3515 45.4089 56.0691Z" fill="#EF998B"/>
<path fill-rule="evenodd" clip-rule="evenodd" d="M36.503 56.2134C36.503 56.2134 30.7595 62.567 34.78 65.7437C38.8006 68.9205 40.2364 72.6747 40.2364 72.6747C40.2364 72.6747 49.139 62.567 42.821 58.235C36.7391 54.0651 36.503 56.2134 36.503 56.2134Z" fill="#929B9B"/>
<path fill-rule="evenodd" clip-rule="evenodd" d="M37.3672 65.1587H40.8134V59.3828H37.3672V65.1587Z" fill="#FEC5B5"/>
<path fill-rule="evenodd" clip-rule="evenodd" d="M40.8134 61.982C39.6647 62.678 38.5159 62.678 37.3672 61.982V59.3828H40.8134V61.982Z" fill="#EF998B"/>
<path fill-rule="evenodd" clip-rule="evenodd" d="M33.9193 47.5466C33.9193 47.5466 29.0372 50.7234 34.4936 55.344C39.95 59.9648 36.5038 47.2578 36.5038 47.2578L33.9193 47.5466Z" fill="#929B9B"/>
<path fill-rule="evenodd" clip-rule="evenodd" d="M39.091 61.4057C36.2362 61.4057 33.9219 59.0783 33.9219 56.2074V48.1211H44.2603V56.2074C44.2603 59.0783 41.946 61.4057 39.091 61.4057Z" fill="#FEC5B5"/>
<path fill-rule="evenodd" clip-rule="evenodd" d="M36.8817 57.0787H34.4047C33.9786 57.0787 33.6328 56.731 33.6328 56.3025V54.3895C33.6328 53.961 33.9786 53.6133 34.4047 53.6133H36.8817C37.3078 53.6133 37.6536 53.961 37.6536 54.3895V56.3025C37.6536 56.731 37.3078 57.0787 36.8817 57.0787Z" fill="#FFE2DC"/>
<path fill-rule="evenodd" clip-rule="evenodd" d="M36.8817 57.0787H34.4047C33.9786 57.0787 33.6328 56.731 33.6328 56.3025V54.3895C33.6328 53.961 33.9786 53.6133 34.4047 53.6133H36.8817C37.3078 53.6133 37.6536 53.961 37.6536 54.3895V56.3025C37.6536 56.731 37.3078 57.0787 36.8817 57.0787Z" stroke="#565A5B" stroke-width="1.5"/>
<path fill-rule="evenodd" clip-rule="evenodd" d="M43.4871 57.0787H41.0102C40.584 57.0787 40.2383 56.731 40.2383 56.3025V54.3895C40.2383 53.961 40.584 53.6133 41.0102 53.6133H43.4871C43.9133 53.6133 44.259 53.961 44.259 54.3895V56.3025C44.259 56.731 43.9133 57.0787 43.4871 57.0787Z" fill="#FFE2DC"/>
<path fill-rule="evenodd" clip-rule="evenodd" d="M43.4871 57.0787H41.0102C40.584 57.0787 40.2383 56.731 40.2383 56.3025V54.3895C40.2383 53.961 40.584 53.6133 41.0102 53.6133H43.4871C43.9133 53.6133 44.259 53.961 44.259 54.3895V56.3025C44.259 56.731 43.9133 57.0787 43.4871 57.0787Z" stroke="#565A5B" stroke-width="1.5"/>
<path fill-rule="evenodd" clip-rule="evenodd" d="M42.5331 54.1939C39.293 53.2888 36.7646 51.7951 34.9574 50.2204C33.6608 49.0903 32.1812 47.3029 33.0563 45.8188C33.4853 45.091 35.246 44.4471 36.2153 44.6637C38.7999 45.2412 43.9691 45.5301 44.8307 48.418C45.5733 50.9077 47.7024 55.6378 42.5331 54.1939Z" fill="#929B9B"/>
<path fill-rule="evenodd" clip-rule="evenodd" d="M24.337 55.3489V52.4609L20.3164 53.0384L20.6275 56.0708L24.337 55.3489Z" fill="#EF998B"/>
<path fill-rule="evenodd" clip-rule="evenodd" d="M26.9961 46.0455C26.9961 46.8432 27.6388 47.4895 28.432 47.4895C29.2249 47.4895 29.868 46.8432 29.868 46.0455C29.868 45.2481 29.2249 44.6016 28.432 44.6016C27.6388 44.6016 26.9961 45.2481 26.9961 46.0455Z" fill="#EF998B"/>
<path fill-rule="evenodd" clip-rule="evenodd" d="M14.9336 46.0455C14.9336 46.8432 15.5763 47.4895 16.3695 47.4895C17.1624 47.4895 17.8054 46.8432 17.8054 46.0455C17.8054 45.2481 17.1624 44.6016 16.3695 44.6016C15.5763 44.6016 14.9336 45.2481 14.9336 46.0455Z" fill="#EF998B"/>
<path fill-rule="evenodd" clip-rule="evenodd" d="M28.4338 43.8615C28.2901 43.597 29.7261 40.7091 29.1517 39.265C28.5774 37.8211 27.4287 36.6658 25.9927 36.9547C24.5569 37.2435 28.2901 41.5755 28.2901 41.5755L28.4338 43.8615Z" fill="#565A5B"/>
<path fill-rule="evenodd" clip-rule="evenodd" d="M17.9518 37.2395C17.9518 37.2395 13.9314 37.872 16.3725 41.7432C18.8134 45.6146 18.5263 38.6835 18.5263 38.6835C18.5263 38.6835 19.675 36.9507 17.9518 37.2395Z" fill="#565A5B"/>
<path fill-rule="evenodd" clip-rule="evenodd" d="M60.0237 66.1188C62.6407 66.1188 64.7622 63.9854 64.7622 61.3536V55.1445H55.2852V61.3536C55.2852 63.9854 57.4066 66.1188 60.0237 66.1188Z" fill="#FEC5B5"/>
<path fill-rule="evenodd" clip-rule="evenodd" d="M60.8872 63.0898H58.5898C58.5898 63.0898 59.7385 65.4001 60.8872 63.0898Z" fill="white"/>
<path fill-rule="evenodd" clip-rule="evenodd" d="M37.8633 58.6641H40.1607C40.1607 58.6641 39.012 60.9744 37.8633 58.6641Z" fill="white"/>
<path fill-rule="evenodd" clip-rule="evenodd" d="M54.4219 58.8963C60.4526 59.4739 63.0373 53.9868 63.0373 53.9868C63.106 53.8978 55.352 53.3203 55.352 53.3203L54.4219 58.8963Z" fill="#565A5B"/>
<path fill-rule="evenodd" clip-rule="evenodd" d="M72.3446 84.371H46.4497C46.4095 83.3371 46.4123 81.7805 46.6277 80.1806V80.1719C46.8431 78.5921 47.2654 76.9691 48.0694 75.7678C48.3508 75.3433 48.6811 74.9707 49.0688 74.6704C49.0802 74.6588 49.0946 74.6501 49.109 74.6386L51.1709 73.3939L52.5466 72.565L54.2294 71.5484C59.0971 76.1605 63.0974 72.4639 64.43 70.9102C65.6161 71.687 66.9457 72.5939 68.0944 73.469C68.149 73.5094 68.2007 73.5499 68.2552 73.5931C68.9359 74.1187 69.5447 74.627 70.0156 75.089C70.0588 75.1295 70.099 75.1729 70.1392 75.2132C70.343 75.4183 70.5125 75.6148 70.6474 75.7937C71.9341 77.5178 72.2585 82.1386 72.3446 84.371Z" fill="#31CEA3"/>
<path fill-rule="evenodd" clip-rule="evenodd" d="M18.3466 37.6741C18.3466 37.6741 16.3711 38.8293 16.3711 40.5621V48.3171C16.3711 49.2618 16.5386 50.2017 16.8983 51.0718C17.3731 52.2201 18.2384 53.5356 19.7581 53.8467H24.274C24.274 53.8467 26.387 54.0433 27.7607 51.3552C28.2716 50.3554 28.5076 49.2319 28.5076 48.1036V41.4285C28.5076 41.4285 28.5076 38.5405 26.5318 37.6741C24.5563 36.8077 18.3466 37.6741 18.3466 37.6741Z" fill="#FEC5B5"/>
<path fill-rule="evenodd" clip-rule="evenodd" d="M22.5519 84.3751V65.8824V60.8499C22.5519 60.5712 22.1211 60.5706 22.1211 60.8499V79.1557V84.3751C22.1211 84.6538 22.5519 84.6543 22.5519 84.3751Z" fill="#249370"/>
<path fill-rule="evenodd" clip-rule="evenodd" d="M20.1055 65.2494C20.1055 65.6481 20.4269 65.9714 20.8235 65.9714C21.2198 65.9714 21.5414 65.6481 21.5414 65.2494C21.5414 64.8506 21.2198 64.5273 20.8235 64.5273C20.4269 64.5273 20.1055 64.8506 20.1055 65.2494Z" fill="#249370"/>
<path fill-rule="evenodd" clip-rule="evenodd" d="M20.1055 73.0501C20.1055 73.4489 20.4269 73.772 20.8235 73.772C21.2198 73.772 21.5414 73.4489 21.5414 73.0501C21.5414 72.6512 21.2198 72.3281 20.8235 72.3281C20.4269 72.3281 20.1055 72.6512 20.1055 73.0501Z" fill="#249370"/>
<path fill-rule="evenodd" clip-rule="evenodd" d="M20.1055 80.8509C20.1055 81.2497 20.4269 81.5728 20.8235 81.5728C21.2198 81.5728 21.5414 81.2497 21.5414 80.8509C21.5414 80.452 21.2198 80.1289 20.8235 80.1289C20.4269 80.1289 20.1055 80.452 20.1055 80.8509Z" fill="#249370"/>
<path fill-rule="evenodd" clip-rule="evenodd" d="M12.0284 84.3717V69.7326C12.0284 69.454 11.5977 69.4534 11.5977 69.7326V84.3717C11.5977 84.6504 12.0284 84.651 12.0284 84.3717Z" fill="#249370"/>
<path fill-rule="evenodd" clip-rule="evenodd" d="M22.2583 53.8464H19.8173C18.2768 53.5365 17.3975 52.2297 16.913 51.0845C16.5437 50.2109 16.3711 49.2662 16.3711 48.317V45.9453C16.5604 47.1138 16.892 49.0649 17.0891 49.6589C17.3762 50.5253 19.0993 50.5253 19.0993 50.5253L19.2854 49.8701C19.5152 49.0614 20.2504 48.5037 21.0866 48.5037H22.2583H22.6891H23.8607C24.697 48.5037 25.432 49.0614 25.6619 49.8701L25.8481 50.5253C25.8481 50.5253 27.5711 50.5253 27.8584 49.6589C28.0553 49.0649 28.387 47.1138 28.5763 45.9453V48.317C28.5763 49.2662 28.4036 50.2109 28.034 51.0845C27.5498 52.2297 26.6705 53.5365 25.1302 53.8464H22.6891H22.2583Z" fill="#565A5B"/>
<path fill-rule="evenodd" clip-rule="evenodd" d="M20.5352 49.8594H24.2685C24.2685 49.8594 22.4768 53.0361 20.5352 49.8594Z" fill="white"/>
<path fill-rule="evenodd" clip-rule="evenodd" d="M18.0262 43.975C18.0049 44.0097 17.9836 44.044 17.9625 44.0784C18.1485 44.1879 18.3343 44.2974 18.5205 44.4064C18.5419 44.3557 18.5652 44.3062 18.5934 44.259C18.6072 44.2353 18.622 44.2125 18.6373 44.1897C18.6694 44.1417 18.5908 44.2407 18.6562 44.1636C18.6916 44.1217 18.7291 44.0818 18.7696 44.0446C18.7858 44.0299 18.8025 44.0155 18.8194 44.0013C18.7809 44.0331 18.8593 43.9738 18.8593 43.9735C18.9004 43.9461 18.9432 43.9213 18.9871 43.8988C19.0012 43.8919 19.0546 43.867 19.0144 43.8841C19.0396 43.873 19.0657 43.8645 19.0917 43.8561C19.1436 43.839 19.1964 43.8261 19.2504 43.8162C19.3056 43.8061 19.1793 43.8171 19.278 43.813C19.3056 43.8118 19.3326 43.8099 19.3602 43.8099C19.3876 43.8099 19.4146 43.8115 19.4422 43.8127C19.4617 43.8133 19.4893 43.8177 19.4541 43.8124C19.5078 43.8202 19.5615 43.8336 19.6134 43.8495C19.6396 43.8574 19.6654 43.8664 19.6906 43.8763C19.7119 43.8843 19.7113 43.8841 19.6893 43.8751C19.6993 43.8801 19.7091 43.8846 19.7191 43.8892C19.7673 43.9152 19.8153 43.941 19.8613 43.9713C19.8676 43.9753 19.9308 44.0215 19.9084 44.0041C19.8891 43.9888 19.9522 44.0428 19.9515 44.0421C19.992 44.079 20.0295 44.1192 20.0652 44.1607C20.0743 44.1717 20.0944 44.2006 20.0749 44.1732C20.0907 44.1954 20.106 44.2182 20.1202 44.2416C20.1343 44.265 20.1481 44.2887 20.1607 44.3133C20.1657 44.3227 20.2015 44.4057 20.1817 44.3559C20.2461 44.5188 20.398 44.6329 20.5792 44.5827C20.7334 44.5402 20.8695 44.3473 20.805 44.1832C20.5735 43.5973 20.0301 43.1776 19.3929 43.1607C18.7978 43.1445 18.1959 43.5265 17.9625 44.0784C17.8944 44.2399 17.9145 44.4267 18.0784 44.5231C18.2326 44.6139 18.4282 44.5561 18.5205 44.4064C18.5416 44.3721 18.5629 44.3374 18.5842 44.3031C18.676 44.1538 18.616 43.9453 18.4684 43.8583C18.3139 43.7677 18.1183 43.8255 18.0262 43.975Z" fill="#565A5B"/>
<path fill-rule="evenodd" clip-rule="evenodd" d="M24.3426 43.975C24.3213 44.0097 24.3 44.044 24.2789 44.0784C24.4649 44.1879 24.6507 44.2974 24.8369 44.4064C24.8583 44.3557 24.8816 44.3062 24.9098 44.259C24.9236 44.2353 24.9384 44.2125 24.9537 44.1897C24.9858 44.1417 24.9072 44.2407 24.9726 44.1636C25.008 44.1217 25.0455 44.0818 25.086 44.0446C25.1022 44.0299 25.1189 44.0155 25.1358 44.0013C25.0973 44.0331 25.1757 43.9738 25.1757 43.9735C25.2167 43.9461 25.2596 43.9213 25.3035 43.8988C25.3175 43.8919 25.371 43.867 25.3308 43.8841C25.356 43.873 25.3821 43.8645 25.4081 43.8561C25.46 43.839 25.5128 43.8261 25.5668 43.8162C25.622 43.8061 25.4955 43.8171 25.5944 43.813C25.622 43.8118 25.649 43.8099 25.6766 43.8099C25.704 43.8099 25.731 43.8115 25.7586 43.8127C25.7781 43.8133 25.8057 43.8177 25.7705 43.8124C25.8242 43.8202 25.8779 43.8336 25.9298 43.8495C25.9559 43.8574 25.9818 43.8664 26.007 43.8763C26.0283 43.8843 26.0277 43.8841 26.0057 43.8751C26.0157 43.8801 26.0255 43.8846 26.0355 43.8892C26.0837 43.9152 26.1317 43.941 26.1776 43.9713C26.184 43.9753 26.2472 44.0215 26.2247 44.0041C26.2055 43.9888 26.2686 44.0428 26.2679 44.0421C26.3084 44.079 26.3459 44.1192 26.3816 44.1607C26.3907 44.1717 26.4108 44.2006 26.3913 44.1732C26.4071 44.1954 26.4224 44.2182 26.4366 44.2416C26.4507 44.265 26.4645 44.2887 26.4771 44.3133C26.4821 44.3227 26.5179 44.4057 26.4981 44.3559C26.5625 44.5188 26.7144 44.6329 26.8956 44.5827C27.0498 44.5402 27.1859 44.3473 27.1214 44.1832C26.8898 43.5973 26.3465 43.1776 25.7093 43.1607C25.1142 43.1445 24.5123 43.5265 24.2789 44.0784C24.2108 44.2399 24.2309 44.4267 24.3948 44.5231C24.549 44.6139 24.7446 44.5561 24.8369 44.4064C24.858 44.3721 24.8793 44.3374 24.9006 44.3031C24.9924 44.1538 24.9324 43.9453 24.7848 43.8583C24.6303 43.7677 24.4347 43.8255 24.3426 43.975Z" fill="#565A5B"/>
<path fill-rule="evenodd" clip-rule="evenodd" d="M36.5841 55.5126C36.6048 55.5462 36.6254 55.5799 36.6461 55.6134C36.7056 55.7101 36.8336 55.7475 36.933 55.6891C37.0407 55.6258 37.0527 55.506 37.0083 55.4005C36.7946 54.8952 36.2526 54.5443 35.7062 54.559C35.1362 54.5743 34.6398 54.9517 34.4325 55.477C34.3908 55.5831 34.4781 55.7088 34.5789 55.7364C34.6985 55.7697 34.7949 55.6957 34.8372 55.5894C34.9782 55.2319 35.3576 54.9792 35.7381 54.9804C36.1404 54.9816 36.4919 55.2484 36.6461 55.6134L37.0083 55.4005C36.9876 55.3671 36.9669 55.3333 36.9462 55.2997C36.8046 55.0693 36.4416 55.281 36.5841 55.5126Z" fill="#565A5B"/>
<path fill-rule="evenodd" clip-rule="evenodd" d="M43.1895 55.5126C43.2102 55.5462 43.2309 55.5799 43.2516 55.6134C43.311 55.7101 43.4391 55.7475 43.5384 55.6891C43.6461 55.6258 43.6581 55.506 43.6137 55.4005C43.4 54.8952 42.8582 54.5443 42.3116 54.559C41.7416 54.5743 41.2454 54.9517 41.0379 55.477C40.9964 55.5831 41.0837 55.7088 41.1845 55.7364C41.3039 55.7697 41.4003 55.6957 41.4426 55.5894C41.5836 55.2319 41.963 54.9792 42.3435 54.9804C42.7458 54.9816 43.0973 55.2484 43.2516 55.6134L43.6137 55.4005C43.593 55.3671 43.5723 55.3333 43.5516 55.2997C43.41 55.0693 43.047 55.281 43.1895 55.5126Z" fill="#565A5B"/>
<path fill-rule="evenodd" clip-rule="evenodd" d="M61.2266 60.2061C61.2059 60.2399 61.1852 60.2733 61.1645 60.3071L61.5267 60.5196C61.6809 60.1547 62.0324 59.8878 62.4347 59.8866C62.8149 59.8856 63.1946 60.1382 63.3356 60.4958C63.3776 60.6014 63.476 60.6753 63.5937 60.6431C63.6938 60.6153 63.7821 60.4899 63.74 60.3837C63.5325 59.8581 63.0366 59.4806 62.4666 59.4653C61.92 59.4506 61.3782 59.8014 61.1645 60.3071C61.1202 60.4116 61.1333 60.533 61.2398 60.5957C61.34 60.6543 61.4669 60.617 61.5267 60.5196C61.5473 60.4862 61.568 60.4527 61.5887 60.419C61.7309 60.1875 61.3685 59.9756 61.2266 60.2061Z" fill="#565A5B"/>
<path fill-rule="evenodd" clip-rule="evenodd" d="M56.3476 60.2061C56.3269 60.2399 56.3062 60.2733 56.2856 60.3071L56.6477 60.5196C56.8019 60.1547 57.1534 59.8878 57.5557 59.8866C57.9359 59.8856 58.3156 60.1382 58.4566 60.4958C58.4986 60.6014 58.5971 60.6753 58.7147 60.6431C58.8148 60.6153 58.9031 60.4899 58.861 60.3837C58.6537 59.8581 58.1576 59.4806 57.5876 59.4653C57.0412 59.4506 56.4992 59.8014 56.2856 60.3071C56.2414 60.4116 56.2543 60.533 56.3608 60.5957C56.461 60.6543 56.5879 60.617 56.6477 60.5196C56.6684 60.4862 56.689 60.4527 56.7097 60.419C56.8519 60.1875 56.4895 59.9756 56.3476 60.2061Z" fill="#565A5B"/>
<path fill-rule="evenodd" clip-rule="evenodd" d="M27.141 36.6606C27.141 36.6606 25.1307 39.8375 21.9719 39.2598C18.8129 38.6822 17.9513 37.2383 17.9513 37.2383C17.9513 37.2383 17.3769 36.0831 19.1 35.5055C20.823 34.9278 28.2897 35.2167 27.141 36.6606Z" fill="#565A5B"/>
<path d="M37.6523 54.7656H40.237" stroke="#565A5B" stroke-width="1.5"/>
<path fill-rule="evenodd" clip-rule="evenodd" d="M37.0181 57.6075C36.9218 58.1262 36.382 58.5286 35.8565 58.434C35.7869 58.4212 35.7154 58.4527 35.6956 58.5255C35.6782 58.5894 35.7169 58.6746 35.7866 58.6872C36.4438 58.806 37.1459 58.3465 37.27 57.6774C37.2829 57.6078 37.2509 57.5355 37.1789 57.516C37.1152 57.4983 37.031 57.5373 37.0181 57.6075Z" fill="#EF8A7F"/>
<path fill-rule="evenodd" clip-rule="evenodd" d="M40.1669 57.4787C40.4738 58.2484 41.4132 58.6864 42.1911 58.3774C42.3456 58.3159 42.2784 58.0618 42.1217 58.1242C41.4879 58.3757 40.6769 58.0559 40.4187 57.4088C40.3923 57.3424 40.332 57.2977 40.2582 57.317C40.1958 57.3337 40.1406 57.4129 40.1669 57.4787Z" fill="#EF8A7F"/>
<path fill-rule="evenodd" clip-rule="evenodd" d="M51.9395 84.3698H48.7718L48.2435 77.8922L48.2204 77.5976L48.2176 77.5774C48.2033 77.6035 48.1889 77.6294 48.1745 77.6554C47.7725 78.3457 47.3561 78.7961 47.1982 78.9578L47.1464 79.0099C47.1349 79.0184 47.1292 79.0243 47.1292 79.0243V84.3698H28.9336V78.9059C28.9336 78.9059 29.0426 76.6822 29.2753 74.2852C29.2838 74.2013 29.2925 74.1176 29.2982 74.0339C29.3126 73.9039 29.324 73.774 29.3384 73.6469C29.3701 73.3466 29.4016 73.0492 29.4361 72.7546C29.6285 71.1373 29.8754 69.6442 30.1856 68.9164C30.2114 68.8501 30.2488 68.7808 30.2918 68.7115C30.6337 68.1251 31.4033 67.4204 32.3279 66.7159C32.4055 66.6581 32.483 66.6004 32.5606 66.5396C32.7961 66.3635 33.0373 66.1873 33.2843 66.014C33.2843 66.014 33.2872 66.014 33.29 66.0112C33.4738 65.8841 33.6577 65.7571 33.8443 65.6329C33.9649 65.5492 34.0883 65.4653 34.2119 65.3845C34.2463 65.3614 34.2836 65.3383 34.3181 65.3152C34.5709 65.1506 34.8206 64.9888 35.062 64.8386C35.1107 64.8068 35.1596 64.7752 35.2084 64.7462C35.2573 64.7174 35.3032 64.6885 35.3519 64.6597C35.4496 64.5961 35.5472 64.5383 35.642 64.4777C35.8402 64.3564 36.0326 64.2409 36.2164 64.1311C36.4403 63.9983 36.65 63.8741 36.8396 63.7643C37.0378 63.6488 37.2158 63.5477 37.3651 63.464C37.724 63.259 37.9394 63.1406 37.9394 63.1406L40.8113 63.5998L41.5838 63.7874H41.5867L42.1897 63.9319L43.4734 64.2409L43.8008 64.3189L44.7829 64.5556L44.8145 64.5643L45.1534 64.6451C46.0322 64.8214 46.8191 65.1304 47.5054 65.552C47.603 65.6126 47.6978 65.6762 47.7926 65.7397C47.8615 65.7859 47.9276 65.8321 47.9936 65.8813C48.0482 65.9216 48.1027 65.9621 48.1544 66.0025C48.232 66.0602 48.3067 66.1238 48.3784 66.1873C48.4417 66.2393 48.502 66.2942 48.5623 66.352C48.6656 66.4444 48.7661 66.5426 48.8581 66.6436C48.9184 66.7043 48.9758 66.7649 49.0303 66.8285C49.1711 66.9844 49.3031 67.1461 49.4266 67.3136C49.4956 67.4032 49.5587 67.4956 49.6219 67.588C49.6736 67.666 49.7254 67.744 49.7741 67.8248C49.777 67.8277 49.7798 67.8305 49.7798 67.8335C49.7971 67.8595 49.8143 67.8854 49.8287 67.9085C49.9406 68.0905 50.0441 68.2753 50.1359 68.4688C50.1877 68.5699 50.2364 68.6738 50.2853 68.7778C50.3198 68.8558 50.3542 68.9366 50.3887 69.0146C50.4376 69.136 50.4863 69.2572 50.5322 69.3814C50.5754 69.5056 50.6185 69.6298 50.6587 69.7568C50.7563 70.0543 50.8367 70.3604 50.9027 70.6723C50.9344 70.8139 50.9602 70.9582 50.9831 71.1026C51.0061 71.2441 51.0292 71.3885 51.0493 71.5358C51.0607 71.6311 51.0722 71.7293 51.0836 71.8276C51.1297 72.2318 51.1498 72.6419 51.1498 73.0607L51.1727 73.3928L51.6064 79.6048L51.9395 84.3698Z" fill="#FEC5B5"/>
<path fill-rule="evenodd" clip-rule="evenodd" d="M48.5731 71.809C48.5674 71.7975 48.5646 71.7888 48.5589 71.7772L48.556 71.1997L48.5731 71.809ZM51.175 73.3945L51.1521 73.0624L51.1492 73.0249C51.1464 72.6205 51.1263 72.222 51.0861 71.8293C51.0745 71.731 51.063 71.6329 51.0516 71.5375C51.0315 71.3902 51.0085 71.2459 50.9856 71.1043C50.9596 70.9629 50.9338 70.8184 50.9022 70.6798C50.8362 70.3651 50.7558 70.059 50.661 69.7585C50.6208 69.6315 50.5777 69.5073 50.5347 69.3832C50.4886 69.259 50.4399 69.1377 50.391 69.0163C50.3566 68.9385 50.3221 68.8576 50.2876 68.7796C50.2389 68.6757 50.19 68.5717 50.1384 68.4706C50.0436 68.2771 49.9402 68.0923 49.831 67.9104C49.8166 67.8873 49.7995 67.8612 49.7823 67.8352C49.7823 67.8352 49.7794 67.8294 49.7764 67.8265C49.7277 67.7457 49.6759 67.6677 49.6243 67.5897C49.5612 67.4973 49.4979 67.4049 49.429 67.3153C49.3056 67.1479 49.1734 66.9862 49.0327 66.8302C48.9781 66.7666 48.9207 66.706 48.8604 66.6454C48.7684 66.5443 48.6679 66.4461 48.5646 66.3537C48.5043 66.2959 48.444 66.241 48.3808 66.1891C48.309 66.1255 48.2343 66.0621 48.1567 66.0043C48.1051 65.9638 48.0505 65.9235 47.9959 65.883C47.9299 65.8309 47.8639 65.7847 47.7949 65.7385C47.7001 65.6751 47.6055 65.6115 47.5078 65.5537C47.4216 65.4988 47.3326 65.4469 47.2435 65.3977C46.6117 65.0425 45.9024 64.7827 45.1185 64.6296L44.8198 64.5603L44.7882 64.5516C44.7882 64.5546 44.7882 64.5546 44.7853 64.5574C44.5153 65.5884 43.5993 66.8562 40.8136 67.1854H40.8079C35.9316 67.7601 35.6443 64.4794 35.6443 64.4794V64.4766C35.5497 64.5343 35.452 64.5949 35.3515 64.6585C35.3055 64.6873 35.2596 64.7163 35.2107 64.7481C35.1619 64.7769 35.113 64.8087 35.0643 64.8405C34.8231 64.9906 34.5732 65.1523 34.3204 65.3169C34.2861 65.34 34.2487 65.3631 34.2142 65.3862C34.0908 65.4672 33.9673 65.5509 33.8466 65.6346C33.66 65.7588 33.4762 65.8858 33.2923 66.0129C33.2895 66.0159 33.2866 66.0159 33.2866 66.0159C33.0397 66.1891 32.7984 66.3652 32.5629 66.5415C32.4855 66.6021 32.4079 66.6598 32.3304 66.7176C32.2441 66.784 32.158 66.8505 32.0748 66.9169C31.9915 66.9832 31.911 67.0468 31.8277 67.1133C31.1931 67.6417 30.6705 68.1529 30.3631 68.6034C30.3402 68.641 30.3172 68.6757 30.2943 68.7132C30.2511 68.7825 30.2139 68.8518 30.1879 68.9182C30.1794 68.9298 30.1737 68.9442 30.1678 68.9557C29.8635 69.6777 29.6223 71.1535 29.4384 72.7563C29.404 73.0509 29.3724 73.3483 29.3407 73.6486C29.3265 73.7757 29.3149 73.9057 29.3005 74.0356C29.2948 74.1195 29.2863 74.2032 29.2776 74.2869C29.0565 76.7013 28.9531 78.951 28.9531 78.951L28.956 79.8924L31.911 79.9386L35.6157 79.9993L43.3035 80.1205L44.926 80.1466L46.6318 80.1726L47.1316 80.1813H47.1546L47.1487 79.0116V79C47.166 78.9885 47.1832 78.9741 47.2005 78.9597C47.5653 78.6823 47.9242 78.3184 48.1999 77.9575C48.217 77.9344 48.2314 77.9142 48.2458 77.8939C48.2515 77.8911 48.2515 77.8882 48.2544 77.8852L48.4726 79.8924L51.6087 79.6065L51.6316 79.6036L51.175 73.3945Z" fill="#F76B6D"/>
<path fill-rule="evenodd" clip-rule="evenodd" d="M31.9471 76.4983C31.3093 75.1959 31.7811 73.7202 32.3625 72.4939C32.4813 72.2436 32.11 72.0235 31.9905 72.2754C31.3354 73.6569 30.8607 75.2583 31.5753 76.717C31.6975 76.9671 32.0695 76.7479 31.9471 76.4983Z" fill="#DB4F5D"/>
<path fill-rule="evenodd" clip-rule="evenodd" d="M31.2017 72.5527C31.3514 72.7156 31.501 72.8787 31.651 73.0419C31.7276 73.1254 31.879 73.1256 31.9556 73.0419C32.0369 72.9526 32.0372 72.8247 31.9556 72.7357C31.8061 72.5727 31.6561 72.4095 31.5065 72.2463C31.4299 72.1629 31.2785 72.1626 31.2017 72.2463C31.1203 72.3358 31.1203 72.4635 31.2017 72.5527Z" fill="#DB4F5D"/>
<path fill-rule="evenodd" clip-rule="evenodd" d="M60.8086 54.4797C60.8086 54.4797 62.5318 57.6564 65.6906 58.5228C68.8496 59.3892 64.8292 53.6133 64.8292 53.6133L60.8086 54.4797Z" fill="#565A5B"/>
<path fill-rule="evenodd" clip-rule="evenodd" d="M68.1182 84.3725V78.9084C68.1182 78.6297 67.6875 78.6293 67.6875 78.9084V84.3725C67.6875 84.6512 68.1182 84.6518 68.1182 84.3725Z" fill="#249370"/>
<path fill-rule="evenodd" clip-rule="evenodd" d="M47.1302 80.1797V84.3701H41.1797C41.622 83.345 42.1763 82.0454 42.5468 81.1646C42.5468 81.1616 42.5496 81.1587 42.5496 81.1587C42.7965 80.5754 42.9632 80.1797 42.9632 80.1797H47.1302Z" fill="#D6A10D"/>
<path fill-rule="evenodd" clip-rule="evenodd" d="M26.1374 59.0466L24.1271 56.9023L23.2656 59.913L24.7014 61.357L26.1374 59.0466Z" fill="#249370"/>
<path fill-rule="evenodd" clip-rule="evenodd" d="M20.6784 57.0273L21.5396 59.9093L20.1038 61.3532L19.2422 59.0429L20.6784 57.0273Z" fill="#249370"/>
<path fill-rule="evenodd" clip-rule="evenodd" d="M35.3544 49.2836C35.3544 49.2836 34.4929 52.1715 33.3441 52.4603C32.1954 52.7492 33.9186 47.5508 33.9186 47.5508L35.6416 48.1284L35.3544 49.2836Z" fill="#929B9B"/>
<path fill-rule="evenodd" clip-rule="evenodd" d="M52.0127 68.9173L50.9042 70.6732L50.9014 70.6789L49.0346 73.6333L48.0295 75.2275L44.9251 80.1457L44.9021 80.1804L42.2572 84.3708H31.9102V77.0035L35.6147 72.9142L38.5354 69.6913L40.807 67.1845L43.4749 64.2417L43.6844 64.0078C43.6844 64.0078 44.1641 64.0656 44.8964 64.2214C46.9928 64.6692 51.1598 65.9196 52.0127 68.9173Z" fill="#FFC501"/>
<path fill-rule="evenodd" clip-rule="evenodd" d="M48.0205 65.1094C45.3494 68.4522 42.8376 71.9212 40.4969 75.5061C40.3443 75.7396 40.7171 75.9571 40.8687 75.7246C43.1892 72.171 45.677 68.7297 48.3251 65.4157C48.4971 65.2003 48.1942 64.8919 48.0205 65.1094Z" fill="#D6A10D"/>
<path fill-rule="evenodd" clip-rule="evenodd" d="M38.6275 74.1079C40.6093 71.719 42.5912 69.3304 44.5733 66.9414C44.7496 66.7288 44.4463 66.4207 44.2685 66.6351C42.2867 69.024 40.3049 71.4126 38.3228 73.8015C38.1464 74.014 38.4497 74.3221 38.6275 74.1079Z" fill="#D6A10D"/>
<path fill-rule="evenodd" clip-rule="evenodd" d="M48.3169 69.9956C48.9185 69.1448 49.5839 68.342 50.3051 67.5908C50.4977 67.3901 50.1934 67.0833 50.0003 67.2843C49.2539 68.0621 48.568 68.8961 47.945 69.7769C47.8775 69.8723 47.9281 70.0181 48.0223 70.0733C48.1303 70.1367 48.2494 70.0911 48.3169 69.9956Z" fill="#D6A10D"/>
<path fill-rule="evenodd" clip-rule="evenodd" d="M45.5308 76.8059C43.8058 79.0294 42.1493 81.305 40.5652 83.6321C40.4081 83.8628 40.7812 84.0797 40.937 83.8507C42.5002 81.5542 44.1331 79.3063 45.8356 77.1122C46.0037 76.8949 45.7012 76.5862 45.5308 76.8059Z" fill="#D6A10D"/>
<path fill-rule="evenodd" clip-rule="evenodd" d="M47.8945 76.0491C47.9037 77.1759 47.9901 78.2991 48.1461 79.4149C48.1624 79.5316 48.3091 79.5931 48.4111 79.5663C48.5355 79.5331 48.5776 79.4149 48.5616 79.2997C48.4108 78.2229 48.3342 77.1364 48.3252 76.0491C48.3229 75.7704 47.8921 75.7698 47.8945 76.0491Z" fill="#DB4F5D"/>
<path fill-rule="evenodd" clip-rule="evenodd" d="M37.0779 64.2022C37.0522 64.44 36.8401 64.612 36.6034 64.5867C36.3667 64.561 36.1959 64.3473 36.2212 64.1095C36.2467 63.8716 36.459 63.6994 36.6957 63.7252C36.9322 63.7509 37.1031 63.9643 37.0779 64.2022Z" fill="white"/>
<path fill-rule="evenodd" clip-rule="evenodd" d="M37.9373 64.7764C37.9116 65.0142 37.6995 65.1862 37.4628 65.1609C37.2261 65.1352 37.0553 64.9215 37.0806 64.6837C37.1061 64.4458 37.3184 64.2736 37.5551 64.2994C37.7916 64.3251 37.9625 64.5385 37.9373 64.7764Z" fill="white"/>
<path fill-rule="evenodd" clip-rule="evenodd" d="M38.8005 65.0695C38.775 65.3071 38.5628 65.4793 38.3261 65.4538C38.0895 65.4282 37.9185 65.2144 37.9439 64.9767C37.9694 64.7388 38.1816 64.5667 38.4183 64.5924C38.6549 64.618 38.8257 64.8315 38.8005 65.0695Z" fill="white"/>
<path fill-rule="evenodd" clip-rule="evenodd" d="M39.6599 65.3547C39.6344 65.5923 39.4221 65.7645 39.1854 65.739C38.9489 65.7133 38.778 65.4996 38.8032 65.262C38.8289 65.0239 39.041 64.8519 39.2777 64.8775C39.5144 64.9032 39.6852 65.1166 39.6599 65.3547Z" fill="white"/>
<path fill-rule="evenodd" clip-rule="evenodd" d="M40.5232 65.0695C40.4977 65.3071 40.2854 65.4793 40.0489 65.4538C39.8122 65.4282 39.6413 65.2144 39.6665 64.9767C39.6922 64.7388 39.9044 64.5667 40.141 64.5924C40.3777 64.618 40.5485 64.8315 40.5232 65.0695Z" fill="white"/>
<path fill-rule="evenodd" clip-rule="evenodd" d="M41.3826 64.7764C41.3569 65.0142 41.1447 65.1862 40.9081 65.1609C40.6714 65.1352 40.5006 64.9215 40.5259 64.6837C40.5514 64.4458 40.7637 64.2736 41.0002 64.2994C41.2369 64.3251 41.4078 64.5385 41.3826 64.7764Z" fill="white"/>
<path fill-rule="evenodd" clip-rule="evenodd" d="M42.2459 64.2022C42.2202 64.44 42.0081 64.612 41.7714 64.5867C41.5347 64.561 41.3639 64.3473 41.3892 64.1095C41.4147 63.8716 41.627 63.6994 41.8637 63.7252C42.1002 63.7509 42.2711 63.9643 42.2459 64.2022Z" fill="white"/>
<path fill-rule="evenodd" clip-rule="evenodd" d="M10.7758 70.4551C10.8548 70.5469 10.9317 70.6408 11.0058 70.7364C11.0282 70.7656 10.9903 70.7157 11.0124 70.7451C11.0213 70.7566 11.0303 70.7685 11.0391 70.78C11.0567 70.8037 11.0742 70.8274 11.0914 70.8511C11.1282 70.9014 11.1644 70.9525 11.1997 71.0038C11.3372 71.2035 11.4639 71.4105 11.5802 71.6233C11.6345 71.7226 11.7789 71.7631 11.8748 71.701C11.9751 71.6361 12.0101 71.511 11.9521 71.4048C11.7071 70.956 11.4133 70.536 11.0805 70.1487C11.0064 70.063 10.8505 70.0671 10.7758 70.1487C10.6922 70.2406 10.6968 70.3636 10.7758 70.4551Z" fill="#249370"/>
<path fill-rule="evenodd" clip-rule="evenodd" d="M35.1153 58.3019C35.3405 58.5408 35.6448 58.6838 35.9688 58.7184C36.0369 58.7256 36.1023 58.6529 36.0995 58.587C36.096 58.5096 36.0417 58.4634 35.9688 58.4556C35.9607 58.4547 35.9528 58.4538 35.9444 58.4529C35.9555 58.455 35.9582 58.4544 35.9444 58.4529C35.9262 58.4501 35.9067 58.4463 35.8887 58.4429C35.8551 58.436 35.8212 58.4279 35.7882 58.4177C35.7549 58.4082 35.7221 58.397 35.6897 58.3842C35.6877 58.3836 35.6649 58.3745 35.6774 58.3796C35.6894 58.3845 35.6667 58.3749 35.6646 58.3742C35.648 58.3667 35.6313 58.3586 35.615 58.3505C35.555 58.3202 35.4972 58.2849 35.4429 58.2453C35.4347 58.2393 35.4263 58.2335 35.4186 58.2272C35.4291 58.2356 35.4228 58.2306 35.4159 58.2248C35.4036 58.2144 35.391 58.2041 35.3789 58.1931C35.3514 58.1688 35.3252 58.1429 35.3003 58.1159C35.2529 58.0662 35.1621 58.0649 35.1153 58.1159C35.0664 58.1697 35.0651 58.2485 35.1153 58.3019Z" fill="#EF8A7F"/>
<path fill-rule="evenodd" clip-rule="evenodd" d="M33.9882 47.6247C34.7039 49.0314 35.7332 50.2559 36.9912 51.2027C37.6343 51.686 38.3348 52.0941 39.0753 52.4066C39.8204 52.7208 40.6353 52.9137 41.4231 52.6472C41.5815 52.5935 41.5136 52.3392 41.3535 52.3935C40.5185 52.6766 39.6587 52.3973 38.8913 52.0395C38.2215 51.7271 37.5869 51.338 37.0037 50.8838C35.8365 49.9743 34.8857 48.8132 34.214 47.4921C34.1373 47.3414 33.9119 47.4743 33.9882 47.6247Z" fill="white"/>
<path fill-rule="evenodd" clip-rule="evenodd" d="M34.3915 46.6083C35.0251 48.3345 36.2989 49.7855 37.9317 50.6192C38.0812 50.6957 38.2137 50.469 38.0634 50.3924C36.4932 49.5905 35.2539 48.2016 34.6434 46.5384C34.5856 46.3811 34.333 46.4492 34.3915 46.6083Z" fill="white"/>
<path fill-rule="evenodd" clip-rule="evenodd" d="M23.1885 59.9605L22.7109 60.8018L23.6093 60.0482L23.4758 59.3828L23.1885 59.9605Z" fill="#249370"/>
<path fill-rule="evenodd" clip-rule="evenodd" d="M21.466 59.6797L22.4711 60.9791L21.0352 60.4016L21.466 59.6797Z" fill="#249370"/>
</g>
</g>
</g>
</g>
</g>
<defs>
<clipPath id="clip0_390_10953">
<rect width="84" height="84" fill="white"/>
</clipPath>
<clipPath id="clip1_390_10953">
<rect width="84" height="84" fill="white"/>
</clipPath>
<clipPath id="clip2_390_10953">
<rect width="84" height="84" fill="white"/>
</clipPath>
</defs>
</svg>
