<svg width="85" height="84" viewBox="0 0 85 84" fill="none" xmlns="http://www.w3.org/2000/svg">
<g clip-path="url(#clip0_390_11219)">
<g clip-path="url(#clip1_390_11219)">
<g clip-path="url(#clip2_390_11219)">
<path fill-rule="evenodd" clip-rule="evenodd" d="M6.19922 71.7273C6.19922 73.9411 7.98403 75.736 10.1854 75.736C12.3872 75.736 14.1717 73.9411 14.1717 71.7273C14.1717 69.5135 12.3872 67.7188 10.1854 67.7188C7.98403 67.7188 6.19922 69.5135 6.19922 71.7273Z" fill="#31CEA3"/>
<path fill-rule="evenodd" clip-rule="evenodd" d="M3.16016 76.9812C3.16016 77.3229 3.19353 77.6554 3.26029 77.9789H13.1189C13.1857 77.6554 13.219 77.3229 13.219 76.9812C13.219 76.206 13.0461 75.4676 12.7369 74.8116C12.512 74.3385 12.218 73.9054 11.863 73.5269C11.2197 72.8311 10.3759 72.3186 9.42912 72.0775C9.03193 71.9769 8.61592 71.9219 8.18808 71.9219C7.49958 71.9219 6.84113 72.0623 6.24002 72.3156C5.19318 72.7579 4.32535 73.5483 3.7825 74.54C3.38773 75.2632 3.16016 76.0962 3.16016 76.9812Z" fill="#31CEA3"/>
<path fill-rule="evenodd" clip-rule="evenodd" d="M9.42969 55.6893V77.9739H24.3709L24.8047 77.9712L27.8422 77.9647V54.1637L24.4497 50.7522L21.7674 48.0547L15.9808 49.2204L9.42969 55.6893Z" fill="#FDE98E"/>
<path fill-rule="evenodd" clip-rule="evenodd" d="M24.3711 56.3086V77.9738L24.805 77.9708L27.842 77.9646L31.4593 77.9586C31.3561 76.7104 31.4685 56.7633 31.4685 56.7633L27.842 56.5314L24.805 56.3362L24.3711 56.3086Z" fill="#FFC501"/>
<path fill-rule="evenodd" clip-rule="evenodd" d="M24.8047 53.5898V77.9706L27.842 77.9646L31.4592 77.9584H31.8291V53.5898H24.8047Z" fill="#FFC501"/>
<path fill-rule="evenodd" clip-rule="evenodd" d="M24.3717 56.9235L32.5348 57.0181C32.5348 55.4521 26.4662 54.1681 26.4662 54.1681L20.3209 47.9883H17.2126L9.39453 55.8504V57.1847L17.2135 49.6266L24.3717 56.9235Z" fill="#D6A10D"/>
<path fill-rule="evenodd" clip-rule="evenodd" d="M17.2109 48.0547L24.6139 55.69H29.3592V48.0547H17.2109Z" fill="#A05A2B"/>
<path fill-rule="evenodd" clip-rule="evenodd" d="M18.7289 77.9728H15.6914V69.8164H18.7289V77.9728Z" fill="#FFC501"/>
<path fill-rule="evenodd" clip-rule="evenodd" d="M27.8438 44.8118V46.7189V77.9653L31.461 77.9593H31.8312L33.1571 77.9563L36.9558 77.9471L50.7169 77.9197H50.926V43.0938L50.7169 43.109L32.8628 44.4395L29.6583 44.6774L27.8438 44.8118Z" fill="#1EAA80"/>
<path fill-rule="evenodd" clip-rule="evenodd" d="M27.8398 46.7188V77.9652L31.4571 77.9591H31.8273L33.1532 77.9561L36.9519 77.9469L50.713 77.9195H50.8435V46.7188H27.8398Z" fill="#59EAB9"/>
<path fill-rule="evenodd" clip-rule="evenodd" d="M51.225 66.5713H27.8398V64.0898H51.225V66.5713Z" fill="#1EAA80"/>
<path fill-rule="evenodd" clip-rule="evenodd" d="M79.2812 72.3959C79.2812 74.8734 81.2785 76.8818 83.7421 76.8818C86.2057 76.8818 88.2025 74.8734 88.2025 72.3959C88.2025 69.9186 86.2057 67.9102 83.7421 67.9102C81.2785 67.9102 79.2812 69.9186 79.2812 72.3959Z" fill="#33B895"/>
<path fill-rule="evenodd" clip-rule="evenodd" d="M79.2812 75.7512C79.2812 76.5172 79.4724 77.2342 79.8092 77.8628L83.8358 77.8538L85.2498 77.8506L87.6833 77.8476C88.0141 77.222 88.2022 76.511 88.2022 75.7512C88.2022 75.1562 88.0873 74.5917 87.8776 74.073C87.741 73.7313 87.5619 73.4108 87.3495 73.1179C86.5575 72.0194 85.2831 71.2962 83.8358 71.2688C83.8055 71.2656 83.7721 71.2656 83.7418 71.2656C81.8696 71.2656 80.2644 72.4253 79.606 74.073C79.3965 74.5917 79.2812 75.1562 79.2812 75.7512Z" fill="#33B895"/>
<path fill-rule="evenodd" clip-rule="evenodd" d="M18.7285 63.3316H15.6914V60.2773H18.7285V63.3316Z" fill="#A18DFC"/>
<path fill-rule="evenodd" clip-rule="evenodd" d="M50.7148 40.3254V77.9189H50.9239L53.4666 77.9159L57.7483 77.9067H57.7512C61.0403 76.2895 68.4626 72.3928 68.4626 72.3928V44.811L59.9209 35.8398L50.7148 40.3254Z" fill="#31CEA3"/>
<path fill-rule="evenodd" clip-rule="evenodd" d="M68.4609 61.2258V77.8836L79.8092 77.8592L83.8356 77.85V63.5144L76.2438 55.6875L68.4609 61.2258Z" fill="#FFC501"/>
<path fill-rule="evenodd" clip-rule="evenodd" d="M53.4688 63.1376V77.9187L57.7502 77.9095H57.7534L68.4648 77.8881V61.2305L53.4688 63.1376Z" fill="#FDE98E"/>
<path fill-rule="evenodd" clip-rule="evenodd" d="M68.4606 61.2305V64.7857L68.649 64.6664H53.4648V63.1395L68.4606 61.2305Z" fill="#D6A10D"/>
<path fill-rule="evenodd" clip-rule="evenodd" d="M62.7685 72.4906H59.3516V69.0547H62.7685V72.4906Z" fill="#FFC501"/>
<path fill-rule="evenodd" clip-rule="evenodd" d="M78.1436 72.4906H74.7266V69.0547H78.1436V72.4906Z" fill="#D6A10D"/>
<path fill-rule="evenodd" clip-rule="evenodd" d="M44.3575 54.1674H41.3203V51.1133H44.3575V54.1674Z" fill="#31CEA3"/>
<path fill-rule="evenodd" clip-rule="evenodd" d="M43.8964 71.9371H40.8594V68.8828H43.8964V71.9371Z" fill="#31CEA3"/>
<path fill-rule="evenodd" clip-rule="evenodd" d="M36.9514 54.1674H33.9141V51.1133H36.9514V54.1674Z" fill="#31CEA3"/>
<path fill-rule="evenodd" clip-rule="evenodd" d="M61.0606 54.1674H58.0234V51.1133H61.0606V54.1674Z" fill="#208966"/>
<path fill-rule="evenodd" clip-rule="evenodd" d="M50.923 58.7852V64.785H46.3672V63.1387L50.923 58.7852Z" fill="#31CEA3"/>
<path fill-rule="evenodd" clip-rule="evenodd" d="M33.1562 69.0547V77.9587L36.9553 77.9496V69.0547H33.1562Z" fill="#31CEA3"/>
<path fill-rule="evenodd" clip-rule="evenodd" d="M53.4688 63.1399H68.4645L76.247 55.6953H61.0612L53.4688 63.1399Z" fill="#A05A2B"/>
<path fill-rule="evenodd" clip-rule="evenodd" d="M50.622 44.8114L59.9229 35.8398H36.5753L27.8438 44.8114H50.622Z" fill="#208966"/>
<path fill-rule="evenodd" clip-rule="evenodd" d="M28.1443 58.8633C28.1443 59.0172 50.9225 58.8633 50.9225 58.8633L46.4802 63.3307H23.3984L28.1443 58.8633Z" fill="#208966"/>
<path fill-rule="evenodd" clip-rule="evenodd" d="M46.3666 64.8552H23.3984V63.3281H46.3666V64.8552Z" fill="#59EAB9"/>
<path fill-rule="evenodd" clip-rule="evenodd" d="M31.7903 45.0899C38.9849 45.0899 44.8384 39.2038 44.8384 31.9688C44.8384 24.7337 38.9849 18.8477 31.7903 18.8477C24.5958 18.8477 18.7431 24.7337 18.7431 31.9688C18.7431 39.2038 24.5958 45.0899 31.7903 45.0899ZM31.7905 5.72656C46.1799 5.72656 57.8861 17.4759 57.8861 31.9176C57.8861 49.8402 34.5332 76.1516 33.539 77.2631C33.0719 77.7848 32.431 78.0455 31.79 78.0452C31.1489 78.0449 27.6667 78.0452 26.9692 78.0452C26.4207 78.0452 29.1423 76.2516 28.013 74.9057C22.1318 67.8944 5.69531 46.9538 5.69531 31.9176C5.69563 17.4759 17.4016 5.72656 31.7905 5.72656Z" fill="#F76B6D"/>
<path fill-rule="evenodd" clip-rule="evenodd" d="M27.2397 45.0899C34.4344 45.0899 40.2876 39.2038 40.2876 31.9688C40.2876 24.7337 34.4344 18.8477 27.2397 18.8477C20.0452 18.8477 14.1922 24.7337 14.1922 31.9688C14.1922 39.2038 20.0452 45.0899 27.2397 45.0899ZM27.2399 5.72656C41.6291 5.72656 53.3353 17.4759 53.3353 31.9176C53.3353 49.8402 29.9824 76.1516 28.9882 77.2631C28.054 78.3069 26.424 78.305 25.4914 77.2631C24.4972 76.1516 1.14453 49.8402 1.14453 31.9176C1.14485 17.4759 12.8509 5.72656 27.2399 5.72656Z" fill="#FF7C78"/>
</g>
</g>
</g>
<defs>
<clipPath id="clip0_390_11219">
<rect width="84" height="84" fill="white" transform="translate(0.96875)"/>
</clipPath>
<clipPath id="clip1_390_11219">
<rect width="84" height="84" fill="white" transform="translate(0.96875)"/>
</clipPath>
<clipPath id="clip2_390_11219">
<rect width="84" height="72.9057" fill="white" transform="translate(0.96875 5.54688)"/>
</clipPath>
</defs>
</svg>
