<svg width="25" height="25" viewBox="0 0 25 25" fill="none" xmlns="http://www.w3.org/2000/svg">
<g clip-path="url(#clip0_390_10794)">
<path d="M11.3807 5.59702C11.675 4.13433 13.739 4.13433 14.0333 5.59702C14.2351 6.59956 15.4111 7.03299 16.202 6.39632C17.3559 5.46744 18.937 6.81092 18.234 8.12301C17.7522 9.02232 18.3779 10.1198 19.3879 10.1469C20.8615 10.1865 21.2199 12.2448 19.8486 12.7924C18.9086 13.1676 18.6913 14.4157 19.4478 15.0939C20.5516 16.0833 19.5196 17.8934 18.1215 17.4202C17.1632 17.0959 16.2046 17.9105 16.3536 18.9224C16.571 20.3988 14.6315 21.1137 13.8609 19.8412C13.3327 18.969 12.0813 18.969 11.5531 19.8412C10.7825 21.1137 8.843 20.3988 9.06042 18.9224C9.20944 17.9105 8.25078 17.0959 7.29253 17.4202C5.89446 17.8934 4.86247 16.0833 5.9662 15.0939C6.7227 14.4157 6.50538 13.1676 5.56545 12.7924C4.19409 12.2448 4.5525 10.1865 6.02608 10.1469C7.03608 10.1198 7.66181 9.02232 7.17999 8.12301C6.47702 6.81092 8.05812 5.46744 9.21206 6.39632C10.003 7.03299 11.1789 6.59955 11.3807 5.59702Z" stroke="#30363C" stroke-width="1.4"/>
<path d="M10.0136 14.305C9.74025 14.5784 9.74025 15.0216 10.0136 15.295C10.287 15.5684 10.7302 15.5684 11.0036 15.295L10.0136 14.305ZM15.6036 10.695C15.8769 10.4216 15.8769 9.97839 15.6036 9.70502C15.3302 9.43166 14.887 9.43166 14.6136 9.70502L15.6036 10.695ZM11.0036 15.295L15.6036 10.695L14.6136 9.70502L10.0136 14.305L11.0036 15.295Z" fill="#30363C"/>
</g>
<defs>
<clipPath id="clip0_390_10794">
<rect x="0.707031" y="0.5" width="24" height="24" rx="12" fill="white"/>
</clipPath>
</defs>
</svg>
