<svg width="25" height="25" viewBox="0 0 25 25" fill="none" xmlns="http://www.w3.org/2000/svg">
<path d="M12.0551 10.54C13.723 10.54 15.0751 9.1879 15.0751 7.52C15.0751 5.8521 13.723 4.5 12.0551 4.5C10.3872 4.5 9.03516 5.8521 9.03516 7.52C9.03516 9.1879 10.3872 10.54 12.0551 10.54Z" stroke="#30363C" stroke-width="1.4" stroke-linecap="round" stroke-linejoin="round"/>
<path d="M6.17471 20.499H17.9347C18.2105 20.5016 18.4841 20.4499 18.7399 20.3468C18.9957 20.2437 19.2287 20.0912 19.4255 19.8981C19.6224 19.7049 19.7793 19.4749 19.8872 19.2211C19.9952 18.9673 20.0521 18.6948 20.0547 18.419V17.069C20.0547 16.259 19.0547 15.499 17.7247 14.869C15.9441 13.9965 13.9876 13.543 12.0047 13.543C10.0219 13.543 8.0653 13.9965 6.28471 14.869C5.02471 15.499 4.05471 16.239 4.05471 17.039V18.389C4.05338 18.6673 4.10737 18.9431 4.21356 19.2003C4.31975 19.4576 4.47602 19.6912 4.67328 19.8875C4.87053 20.0838 5.10485 20.239 5.36261 20.344C5.62036 20.449 5.89641 20.5016 6.17471 20.499Z" stroke="#30363C" stroke-width="1.4" stroke-linecap="round" stroke-linejoin="round"/>
</svg>
