<svg width="200" height="179" viewBox="0 0 200 179" fill="none" xmlns="http://www.w3.org/2000/svg">
<path d="M93.1846 4.00343L1.05091 165.307C0.361511 166.514 -0.000968545 167.883 1.94364e-06 169.277C0.000972434 170.67 0.365326 172.039 1.0564 173.245C1.74748 174.451 2.74087 175.451 3.9364 176.146C5.13191 176.84 6.48732 177.204 7.86609 177.2H192.134C193.513 177.204 194.868 176.84 196.064 176.146C197.259 175.451 198.252 174.451 198.943 173.245C199.634 172.039 199.999 170.67 200 169.277C200.001 167.883 199.638 166.514 198.949 165.307L106.815 4.00343C106.13 2.78753 105.138 1.77662 103.941 1.07347C102.744 0.37032 101.384 0 100 0C98.6154 0 97.2557 0.37032 96.0588 1.07347C94.8619 1.77662 93.8702 2.78753 93.1846 4.00343Z" fill="#02513E"/>
<path d="M89.1532 142.323C89.1735 141.094 89.4425 139.882 89.9443 138.759C90.4462 137.637 91.1702 136.628 92.0726 135.793C92.9751 134.958 94.0372 134.314 95.1951 133.901C96.3526 133.488 97.5818 133.314 98.8086 133.389C100.006 133.405 101.187 133.656 102.287 134.129C103.386 134.601 104.381 135.286 105.216 136.144C106.05 137.002 106.707 138.015 107.15 139.127C107.592 140.239 107.811 141.428 107.794 142.625C107.778 143.822 107.525 145.004 107.052 146.104C106.578 147.204 105.893 148.201 105.034 149.036C104.176 149.871 103.162 150.529 102.05 150.973C100.937 151.416 99.7486 151.636 98.5517 151.62C97.3175 151.651 96.0899 151.433 94.9422 150.978C93.7948 150.523 92.7511 149.841 91.8735 148.973C90.996 148.105 90.3028 147.068 89.8354 145.926C89.368 144.783 89.136 143.558 89.1532 142.323ZM90.9917 68.3628L108.413 68.6017L104.71 123.63L93.0554 123.477L90.9917 68.3628Z" fill="white"/>
</svg>
