<svg width="187" height="187" viewBox="0 0 187 187" fill="none" xmlns="http://www.w3.org/2000/svg">
<g clip-path="url(#clip0_18547_3958)">
<path d="M12.5419 0.709766C11.6419 1.60977 11.6419 6.00977 12.6419 6.00977C13.0419 6.00977 18.6419 6.10977 25.0419 6.30977L36.6419 6.50977L37.1419 3.70977C37.3458 2.64884 37.3116 1.5559 37.0419 0.509769C36.2419 -0.290231 13.2419 -0.090234 12.5419 0.709766Z" fill="#02513E"/>
<path d="M61.8398 14.6098C52.7398 22.1098 41.1398 31.6098 35.9398 35.8098C9.93984 57.0098 2.83984 63.2098 2.83984 64.4098C3.13887 65.586 3.80428 66.6367 4.73984 67.4098C7.73984 70.1098 3.63984 73.0098 52.6398 32.7098C66.6398 21.3098 78.6398 11.6098 79.3398 11.4098C80.0398 11.2098 90.1398 18.9098 101.84 28.7098C144.54 64.5098 150.04 69.0098 150.74 69.0098C151.674 68.7282 152.554 68.2885 153.34 67.7098C156.04 65.6098 154.64 61.9098 149.54 57.9098C147.14 56.0098 142.74 52.4098 139.74 49.8098C107.84 22.3098 81.7398 1.00977 80.0398 1.00977C79.1398 1.00977 70.9398 7.10977 61.8398 14.6098Z" fill="#02513E"/>
<path d="M18.8398 27.0102C18.8398 34.8102 19.2398 41.0102 19.7398 41.0102C20.0049 40.9914 20.2616 40.9088 20.4879 40.7695C20.7143 40.6302 20.9036 40.4383 21.0398 40.2102C22.623 38.5213 24.3276 36.9505 26.1398 35.5102L30.9398 31.5102L30.6398 22.5102L30.3398 13.5102L24.6398 13.2102L18.8398 12.9102V27.0102Z" fill="#02513E"/>
<path d="M59.3398 35.6098C48.3398 44.7098 34.5398 56.0098 28.6398 60.8098L17.8398 69.3098V149.01H32.7398L33.0398 124.71L33.3398 100.51L36.0398 96.3098C45.3398 82.1098 63.0398 80.1098 74.8398 91.9098C81.2398 98.3098 81.8398 101.41 81.8398 127.41V149.01H88.4398C93.6398 149.01 94.8398 148.71 94.1398 147.71C91.8398 144.91 89.8398 136.21 89.8398 129.51C89.7335 123.029 91.263 116.626 94.2869 110.893C97.3107 105.16 101.731 100.282 107.14 96.7098C115.14 91.5098 121.44 89.7098 131.44 90.1098L139.84 90.5098V69.1098L130.14 60.8098C124.74 56.2098 116.34 49.1098 111.34 45.0098C106.34 40.9098 101.04 36.3098 99.3398 34.9098C93.1398 29.4098 80.3398 19.0098 79.8398 19.0098C79.5398 19.0098 70.3398 26.5098 59.3398 35.6098ZM86.5398 41.0098C89.9398 43.0098 93.8398 49.5098 93.8398 53.0098C93.8398 55.7098 90.6398 62.0098 87.9398 64.4098C86.5398 65.6098 83.8398 66.5098 80.3398 66.8098C75.7398 67.2098 74.2398 66.9098 71.5398 65.0098C69.4314 63.6655 67.7065 61.7988 66.5325 59.5911C65.3585 57.3833 64.7754 54.9094 64.8398 52.4098C64.8398 48.6098 65.4398 47.4098 69.1398 43.5098C73.1398 39.4098 73.8398 39.0098 78.4398 39.0098C81.2723 38.92 84.0747 39.6119 86.5398 41.0098Z" fill="#02513E"/>
<path d="M74.3416 47.2098C69.1416 51.8098 72.2416 61.0098 79.0416 61.0098C82.9416 61.0098 86.8416 57.0098 86.8416 53.0098C86.8416 49.2098 82.9416 45.0098 79.4416 45.0098C77.5604 45.2187 75.7845 45.9847 74.3416 47.2098Z" fill="#02513E"/>
<path d="M49.3398 92.5102C44.8398 94.9102 43.1398 96.7102 40.9398 101.61C39.0398 105.61 38.8398 107.81 38.8398 127.51V149.01H75.9398L75.6398 126.21C75.3398 100.91 74.9398 99.5102 68.2398 94.3102C63.6398 90.9102 54.1398 89.9102 49.3398 92.5102ZM49.3398 127.51C49.3398 134.31 49.2398 134.51 46.8398 134.51C44.4398 134.51 44.3398 134.11 44.0398 128.61C43.6398 121.31 44.2398 119.81 47.0398 120.21C49.1398 120.51 49.3398 121.01 49.3398 127.51Z" fill="#02513E"/>
<path d="M122.138 97.0102C117.114 98.1855 112.422 100.489 108.42 103.746C104.418 107.004 101.209 111.129 99.0381 115.81C95.7381 123.11 95.4381 134.01 98.2381 141.71C101.413 149.455 107.221 155.83 114.638 159.71C119.638 162.21 121.438 162.51 129.838 162.51C137.838 162.51 140.038 162.11 143.638 160.21C150.369 156.599 155.869 151.063 159.438 144.31C162.038 139.31 162.338 137.61 162.338 129.61C162.338 121.61 162.038 119.91 159.338 114.61C155.938 107.81 149.138 101.51 142.538 98.9102C137.038 96.7102 127.638 95.8102 122.138 97.0102ZM139.338 107.91C141.722 109.019 143.889 110.542 145.738 112.41C148.038 114.91 148.138 115.11 146.538 116.71C144.938 118.31 144.438 118.31 138.938 115.21C135.738 113.51 131.738 112.01 130.038 112.01C127.138 112.01 120.038 114.71 116.738 117.11C114.438 118.81 111.638 117.51 112.038 114.81C112.338 112.51 118.838 107.41 122.338 106.71C127.538 105.61 135.538 106.21 139.338 107.91Z" fill="#02513E"/>
<path d="M0.738562 157.61C0.301954 158.016 0.0378427 158.575 0.000634661 159.17C-0.0365733 159.765 0.155956 160.352 0.538561 160.81C1.43856 162.31 6.33856 162.51 54.2386 162.81L106.839 163.01L102.939 159.51L99.1386 156.01H50.6386C7.53856 156.01 1.93856 156.21 0.738562 157.61Z" fill="#02513E"/>
<path d="M156.941 158.41L154.641 160.81L165.941 173.41C172.441 180.81 178.141 186.31 179.541 186.71C181.441 187.11 182.741 186.61 184.541 184.71C188.741 180.61 187.341 178.31 173.541 167.31C166.841 161.81 160.841 157.11 160.241 156.71C159.641 156.31 158.141 157.11 156.941 158.41Z" fill="#02513E"/>
</g>
<defs>
<clipPath id="clip0_18547_3958">
<rect width="186.63" height="186.84" fill="white"/>
</clipPath>
</defs>
</svg>
