<svg width="269" height="256" viewBox="0 0 269 256" fill="none" xmlns="http://www.w3.org/2000/svg">
<g clip-path="url(#clip0_18547_3946)">
<path d="M2.45055 3.1C-0.849448 7 -0.849448 9 2.65055 12.3C5.45055 15 5.55055 15 20.7506 15C39.1506 15 42.7506 15.9 48.9506 22C51.4574 24.4671 53.4473 27.4093 54.8037 30.6545C56.1602 33.8997 56.856 37.3827 56.8506 40.9C56.9452 43.9217 57.2796 46.9312 57.8506 49.9C58.3506 53 59.2506 59.1 59.7506 63.5C62.7506 88.5 63.2505 92.3 66.3505 114C67.1505 119.8 68.2505 128.5 68.8505 133.5C69.4505 138.5 70.3505 145.2 70.8505 148.5C71.3505 151.8 72.0505 157.3 72.3505 160.7L72.9505 166.8L67.2505 168.5C59.3505 170.8 51.7506 178.3 49.4506 186.2C47.5506 192.9 47.4506 195 49.0506 200.4C50.7296 206.756 54.8187 212.208 60.4506 215.6C65.1505 218.6 67.1506 219.2 74.1506 219.8L82.3505 220.5L82.4505 229.5C82.5505 239.5 83.7505 242.8 89.4505 248.5C99.7505 258.9 115.851 258.3 125.851 247.3C131.551 241.1 132.251 239.3 132.251 229.5L132.351 220.5H157.851C182.751 220.5 183.351 220.5 183.051 222.5C181.451 233.8 182.951 240.4 188.651 247C192.951 252.2 201.251 256 207.851 256C223.051 256 236.151 240 232.851 225.7C232.214 223.029 231.344 220.419 230.251 217.9C228.251 213.8 220.051 207.1 215.451 205.8C212.251 204.8 195.851 204.6 143.851 204.9C95.4506 205.1 75.1506 204.9 72.1506 204.1C64.0506 201.9 61.1505 193.4 66.4505 187.1C69.3505 183.6 74.0505 182 81.3505 182C84.0505 182 91.2505 181.5 97.3505 181C103.451 180.5 113.351 179.5 119.351 178.9C125.351 178.3 137.351 177.3 145.851 176.5C154.351 175.7 167.251 174.6 174.351 174C234.051 169.1 235.651 168.8 243.851 161.4C251.551 154.4 253.151 149 258.851 111C259.451 106.9 260.351 101 260.851 98C261.351 95 262.251 89.6 262.751 86C264.751 73.6 267.951 54.5 268.451 51.8C268.951 49.7 268.451 48.4 266.051 46L263.051 43H168.051C88.4506 43 72.9505 42.8 72.5505 41.6C72.0046 39.5643 71.6036 37.4924 71.3505 35.4C69.2505 19.4 60.6506 7.7 47.3506 2.7C40.6506 0.0999999 39.3506 0 22.6506 0H5.05055L2.45055 3.1ZM119.651 73.3C122.051 75.8 122.751 80.4 124.851 103.5C125.451 110.1 126.351 119.9 126.951 125.2C128.051 134.4 127.951 135 125.851 137.9C123.251 141.6 119.851 142.7 115.751 141C111.651 139.3 110.651 136.9 109.651 126.5C109.251 121.5 108.351 112.8 107.851 107C107.351 101.2 106.551 91.9 106.151 86.2C105.551 76.4 105.651 75.8 107.851 73.5C110.951 70.2 116.651 70.1 119.651 73.3ZM169.251 73.1L171.851 75.1V105.9C171.851 135.4 171.751 136.7 169.851 138.8C167.151 141.7 163.551 142.5 160.251 140.8C155.051 138.3 154.851 137 155.051 105.3L155.351 76.2L157.751 73.6C160.751 70.4 165.551 70.2 169.251 73.1ZM219.351 74L222.151 77L220.951 88.7C220.251 95.2 219.351 105.2 218.851 111C216.551 136.4 216.451 137.1 213.451 139.6C209.751 142.9 206.351 142.6 202.651 139L199.651 135.9L200.351 125.2C200.651 119.3 201.651 109.5 202.451 103.5C203.251 97.5 203.851 90.3 203.851 87.7C203.851 80.8 205.751 74.2 208.151 72.5C211.651 70 216.151 70.6 219.351 74ZM113.551 222.6C114.751 223.3 116.251 225.8 116.951 227.9C117.951 231.4 117.851 232.2 115.951 235.3C111.951 241.9 105.051 242.5 99.6506 236.8C96.1506 233 95.9505 228.8 99.3505 224.4C102.851 219.8 108.251 219.1 113.551 222.6ZM215.151 224C217.951 227.2 218.451 230.2 216.851 234.4C215.851 237.3 210.451 241 207.451 241C204.651 241 199.351 236.6 197.851 233.1C196.851 230.5 196.951 229.5 198.451 226.3C201.951 219.3 209.851 218.1 215.151 224Z" fill="#02513E"/>
</g>
<defs>
<clipPath id="clip0_18547_3946">
<rect width="268.63" height="256" fill="white"/>
</clipPath>
</defs>
</svg>
